{
.appVersion = "3078";
classes = (
{

glyphs = (
{
color = 1;
glyphname = A;
lastChange = "2018-03-29 21:51:31 +0000";
layers = (
{
anchors = (
{
name = bottom;
position = "{252, 0}";
},
{
name = ogonek;
position = "{454, 0}";
},
{
name = top;
position = "{252, 718}";
}
);
layerId = "4068F5EB-61ED-493D-A7D9-97E487B445BB";
paths = (
{
closed = 1;
nodes = (
"51 718 LINE",
"51 0 LINE",
"154 0 LINE",
"154 184 LINE SMOOTH",
"154 214 OFFCURVE",
"161 231 OFFCURVE",
"191 231 CURVE SMOOTH",
"313 231 LINE SMOOTH",
"343 231 OFFCURVE",
"350 214 OFFCURVE",
"350 184 CURVE SMOOTH",
"350 0 LINE",
"453 0 LINE",
"453 718 LINE"
);
},
{
closed = 1;
nodes = (
"350 343 OFFCURVE",
"343 326 OFFCURVE",
"313 326 CURVE SMOOTH",
"191 326 LINE SMOOTH",
"161 326 OFFCURVE",
"154 343 OFFCURVE",
"154 373 CURVE SMOOTH",
"154 568 LINE SMOOTH",
"154 605 OFFCURVE",
"174 625 OFFCURVE",
"211 625 CURVE SMOOTH",
"293 625 LINE SMOOTH",
"330 625 OFFCURVE",
"350 605 OFFCURVE",
"350 568 CURVE SMOOTH",
"350 373 LINE SMOOTH"
);
}
);
width = 504;
},
{
associatedMasterId = "4068F5EB-61ED-493D-A7D9-97E487B445BB";
layerId = "D8D5D010-A444-48C8-9FF4-65618D12DFC6";
name = "Apr 2 17, 16:50";
paths = (
{
closed = 1;
nodes = (
"404 718 LINE",
"141 718 LINE",
"51 1 LINE",
"154 0 LINE",
"224 591 LINE SMOOTH",
"226 611 OFFCURVE",
"236 623 OFFCURVE",
"256 623 CURVE SMOOTH",
"289 623 LINE SMOOTH",
"309 623 OFFCURVE",
"319 611 OFFCURVE",
"321 591 CURVE SMOOTH",
"391 0 LINE",
"494 0 LINE"
);
},
{
closed = 1;
nodes = (
"88 139 LINE",
"454 139 LINE",
"434 246 LINE",
"108 246 LINE"
);
}
);
visible = 1;
width = 545;
},
{
associatedMasterId = "4068F5EB-61ED-493D-A7D9-97E487B445BB";
layerId = "FEF42308-E98A-4954-BF2E-4923C74EF026";
name = "Apr 19 17, 00:40";
paths = (
{
closed = 1;
nodes = (
"160 513 LINE",
"160 591 LINE SMOOTH",
"160 611 OFFCURVE",
"172 623 OFFCURVE",
"192 623 CURVE SMOOTH",
"319 623 LINE SMOOTH",
"339 623 OFFCURVE",
"351 611 OFFCURVE",
"351 591 CURVE SMOOTH",
"351 442 LINE SMOOTH",
"351 419 OFFCURVE",
"338 406 OFFCURVE",
"315 406 CURVE SMOOTH",
"79 406 LINE",
"79 311 LINE",
"315 311 LINE SMOOTH",
"338 311 OFFCURVE",
"351 298 OFFCURVE",
"351 275 CURVE SMOOTH",
"351 127 LINE SMOOTH",
"351 107 OFFCURVE",
"339 95 OFFCURVE",
"319 95 CURVE SMOOTH",
"186 95 LINE SMOOTH",
"166 95 OFFCURVE",
"154 107 OFFCURVE",
"154 127 CURVE SMOOTH",
"154 406 LINE",
"51 406 LINE",
"51 0 LINE",
"454 0 LINE",
"454 718 LINE",
"57 718 LINE",
"57 513 LINE"
);
}
);
width = 505;
},
{
associatedMasterId = "4068F5EB-61ED-493D-A7D9-97E487B445BB";
layerId = "F117CCE2-C125-4D48-8EC4-43A3A3DEDEF2";
name = "Apr 2 17, 16:50";
paths = (
{
closed = 1;
nodes = (
"404 718 LINE",
"141 718 LINE",
"51 1 LINE",
"154 0 LINE",
"224 591 LINE SMOOTH",
"226 611 OFFCURVE",
"236 623 OFFCURVE",
"256 623 CURVE SMOOTH",
"289 623 LINE SMOOTH",
"309 623 OFFCURVE",
"319 611 OFFCURVE",
"321 591 CURVE SMOOTH",
"391 0 LINE",
"494 0 LINE"
);
},
{
closed = 1;
nodes = (
"88 139 LINE",
"454 139 LINE",
"434 246 LINE",
"108 246 LINE"
);
}
);
width = 545;
},
{
associatedMasterId = "4068F5EB-61ED-493D-A7D9-97E487B445BB";
layerId = "BE9EE6CB-6CF1-46DF-9220-7A1F914B4689";
name = "Apr 19 17, 00:40";
paths = (
{
closed = 1;
nodes = (
"160 513 LINE",
"160 591 LINE SMOOTH",
"160 611 OFFCURVE",
"172 623 OFFCURVE",
"192 623 CURVE SMOOTH",
"319 623 LINE SMOOTH",
"339 623 OFFCURVE",
"351 611 OFFCURVE",
"351 591 CURVE SMOOTH",
"351 442 LINE SMOOTH",
"351 419 OFFCURVE",
"338 406 OFFCURVE",
"315 406 CURVE SMOOTH",
"79 406 LINE",
"79 311 LINE",
"315 311 LINE SMOOTH",
"338 311 OFFCURVE",
"351 298 OFFCURVE",
"351 275 CURVE SMOOTH",
"351 127 LINE SMOOTH",
"351 107 OFFCURVE",
"339 95 OFFCURVE",
"319 95 CURVE SMOOTH",
"186 95 LINE SMOOTH",
"166 95 OFFCURVE",
"154 107 OFFCURVE",
"154 127 CURVE SMOOTH",
"154 406 LINE",
"51 406 LINE",
"51 0 LINE",
"454 0 LINE",
"454 718 LINE",
"57 718 LINE",
"57 513 LINE"
);
}
);
width = 505;
}
);
leftKerningGroup = A;
leftMetricsKey = E;
rightKerningGroup = A;
rightMetricsKey = E;
unicode = 0041;
},
{
color = 1;
glyphname = Adblgrave;
lastChange = "2018-03-29 21:51:31 +0000";
layers = (
{
anchors = (
{
name = bottom;
position = "{252, 0}";
},
{
name = ogonek;
position = "{454, 10}";
},
{
name = top;
position = "{252, 718}";
}
);
layerId = "4068F5EB-61ED-493D-A7D9-97E487B445BB";
paths = (
{
closed = 1;
nodes = (
"145 791 OFFCURVE",
"172 759 OFFCURVE",
"217 759 CURVE SMOOTH",
"243 759 LINE",
"223 923 LINE",
"128 923 LINE",
"139 836 LINE SMOOTH"
);
},
{
closed = 1;
nodes = (
"275 791 OFFCURVE",
"302 759 OFFCURVE",
"347 759 CURVE SMOOTH",
"373 759 LINE",
"353 923 LINE",
"258 923 LINE",
"269 836 LINE SMOOTH"
);
},
{
closed = 1;
nodes = (
"51 718 LINE",
"51 0 LINE",
"154 0 LINE",
"154 184 LINE SMOOTH",
"154 214 OFFCURVE",
"161 231 OFFCURVE",
"191 231 CURVE SMOOTH",
"313 231 LINE SMOOTH",
"343 231 OFFCURVE",
"350 214 OFFCURVE",
"350 184 CURVE SMOOTH",
"350 0 LINE",
"453 0 LINE",
"453 718 LINE"
);
},
{
closed = 1;
nodes = (
"350 343 OFFCURVE",
"343 326 OFFCURVE",
"313 326 CURVE SMOOTH",
"191 326 LINE SMOOTH",
"161 326 OFFCURVE",
"154 343 OFFCURVE",
"154 373 CURVE SMOOTH",
"154 568 LINE SMOOTH",
"154 605 OFFCURVE",
"174 625 OFFCURVE",
"211 625 CURVE SMOOTH",
"293 625 LINE SMOOTH",
"330 625 OFFCURVE",
"350 605 OFFCURVE",
"350 568 CURVE SMOOTH",
"350 373 LINE SMOOTH"
);
}
);
width = 504;
}
);
leftKerningGroup = Adblgrave;
rightKerningGroup = Adblgrave;
unicode = 0200;
},
{
color = 1;
glyphname = Agrave;
lastChange = "2018-03-29 21:51:31 +0000";
layers = (
{
anchors = (
{
name = bottom;
position = "{252, 0}";
},
{
name = ogonek;
position = "{454, 10}";
},
{
name = top;
position = "{252, 718}";
}
);
layerId = "4068F5EB-61ED-493D-A7D9-97E487B445BB";
paths = (
{
closed = 1;
nodes = (
"207 798 OFFCURVE",
"240 766 OFFCURVE",
"285 766 CURVE SMOOTH",
"297 766 LINE",
"297 923 LINE",
"207 923 LINE",
"207 843 LINE SMOOTH"
);
},
{
closed = 1;
nodes = (
"51 718 LINE",
"51 0 LINE",
"154 0 LINE",
"154 184 LINE SMOOTH",
"154 214 OFFCURVE",
"161 231 OFFCURVE",
"191 231 CURVE SMOOTH",
"313 231 LINE SMOOTH",
"343 231 OFFCURVE",
"350 214 OFFCURVE",
"350 184 CURVE SMOOTH",
"350 0 LINE",
"453 0 LINE",
"453 718 LINE"
);
},
{
closed = 1;
nodes = (
"350 343 OFFCURVE",
"343 326 OFFCURVE",
"313 326 CURVE SMOOTH",
"191 326 LINE SMOOTH",
"161 326 OFFCURVE",
"154 343 OFFCURVE",
"154 373 CURVE SMOOTH",
"154 568 LINE SMOOTH",
"154 605 OFFCURVE",
"174 625 OFFCURVE",
"211 625 CURVE SMOOTH",
"293 625 LINE SMOOTH",
"330 625 OFFCURVE",
"350 605 OFFCURVE",
"350 568 CURVE SMOOTH",
"350 373 LINE SMOOTH"
);
}
);
width = 504;
}
);
leftKerningGroup = A;
rightKerningGroup = A;
unicode = 00C0;
},
{
color = 1;
glyphname = AE;
lastChange = "2018-03-29 21:51:31 +0000";
layers = (
{
anchors = (
{
name = bottom;
position = "{222, 0}";
},
{
name = ogonek;
position = "{423, 10}";
},
{
name = top;
position = "{374, 718}";
},
{
name = topleft;
position = "{290, 718}";
}
);
layerId = "4068F5EB-61ED-493D-A7D9-97E487B445BB";
paths = (
{
closed = 1;
nodes = (
"684 718 LINE",
"51 718 LINE",
"51 0 LINE",
"154 0 LINE",
"154 184 LINE SMOOTH",
"154 214 OFFCURVE",
"161 231 OFFCURVE",
"191 231 CURVE SMOOTH",
"283 231 LINE SMOOTH",
"313 231 OFFCURVE",
"320 214 OFFCURVE",
"320 184 CURVE SMOOTH",
"320 0 LINE",
"684 0 LINE",
"684 205 LINE",
"581 205 LINE",
"581 127 LINE SMOOTH",
"581 107 OFFCURVE",
"569 95 OFFCURVE",
"549 95 CURVE SMOOTH",
"456 95 LINE SMOOTH",
"436 95 OFFCURVE",
"424 107 OFFCURVE",
"424 127 CURVE SMOOTH",
"424 275 LINE SMOOTH",
"424 298 OFFCURVE",
"437 311 OFFCURVE",
"460 311 CURVE SMOOTH",
"576 311 LINE",
"576 406 LINE",
"460 406 LINE SMOOTH",
"437 406 OFFCURVE",
"424 419 OFFCURVE",
"424 442 CURVE SMOOTH",
"424 591 LINE SMOOTH",
"424 611 OFFCURVE",
"436 623 OFFCURVE",
"456 623 CURVE SMOOTH",
"549 623 LINE SMOOTH",
"569 623 OFFCURVE",
"581 615 OFFCURVE",
"581 591 CURVE SMOOTH",
"581 513 LINE",
"684 513 LINE"
);
},
{
closed = 1;
nodes = (
"320 343 OFFCURVE",
"313 326 OFFCURVE",
"283 326 CURVE SMOOTH",
"191 326 LINE SMOOTH",
"161 326 OFFCURVE",
"154 343 OFFCURVE",
"154 373 CURVE SMOOTH",
"154 568 LINE SMOOTH",
"154 605 OFFCURVE",
"174 625 OFFCURVE",
"211 625 CURVE SMOOTH",
"263 625 LINE SMOOTH",
"300 625 OFFCURVE",
"320 605 OFFCURVE",
"320 568 CURVE SMOOTH",
"320 373 LINE SMOOTH"
);
}
);
width = 735;
}
);
leftKerningGroup = A;
leftMetricsKey = A;
rightKerningGroup = E;
rightMetricsKey = E;
unicode = 00C6;
},
{
color = 1;
glyphname = B;
lastChange = "2018-03-29 21:51:31 +0000";
layers = (
{
anchors = (
{
name = bottom;
position = "{258, 0}";
},
{
name = top;
position = "{258, 718}";
}
);
layerId = "4068F5EB-61ED-493D-A7D9-97E487B445BB";
paths = (
{
closed = 1;
nodes = (
"463 452 LINE",
"463 718 LINE",
"51 718 LINE",
"51 0 LINE",
"464 0 LINE",
"464 282 LINE",
"340 362 LINE"
);
},
{
closed = 1;
nodes = (
"154 605 OFFCURVE",
"174 625 OFFCURVE",
"211 625 CURVE SMOOTH",
"360 625 LINE",
"360 498 LINE",
"237 408 LINE",
"191 408 LINE SMOOTH",
"161 408 OFFCURVE",
"154 425 OFFCURVE",
"154 455 CURVE SMOOTH",
"154 568 LINE SMOOTH"
);
},
{
closed = 1;
nodes = (
"174 93 OFFCURVE",
"154 113 OFFCURVE",
"154 150 CURVE SMOOTH",
"154 266 LINE SMOOTH",
"154 296 OFFCURVE",
"161 313 OFFCURVE",
"191 313 CURVE SMOOTH",
"234 313 LINE",
"361 231 LINE",
"361 93 LINE",
"211 93 LINE SMOOTH"
);
}
);
width = 515;
}
);
leftKerningGroup = H;
leftMetricsKey = E;
rightKerningGroup = B;
rightMetricsKey = E;
unicode = 0042;
},
{
color = 1;
glyphname = C;
lastChange = "2018-03-29 21:51:31 +0000";
layers = (
{
anchors = (
{
name = bottom;
position = "{253, 0}";
},
{
name = top;
position = "{253, 718}";
}
);
layerId = "4068F5EB-61ED-493D-A7D9-97E487B445BB";
paths = (
{
closed = 1;
nodes = (
"51 0 LINE",
"444 0 LINE",
"444 255 LINE",
"341 255 LINE",
"341 127 LINE SMOOTH",
"341 107 OFFCURVE",
"329 95 OFFCURVE",
"309 95 CURVE SMOOTH",
"186 95 LINE SMOOTH",
"166 95 OFFCURVE",
"154 107 OFFCURVE",
"154 127 CURVE SMOOTH",
"154 591 LINE SMOOTH",
"154 611 OFFCURVE",
"166 623 OFFCURVE",
"186 623 CURVE SMOOTH",
"309 623 LINE SMOOTH",
"329 623 OFFCURVE",
"341 611 OFFCURVE",
"341 591 CURVE SMOOTH",
"341 463 LINE",
"444 463 LINE",
"444 718 LINE",
"51 718 LINE"
);
}
);
width = 495;
}
);
leftKerningGroup = O;
leftMetricsKey = E;
rightKerningGroup = C;
rightMetricsKey = E;
unicode = 0043;
},
{
color = 1;
glyphname = D;
lastChange = "2018-03-29 21:51:31 +0000";
layers = (
{
anchors = (
{
name = bottom;
position = "{263, 0}";
},
{
name = center;
position = "{263, 359}";
},
{
name = top;
position = "{263, 718}";
}
);
layerId = "4068F5EB-61ED-493D-A7D9-97E487B445BB";
paths = (
{
closed = 1;
nodes = (
"51 718 LINE",
"51 0 LINE",
"323 0 LINE",
"474 116 LINE",
"474 602 LINE",
"323 718 LINE"
);
},
{
closed = 1;
nodes = (
"371 162 LINE",
"282 95 LINE",
"191 95 LINE SMOOTH",
"161 95 OFFCURVE",
"154 112 OFFCURVE",
"154 142 CURVE SMOOTH",
"154 576 LINE SMOOTH",
"154 606 OFFCURVE",
"161 623 OFFCURVE",
"191 623 CURVE SMOOTH",
"282 623 LINE",
"371 556 LINE"
);
}
);
width = 525;
}
);
leftKerningGroup = H;
leftMetricsKey = E;
rightKerningGroup = O;
rightMetricsKey = E;
unicode = 0044;
},
{
color = 1;
glyphname = Eth;
lastChange = "2018-03-29 21:51:31 +0000";
layers = (
{
layerId = "4068F5EB-61ED-493D-A7D9-97E487B445BB";
paths = (
{
closed = 1;
nodes = (
"82 718 LINE",
"82 406 LINE",
"51 406 LINE",
"51 311 LINE",
"82 311 LINE",
"82 0 LINE",
"354 0 LINE",
"505 116 LINE",
"505 602 LINE",
"354 718 LINE"
);
},
{
closed = 1;
nodes = (
"313 95 LINE",
"222 95 LINE SMOOTH",
"192 95 OFFCURVE",
"185 112 OFFCURVE",
"185 142 CURVE SMOOTH",
"185 311 LINE",
"290 311 LINE",
"290 406 LINE",
"185 406 LINE",
"185 576 LINE SMOOTH",
"185 606 OFFCURVE",
"192 623 OFFCURVE",
"222 623 CURVE SMOOTH",
"313 623 LINE",
"402 556 LINE",
"402 162 LINE"
);
}
);
width = 556;
}
);
leftKerningGroup = H;
leftMetricsKey = D;
rightKerningGroup = O;
rightMetricsKey = D;
unicode = 00D0;
},
{
color = 1;
glyphname = E;
lastChange = "2018-03-29 21:51:31 +0000";
layers = (
{
anchors = (
{
name = bottom;
position = "{253, 0}";
},
{
name = ogonek;
position = "{454, 0}";
},
{
name = top;
position = "{253, 718}";
},
{
name = topleft;
position = "{20, 718}";
}
);
layerId = "4068F5EB-61ED-493D-A7D9-97E487B445BB";
paths = (
{
closed = 1;
nodes = (
"454 718 LINE",
"51 718 LINE",
"51 0 LINE",
"454 0 LINE",
"454 205 LINE",
"351 205 LINE",
"351 127 LINE SMOOTH",
"351 107 OFFCURVE",
"339 95 OFFCURVE",
"319 95 CURVE SMOOTH",
"186 95 LINE SMOOTH",
"166 95 OFFCURVE",
"154 107 OFFCURVE",
"154 127 CURVE SMOOTH",
"154 275 LINE SMOOTH",
"154 298 OFFCURVE",
"167 311 OFFCURVE",
"190 311 CURVE SMOOTH",
"346 311 LINE",
"346 406 LINE",
"190 406 LINE SMOOTH",
"167 406 OFFCURVE",
"154 419 OFFCURVE",
"154 442 CURVE SMOOTH",
"154 591 LINE SMOOTH",
"154 611 OFFCURVE",
"166 623 OFFCURVE",
"186 623 CURVE SMOOTH",
"319 623 LINE SMOOTH",
"339 623 OFFCURVE",
"351 615 OFFCURVE",
"351 591 CURVE SMOOTH",
"351 513 LINE",
"454 513 LINE"
);
}
);
width = 505;
}
);
leftKerningGroup = H;
leftMetricsKey = E;
rightKerningGroup = E;
unicode = 0045;
},
{
color = 1;
glyphname = Edblgrave;
lastChange = "2018-03-29 21:51:31 +0000";
layers = (
{
anchors = (
{
name = bottom;
position = "{253, 0}";
},
{
name = ogonek;
position = "{454, 10}";
},
{
name = top;
position = "{253, 718}";
},
{
name = topleft;
position = "{20, 718}";
}
);
layerId = "4068F5EB-61ED-493D-A7D9-97E487B445BB";
paths = (
{
closed = 1;
nodes = (
"146 791 OFFCURVE",
"173 759 OFFCURVE",
"218 759 CURVE SMOOTH",
"244 759 LINE",
"224 923 LINE",
"129 923 LINE",
"140 836 LINE SMOOTH"
);
},
{
closed = 1;
nodes = (
"276 791 OFFCURVE",
"303 759 OFFCURVE",
"348 759 CURVE SMOOTH",
"374 759 LINE",
"354 923 LINE",
"259 923 LINE",
"270 836 LINE SMOOTH"
);
},
{
closed = 1;
nodes = (
"454 718 LINE",
"51 718 LINE",
"51 0 LINE",
"454 0 LINE",
"454 205 LINE",
"351 205 LINE",
"351 127 LINE SMOOTH",
"351 107 OFFCURVE",
"339 95 OFFCURVE",
"319 95 CURVE SMOOTH",
"186 95 LINE SMOOTH",
"166 95 OFFCURVE",
"154 107 OFFCURVE",
"154 127 CURVE SMOOTH",
"154 275 LINE SMOOTH",
"154 298 OFFCURVE",
"167 311 OFFCURVE",
"190 311 CURVE SMOOTH",
"346 311 LINE",
"346 406 LINE",
"190 406 LINE SMOOTH",
"167 406 OFFCURVE",
"154 419 OFFCURVE",
"154 442 CURVE SMOOTH",
"154 591 LINE SMOOTH",
"154 611 OFFCURVE",
"166 623 OFFCURVE",
"186 623 CURVE SMOOTH",
"319 623 LINE SMOOTH",
"339 623 OFFCURVE",
"351 615 OFFCURVE",
"351 591 CURVE SMOOTH",
"351 513 LINE",
"454 513 LINE"
);
}
);
width = 505;
}
);
leftKerningGroup = Edblgrave;
rightKerningGroup = Edblgrave;
unicode = 0204;
},
{
color = 1;
glyphname = Egrave;
lastChange = "2018-03-29 21:51:31 +0000";
layers = (
{
anchors = (
{
name = bottom;
position = "{253, 0}";
},
{
name = ogonek;
position = "{454, 10}";
},
{
name = top;
position = "{253, 718}";
},
{
name = topleft;
position = "{20, 718}";
}
);
layerId = "4068F5EB-61ED-493D-A7D9-97E487B445BB";
paths = (
{
closed = 1;
nodes = (
"208 798 OFFCURVE",
"241 766 OFFCURVE",
"286 766 CURVE SMOOTH",
"298 766 LINE",
"298 923 LINE",
"208 923 LINE",
"208 843 LINE SMOOTH"
);
},
{
closed = 1;
nodes = (
"454 718 LINE",
"51 718 LINE",
"51 0 LINE",
"454 0 LINE",
"454 205 LINE",
"351 205 LINE",
"351 127 LINE SMOOTH",
"351 107 OFFCURVE",
"339 95 OFFCURVE",
"319 95 CURVE SMOOTH",
"186 95 LINE SMOOTH",
"166 95 OFFCURVE",
"154 107 OFFCURVE",
"154 127 CURVE SMOOTH",
"154 275 LINE SMOOTH",
"154 298 OFFCURVE",
"167 311 OFFCURVE",
"190 311 CURVE SMOOTH",
"346 311 LINE",
"346 406 LINE",
"190 406 LINE SMOOTH",
"167 406 OFFCURVE",
"154 419 OFFCURVE",
"154 442 CURVE SMOOTH",
"154 591 LINE SMOOTH",
"154 611 OFFCURVE",
"166 623 OFFCURVE",
"186 623 CURVE SMOOTH",
"319 623 LINE SMOOTH",
"339 623 OFFCURVE",
"351 615 OFFCURVE",
"351 591 CURVE SMOOTH",
"351 513 LINE",
"454 513 LINE"
);
}
);
width = 505;
}
);
leftKerningGroup = H;
rightKerningGroup = E;
unicode = 00C8;
},
{
color = 1;
glyphname = F;
lastChange = "2018-03-29 21:51:31 +0000";
layers = (
{
anchors = (
{
name = bottom;
position = "{253, 0}";
},
{
name = top;
position = "{253, 718}";
}
);
layerId = "4068F5EB-61ED-493D-A7D9-97E487B445BB";
paths = (
{
closed = 1;
nodes = (
"154 255 LINE SMOOTH",
"154 278 OFFCURVE",
"167 291 OFFCURVE",
"190 291 CURVE SMOOTH",
"386 291 LINE",
"386 386 LINE",
"190 386 LINE SMOOTH",
"167 386 OFFCURVE",
"154 399 OFFCURVE",
"154 422 CURVE SMOOTH",
"154 591 LINE SMOOTH",
"154 611 OFFCURVE",
"166 623 OFFCURVE",
"186 623 CURVE SMOOTH",
"319 623 LINE SMOOTH",
"339 623 OFFCURVE",
"351 615 OFFCURVE",
"351 591 CURVE SMOOTH",
"351 513 LINE",
"454 513 LINE",
"454 718 LINE",
"51 718 LINE",
"51 0 LINE",
"154 0 LINE"
);
}
);
width = 505;
}
);
leftKerningGroup = H;
leftMetricsKey = E;
rightKerningGroup = F;
rightMetricsKey = E;
unicode = 0046;
},
{
color = 1;
glyphname = G;
lastChange = "2018-03-29 21:51:31 +0000";
layers = (
{
anchors = (
{
name = bottom;
position = "{253, 0}";
},
{
name = top;
position = "{253, 718}";
}
);
layerId = "4068F5EB-61ED-493D-A7D9-97E487B445BB";
paths = (
{
closed = 1;
nodes = (
"454 718 LINE",
"51 718 LINE",
"51 0 LINE",
"454 0 LINE",
"454 416 LINE",
"244 416 LINE",
"244 321 LINE",
"351 321 LINE",
"351 127 LINE SMOOTH",
"351 107 OFFCURVE",
"339 95 OFFCURVE",
"319 95 CURVE SMOOTH",
"186 95 LINE SMOOTH",
"166 95 OFFCURVE",
"154 107 OFFCURVE",
"154 127 CURVE SMOOTH",
"154 591 LINE SMOOTH",
"154 611 OFFCURVE",
"166 623 OFFCURVE",
"186 623 CURVE SMOOTH",
"319 623 LINE SMOOTH",
"339 623 OFFCURVE",
"351 611 OFFCURVE",
"351 591 CURVE SMOOTH",
"351 523 LINE",
"454 523 LINE"
);
}
);
width = 505;
}
);
leftKerningGroup = O;
leftMetricsKey = E;
rightKerningGroup = G;
rightMetricsKey = E;
unicode = 0047;
},
{
color = 1;
glyphname = H;
lastChange = "2018-03-29 21:51:31 +0000";
layers = (
{
anchors = (
{
name = bottom;
position = "{263, 0}";
},
{
name = center;
position = "{263, 359}";
},
{
name = top;
position = "{263, 718}";
},
{
name = topleft;
position = "{20, 718}";
}
);
layerId = "4068F5EB-61ED-493D-A7D9-97E487B445BB";
paths = (
{
closed = 1;
nodes = (
"289 718 LINE",
"289 625 LINE",
"315 625 LINE SMOOTH",
"347 625 OFFCURVE",
"367 610 OFFCURVE",
"371 582 CURVE",
"371 455 LINE SMOOTH",
"371 425 OFFCURVE",
"364 408 OFFCURVE",
"334 408 CURVE SMOOTH",
"191 408 LINE SMOOTH",
"161 408 OFFCURVE",
"154 425 OFFCURVE",
"154 455 CURVE SMOOTH",
"154 718 LINE",
"51 718 LINE",
"51 0 LINE",
"237 0 LINE",
"237 93 LINE",
"211 93 LINE SMOOTH",
"174 93 OFFCURVE",
"154 113 OFFCURVE",
"154 150 CURVE SMOOTH",
"154 266 LINE SMOOTH",
"154 296 OFFCURVE",
"161 313 OFFCURVE",
"191 313 CURVE SMOOTH",
"334 313 LINE SMOOTH",
"364 313 OFFCURVE",
"371 296 OFFCURVE",
"371 266 CURVE SMOOTH",
"371 0 LINE",
"474 0 LINE",
"474 717 LINE",
"475 718 LINE"
);
}
);
width = 526;
}
);
leftKerningGroup = H;
leftMetricsKey = E;
rightKerningGroup = H;
rightMetricsKey = E;
unicode = 0048;
},
{
color = 1;
glyphname = Hbar;
lastChange = "2018-03-29 21:51:31 +0000";
layers = (
{
anchors = (
{
name = bottom;
position = "{301, 0}";
},
{
name = center;
position = "{301, 359}";
},
{
name = top;
position = "{301, 718}";
},
{
name = topleft;
position = "{544, 718}";
}
);
layerId = "4068F5EB-61ED-493D-A7D9-97E487B445BB";
paths = (
{
closed = 1;
nodes = (
"513 578 LINE",
"513 718 LINE",
"410 718 LINE",
"410 578 LINE",
"193 578 LINE",
"193 582 LINE",
"197 610 OFFCURVE",
"217 625 OFFCURVE",
"249 625 CURVE SMOOTH",
"275 625 LINE",
"275 718 LINE",
"89 718 LINE",
"90 717 LINE",
"90 578 LINE",
"51 578 LINE",
"51 483 LINE",
"90 483 LINE",
"90 0 LINE",
"193 0 LINE",
"193 266 LINE SMOOTH",
"193 296 OFFCURVE",
"200 313 OFFCURVE",
"230 313 CURVE SMOOTH",
"373 313 LINE SMOOTH",
"403 313 OFFCURVE",
"410 296 OFFCURVE",
"410 266 CURVE SMOOTH",
"410 150 LINE SMOOTH",
"410 113 OFFCURVE",
"390 93 OFFCURVE",
"353 93 CURVE SMOOTH",
"327 93 LINE",
"327 0 LINE",
"513 0 LINE",
"513 483 LINE",
"551 483 LINE",
"551 578 LINE"
);
},
{
closed = 1;
nodes = (
"410 425 OFFCURVE",
"403 408 OFFCURVE",
"373 408 CURVE SMOOTH",
"230 408 LINE SMOOTH",
"200 408 OFFCURVE",
"193 425 OFFCURVE",
"193 455 CURVE SMOOTH",
"193 483 LINE",
"410 483 LINE",
"410 455 LINE SMOOTH"
);
}
);
width = 602;
}
);
leftKerningGroup = H;
leftMetricsKey = H;
rightKerningGroup = H;
rightMetricsKey = H;
unicode = 0126;
},
{
color = 1;
glyphname = I;
lastChange = "2018-03-29 21:51:31 +0000";
layers = (
{
anchors = (
{
name = bottom;
position = "{168, 0}";
},
{
name = ogonek;
position = "{253, 0}";
},
{
name = top;
position = "{168, 718}";
},
{
name = topleft;
position = "{30, 718}";
}
);
layerId = "4068F5EB-61ED-493D-A7D9-97E487B445BB";
paths = (
{
closed = 1;
nodes = (
"219 611 OFFCURVE",
"231 623 OFFCURVE",
"251 623 CURVE SMOOTH",
"284 623 LINE",
"284 718 LINE",
"51 718 LINE",
"51 623 LINE",
"84 623 LINE SMOOTH",
"104 623 OFFCURVE",
"116 611 OFFCURVE",
"116 591 CURVE SMOOTH",
"116 127 LINE SMOOTH",
"116 107 OFFCURVE",
"104 95 OFFCURVE",
"84 95 CURVE SMOOTH",
"51 95 LINE",
"51 0 LINE",
"284 0 LINE",
"284 95 LINE",
"251 95 LINE SMOOTH",
"231 95 OFFCURVE",
"219 107 OFFCURVE",
"219 127 CURVE SMOOTH",
"219 591 LINE SMOOTH"
);
}
);
width = 335;
}
);
leftKerningGroup = H;
leftMetricsKey = E;
rightKerningGroup = H;
rightMetricsKey = E;
unicode = 0049;
},
{
color = 1;
glyphname = Idblgrave;
lastChange = "2018-03-29 21:51:31 +0000";
layers = (
{
anchors = (
{
name = bottom;
position = "{158, 0}";
},
{
name = ogonek;
position = "{243, 0}";
},
{
name = top;
position = "{158, 718}";
},
{
name = topleft;
position = "{20, 718}";
}
);
layerId = "4068F5EB-61ED-493D-A7D9-97E487B445BB";
paths = (
{
closed = 1;
nodes = (
"51 791 OFFCURVE",
"78 759 OFFCURVE",
"123 759 CURVE SMOOTH",
"149 759 LINE",
"129 923 LINE",
"34 923 LINE",
"45 836 LINE SMOOTH"
);
},
{
closed = 1;
nodes = (
"181 791 OFFCURVE",
"208 759 OFFCURVE",
"253 759 CURVE SMOOTH",
"279 759 LINE",
"259 923 LINE",
"164 923 LINE",
"175 836 LINE SMOOTH"
);
},
{
closed = 1;
nodes = (
"209 611 OFFCURVE",
"221 623 OFFCURVE",
"241 623 CURVE SMOOTH",
"264 623 LINE",
"264 718 LINE",
"51 718 LINE",
"51 623 LINE",
"74 623 LINE SMOOTH",
"94 623 OFFCURVE",
"106 611 OFFCURVE",
"106 591 CURVE SMOOTH",
"106 127 LINE SMOOTH",
"106 107 OFFCURVE",
"94 95 OFFCURVE",
"74 95 CURVE SMOOTH",
"51 95 LINE",
"51 0 LINE",
"264 0 LINE",
"264 95 LINE",
"241 95 LINE SMOOTH",
"221 95 OFFCURVE",
"209 107 OFFCURVE",
"209 127 CURVE SMOOTH",
"209 591 LINE SMOOTH"
);
}
);
width = 315;
}
);
leftKerningGroup = Idblgrave;
rightKerningGroup = Idblgrave;
unicode = 0208;
},
{
color = 1;
glyphname = Igrave;
lastChange = "2018-03-29 21:53:29 +0000";
layers = (
{
anchors = (
{
name = bottom;
position = "{158, 0}";
},
{
name = ogonek;
position = "{243, 0}";
},
{
name = top;
position = "{158, 718}";
},
{
name = topleft;
position = "{20, 718}";
}
);
layerId = "4068F5EB-61ED-493D-A7D9-97E487B445BB";
paths = (
{
closed = 1;
nodes = (
"113 798 OFFCURVE",
"146 766 OFFCURVE",
"191 766 CURVE SMOOTH",
"203 766 LINE",
"203 923 LINE",
"113 923 LINE",
"113 843 LINE SMOOTH"
);
},
{
closed = 1;
nodes = (
"209 611 OFFCURVE",
"221 623 OFFCURVE",
"241 623 CURVE SMOOTH",
"264 623 LINE",
"264 718 LINE",
"51 718 LINE",
"51 623 LINE",
"74 623 LINE SMOOTH",
"94 623 OFFCURVE",
"106 611 OFFCURVE",
"106 591 CURVE SMOOTH",
"106 127 LINE SMOOTH",
"106 107 OFFCURVE",
"94 95 OFFCURVE",
"74 95 CURVE SMOOTH",
"51 95 LINE",
"51 0 LINE",
"264 0 LINE",
"264 95 LINE",
"241 95 LINE SMOOTH",
"221 95 OFFCURVE",
"209 107 OFFCURVE",
"209 127 CURVE SMOOTH",
"209 591 LINE SMOOTH"
);
}
);
width = 315;
}
);
leftKerningGroup = H;
leftMetricsKey = E;
rightKerningGroup = H;
rightMetricsKey = E;
unicode = 00CC;
},
{
color = 1;
glyphname = J;
lastChange = "2018-03-29 21:51:31 +0000";
layers = (
{
anchors = (
{
name = bottom;
position = "{233, 0}";
},
{
name = top;
position = "{243, 718}";
}
);
layerId = "4068F5EB-61ED-493D-A7D9-97E487B445BB";
paths = (
{
closed = 1;
nodes = (
"51 718 LINE",
"51 623 LINE",
"299 623 LINE SMOOTH",
"319 623 OFFCURVE",
"331 611 OFFCURVE",
"331 591 CURVE SMOOTH",
"331 127 LINE SMOOTH",
"331 107 OFFCURVE",
"319 95 OFFCURVE",
"299 95 CURVE SMOOTH",
"186 95 LINE SMOOTH",
"166 95 OFFCURVE",
"154 107 OFFCURVE",
"154 127 CURVE SMOOTH",
"154 265 LINE",
"51 265 LINE",
"51 0 LINE",
"434 0 LINE",
"434 718 LINE"
);
}
);
width = 485;
}
);
leftKerningGroup = J;
leftMetricsKey = E;
rightKerningGroup = J;
rightMetricsKey = E;
unicode = 004A;
},
{
color = 1;
glyphname = K;
lastChange = "2018-03-29 21:51:31 +0000";
layers = (
{
associatedMasterId = "4068F5EB-61ED-493D-A7D9-97E487B445BB";
layerId = "0BD49C9D-5E91-4F5B-B984-2F6687374BBD";
name = "Apr 2 17, 16:40";
paths = (
{
closed = 1;
nodes = (
"454 718 LINE",
"338 718 LINE",
"248 416 LINE",
"144 416 LINE",
"144 718 LINE",
"41 718 LINE",
"41 0 LINE",
"144 0 LINE",
"144 301 LINE",
"238 301 LINE",
"342 0 LINE",
"470 0 LINE",
"343 358 LINE"
);
},
{
closed = 1;
nodes = (
"522 622 LINE",
"522 717 LINE",
"366 717 LINE",
"366 622 LINE"
);
},
{
closed = 1;
nodes = (
"520 -1 LINE",
"520 94 LINE",
"386 94 LINE",
"385 -1 LINE"
);
}
);
width = 600;
},
{
associatedMasterId = "4068F5EB-61ED-493D-A7D9-97E487B445BB";
layerId = "7C3AFD03-EE0C-4281-B6C6-1A26A928A3E4";
name = "Apr 2 17, 16:49";
paths = (
{
closed = 1;
nodes = (
"616 647 LINE",
"511 718 LINE",
"369 416 LINE",
"315 416 LINE",
"315 718 LINE",
"212 718 LINE",
"212 0 LINE",
"315 0 LINE",
"315 301 LINE",
"359 301 LINE",
"451 95 LINE",
"559 127 LINE",
"432 358 LINE"
);
},
{
closed = 1;
nodes = (
"252 95 LINE",
"176 95 LINE SMOOTH",
"156 95 OFFCURVE",
"144 107 OFFCURVE",
"144 127 CURVE SMOOTH",
"144 205 LINE",
"41 205 LINE",
"41 0 LINE",
"252 0 LINE"
);
},
{
closed = 1;
nodes = (
"252 718 LINE",
"41 718 LINE",
"41 513 LINE",
"144 513 LINE",
"144 591 LINE SMOOTH",
"144 611 OFFCURVE",
"156 623 OFFCURVE",
"176 623 CURVE SMOOTH",
"252 623 LINE"
);
},
{
closed = 1;
nodes = (
"662 0 LINE",
"662 205 LINE",
"559 205 LINE",
"559 127 LINE",
"451 95 LINE",
"492 0 LINE"
);
},
{
closed = 1;
nodes = (
"527 623 LINE SMOOTH",
"547 623 OFFCURVE",
"559 611 OFFCURVE",
"559 591 CURVE SMOOTH",
"559 513 LINE",
"662 513 LINE",
"662 718 LINE",
"511 718 LINE",
"451 623 LINE"
);
}
);
width = 731;
},
{
anchors = (
{
name = bottom;
position = "{263, 0}";
},
{
name = top;
position = "{263, 718}";
}
);
layerId = "4068F5EB-61ED-493D-A7D9-97E487B445BB";
paths = (
{
closed = 1;
nodes = (
"473 457 LINE",
"473 718 LINE",
"360 718 LINE",
"360 498 LINE",
"237 408 LINE",
"191 408 LINE SMOOTH",
"161 408 OFFCURVE",
"154 425 OFFCURVE",
"154 455 CURVE SMOOTH",
"154 568 LINE SMOOTH",
"154 605 OFFCURVE",
"174 625 OFFCURVE",
"211 625 CURVE SMOOTH",
"237 625 LINE",
"237 718 LINE",
"51 718 LINE",
"51 0 LINE",
"237 0 LINE",
"237 93 LINE",
"211 93 LINE SMOOTH",
"174 93 OFFCURVE",
"154 113 OFFCURVE",
"154 150 CURVE SMOOTH",
"154 266 LINE SMOOTH",
"154 296 OFFCURVE",
"161 313 OFFCURVE",
"191 313 CURVE SMOOTH",
"234 313 LINE",
"361 231 LINE",
"361 0 LINE",
"474 0 LINE",
"474 277 LINE",
"340 362 LINE"
);
}
);
width = 525;
},
{
associatedMasterId = "4068F5EB-61ED-493D-A7D9-97E487B445BB";
layerId = "AD3954CA-35B5-46E9-AC87-A7B534029A59";
name = "Apr 2 17, 16:40";
paths = (
{
closed = 1;
nodes = (
"454 718 LINE",
"338 718 LINE",
"248 416 LINE",
"144 416 LINE",
"144 718 LINE",
"41 718 LINE",
"41 0 LINE",
"144 0 LINE",
"144 301 LINE",
"238 301 LINE",
"342 0 LINE",
"470 0 LINE",
"343 358 LINE"
);
},
{
closed = 1;
nodes = (
"522 622 LINE",
"522 717 LINE",
"366 717 LINE",
"366 622 LINE"
);
},
{
closed = 1;
nodes = (
"520 -1 LINE",
"520 94 LINE",
"386 94 LINE",
"385 -1 LINE"
);
}
);
width = 600;
},
{
associatedMasterId = "4068F5EB-61ED-493D-A7D9-97E487B445BB";
layerId = "4A2FCD3A-1429-4C7D-B203-3F39AE10EC00";
name = "Apr 2 17, 16:49";
paths = (
{
closed = 1;
nodes = (
"616 647 LINE",
"511 718 LINE",
"369 416 LINE",
"315 416 LINE",
"315 718 LINE",
"212 718 LINE",
"212 0 LINE",
"315 0 LINE",
"315 301 LINE",
"359 301 LINE",
"451 95 LINE",
"559 127 LINE",
"432 358 LINE"
);
},
{
closed = 1;
nodes = (
"252 95 LINE",
"176 95 LINE SMOOTH",
"156 95 OFFCURVE",
"144 107 OFFCURVE",
"144 127 CURVE SMOOTH",
"144 205 LINE",
"41 205 LINE",
"41 0 LINE",
"252 0 LINE"
);
},
{
closed = 1;
nodes = (
"252 718 LINE",
"41 718 LINE",
"41 513 LINE",
"144 513 LINE",
"144 591 LINE SMOOTH",
"144 611 OFFCURVE",
"156 623 OFFCURVE",
"176 623 CURVE SMOOTH",
"252 623 LINE"
);
},
{
closed = 1;
nodes = (
"662 0 LINE",
"662 205 LINE",
"559 205 LINE",
"559 127 LINE",
"451 95 LINE",
"492 0 LINE"
);
},
{
closed = 1;
nodes = (
"527 623 LINE SMOOTH",
"547 623 OFFCURVE",
"559 611 OFFCURVE",
"559 591 CURVE SMOOTH",
"559 513 LINE",
"662 513 LINE",
"662 718 LINE",
"511 718 LINE",
"451 623 LINE"
);
}
);
width = 731;
}
);
leftKerningGroup = H;
leftMetricsKey = E;
rightKerningGroup = K;
rightMetricsKey = E;
unicode = 004B;
},
{
color = 1;
glyphname = L;
lastChange = "2018-03-29 21:51:31 +0000";
layers = (
{
anchors = (
{
name = bottom;
position = "{253, 0}";
},
{
name = center;
position = "{253, 359}";
},
{
name = top;
position = "{125, 718}";
},
{
name = topright;
position = "{485, 718}";
}
);
layerId = "4068F5EB-61ED-493D-A7D9-97E487B445BB";
paths = (
{
closed = 1;
nodes = (
"351 127 LINE SMOOTH",
"351 107 OFFCURVE",
"339 95 OFFCURVE",
"319 95 CURVE SMOOTH",
"186 95 LINE SMOOTH",
"166 95 OFFCURVE",
"154 107 OFFCURVE",
"154 127 CURVE SMOOTH",
"154 591 LINE SMOOTH",
"154 611 OFFCURVE",
"166 623 OFFCURVE",
"186 623 CURVE SMOOTH",
"239 623 LINE",
"239 718 LINE",
"51 718 LINE",
"51 0 LINE",
"454 0 LINE",
"454 405 LINE",
"351 405 LINE"
);
}
);
width = 505;
}
);
leftKerningGroup = H;
leftMetricsKey = E;
rightKerningGroup = L;
rightMetricsKey = E;
unicode = 004C;
},
{
color = 1;
glyphname = Lslash;
lastChange = "2018-03-29 21:51:31 +0000";
layers = (
{
anchors = (
{
name = bottom;
position = "{253, 0}";
},
{
name = center;
position = "{253, 250}";
},
{
name = top;
position = "{253, 500}";
},
{
name = topright;
position = "{485, 500}";
}
);
layerId = "4068F5EB-61ED-493D-A7D9-97E487B445BB";
paths = (
{
closed = 1;
nodes = (
"351 127 LINE SMOOTH",
"351 107 OFFCURVE",
"339 95 OFFCURVE",
"319 95 CURVE SMOOTH",
"186 95 LINE SMOOTH",
"166 95 OFFCURVE",
"154 107 OFFCURVE",
"154 127 CURVE SMOOTH",
"154 259 LINE",
"420 464 LINE",
"364 545 LINE",
"154 383 LINE",
"154 591 LINE SMOOTH",
"154 611 OFFCURVE",
"166 623 OFFCURVE",
"186 623 CURVE SMOOTH",
"239 623 LINE",
"239 718 LINE",
"51 718 LINE",
"51 0 LINE",
"454 0 LINE",
"454 225 LINE",
"351 225 LINE"
);
}
);
width = 505;
}
);
leftKerningGroup = H;
leftMetricsKey = E;
rightKerningGroup = L;
rightMetricsKey = E;
unicode = 0141;
},
{
color = 1;
glyphname = M;
lastChange = "2018-03-29 21:51:31 +0000";
layers = (
{
anchors = (
{
name = bottom;
position = "{336, 0}";
},
{
name = top;
position = "{336, 718}";
}
);
layerId = "4068F5EB-61ED-493D-A7D9-97E487B445BB";
paths = (
{
closed = 1;
nodes = (
"336 586 LINE",
"233 718 LINE",
"51 718 LINE",
"51 0 LINE",
"211 0 LINE",
"211 95 LINE",
"188 95 LINE SMOOTH",
"168 95 OFFCURVE",
"156 107 OFFCURVE",
"156 127 CURVE SMOOTH",
"156 605 LINE",
"195 605 LINE",
"281 494 LINE",
"286 488 OFFCURVE",
"288 481 OFFCURVE",
"288 473 CURVE SMOOTH",
"288 210 LINE",
"383 210 LINE",
"383 473 LINE SMOOTH",
"383 481 OFFCURVE",
"385 488 OFFCURVE",
"390 494 CURVE",
"476 605 LINE",
"515 605 LINE",
"515 127 LINE SMOOTH",
"515 107 OFFCURVE",
"503 95 OFFCURVE",
"483 95 CURVE SMOOTH",
"460 95 LINE",
"460 0 LINE",
"620 0 LINE",
"620 718 LINE",
"438 718 LINE"
);
}
);
width = 671;
}
);
leftKerningGroup = M;
leftMetricsKey = E;
rightKerningGroup = M;
rightMetricsKey = E;
unicode = 004D;
},
{
color = 1;
glyphname = N;
lastChange = "2018-03-29 21:51:31 +0000";
layers = (
{
anchors = (
{
name = bottom;
position = "{277, 0}";
},
{
name = top;
position = "{277, 718}";
}
);
layerId = "4068F5EB-61ED-493D-A7D9-97E487B445BB";
paths = (
{
closed = 1;
nodes = (
"316 625 LINE",
"338 625 LINE SMOOTH",
"375 625 OFFCURVE",
"395 605 OFFCURVE",
"395 568 CURVE SMOOTH",
"395 224 LINE",
"154 718 LINE",
"51 718 LINE",
"51 0 LINE",
"233 0 LINE",
"233 93 LINE",
"211 93 LINE SMOOTH",
"174 93 OFFCURVE",
"154 113 OFFCURVE",
"154 150 CURVE SMOOTH",
"154 492 LINE",
"395 0 LINE",
"498 0 LINE",
"498 718 LINE",
"316 718 LINE"
);
}
);
width = 549;
},
{
associatedMasterId = "4068F5EB-61ED-493D-A7D9-97E487B445BB";
layerId = "7953688F-9673-4E2B-A5FB-A06201B13CF1";
name = "Apr 3 17, 18:24";
paths = (
{
closed = 1;
nodes = (
"154 295 OFFCURVE",
"154 424 OFFCURVE",
"154 454 CURVE SMOOTH",
"154 718 LINE",
"51 718 LINE",
"51 0 LINE",
"303 0 LINE",
"303 93 LINE",
"211 93 LINE SMOOTH",
"174 93 OFFCURVE",
"154 113 OFFCURVE",
"154 150 CURVE SMOOTH",
"154 265 LINE SMOOTH"
);
},
{
closed = 1;
nodes = (
"480 424 OFFCURVE",
"480 295 OFFCURVE",
"480 265 CURVE SMOOTH",
"480 0 LINE",
"583 0 LINE",
"583 718 LINE",
"331 718 LINE",
"331 625 LINE",
"423 625 LINE SMOOTH",
"460 625 OFFCURVE",
"480 605 OFFCURVE",
"480 568 CURVE SMOOTH",
"480 454 LINE SMOOTH"
);
},
{
closed = 1;
nodes = (
"477 0 LINE",
"581 40 LINE",
"155 718 LINE",
"57 668 LINE"
);
}
);
width = 634;
},
{
associatedMasterId = "4068F5EB-61ED-493D-A7D9-97E487B445BB";
layerId = "DBC8857C-2657-4844-9CE7-51B7C592B32A";
name = "Apr 18 17, 22:30";
paths = (
{
closed = 1;
nodes = (
"331 625 LINE",
"423 625 LINE SMOOTH",
"460 625 OFFCURVE",
"480 605 OFFCURVE",
"480 568 CURVE SMOOTH",
"480 263 LINE SMOOTH",
"480 237 OFFCURVE",
"461 231 OFFCURVE",
"447 253 CURVE SMOOTH",
"155 718 LINE",
"154 717 LINE",
"154 718 LINE",
"51 718 LINE",
"51 0 LINE",
"303 0 LINE",
"303 93 LINE",
"211 93 LINE SMOOTH",
"174 93 OFFCURVE",
"154 113 OFFCURVE",
"154 150 CURVE SMOOTH",
"154 452 LINE SMOOTH",
"154 478 OFFCURVE",
"173 484 OFFCURVE",
"187 462 CURVE SMOOTH",
"477 0 LINE",
"480 1 LINE",
"480 0 LINE",
"583 0 LINE",
"583 718 LINE",
"331 718 LINE"
);
}
);
width = 634;
},
{
associatedMasterId = "4068F5EB-61ED-493D-A7D9-97E487B445BB";
layerId = "8DF33536-5DFC-4D6D-8AA1-30A30430B4F0";
name = "Apr 19 17, 00:31";
paths = (
{
closed = 1;
nodes = (
"272 625 LINE",
"294 625 LINE SMOOTH",
"331 625 OFFCURVE",
"351 605 OFFCURVE",
"351 568 CURVE SMOOTH",
"351 0 LINE",
"454 0 LINE",
"454 718 LINE",
"272 718 LINE"
);
},
{
closed = 1;
nodes = (
"233 93 LINE",
"211 93 LINE SMOOTH",
"174 93 OFFCURVE",
"154 113 OFFCURVE",
"154 150 CURVE SMOOTH",
"154 718 LINE",
"51 718 LINE",
"51 0 LINE",
"233 0 LINE"
);
},
{
closed = 1;
nodes = (
"88 501 LINE",
"369 134 LINE",
"431 217 LINE",
"150 584 LINE"
);
}
);
width = 504;
},
{
associatedMasterId = "4068F5EB-61ED-493D-A7D9-97E487B445BB";
layerId = "B1583174-5E74-429D-B018-3C9B7B1D2286";
name = "Apr 3 17, 18:24";
paths = (
{
closed = 1;
nodes = (
"154 295 OFFCURVE",
"154 424 OFFCURVE",
"154 454 CURVE SMOOTH",
"154 718 LINE",
"51 718 LINE",
"51 0 LINE",
"303 0 LINE",
"303 93 LINE",
"211 93 LINE SMOOTH",
"174 93 OFFCURVE",
"154 113 OFFCURVE",
"154 150 CURVE SMOOTH",
"154 265 LINE SMOOTH"
);
},
{
closed = 1;
nodes = (
"480 424 OFFCURVE",
"480 295 OFFCURVE",
"480 265 CURVE SMOOTH",
"480 0 LINE",
"583 0 LINE",
"583 718 LINE",
"331 718 LINE",
"331 625 LINE",
"423 625 LINE SMOOTH",
"460 625 OFFCURVE",
"480 605 OFFCURVE",
"480 568 CURVE SMOOTH",
"480 454 LINE SMOOTH"
);
},
{
closed = 1;
nodes = (
"477 0 LINE",
"581 40 LINE",
"155 718 LINE",
"57 668 LINE"
);
}
);
width = 634;
},
{
associatedMasterId = "4068F5EB-61ED-493D-A7D9-97E487B445BB";
layerId = "7DC944A2-B8D4-4CDB-AF55-6F8E5AC5841A";
name = "Apr 18 17, 22:30";
paths = (
{
closed = 1;
nodes = (
"331 625 LINE",
"423 625 LINE SMOOTH",
"460 625 OFFCURVE",
"480 605 OFFCURVE",
"480 568 CURVE SMOOTH",
"480 263 LINE SMOOTH",
"480 237 OFFCURVE",
"461 231 OFFCURVE",
"447 253 CURVE SMOOTH",
"155 718 LINE",
"154 717 LINE",
"154 718 LINE",
"51 718 LINE",
"51 0 LINE",
"303 0 LINE",
"303 93 LINE",
"211 93 LINE SMOOTH",
"174 93 OFFCURVE",
"154 113 OFFCURVE",
"154 150 CURVE SMOOTH",
"154 452 LINE SMOOTH",
"154 478 OFFCURVE",
"173 484 OFFCURVE",
"187 462 CURVE SMOOTH",
"477 0 LINE",
"480 1 LINE",
"480 0 LINE",
"583 0 LINE",
"583 718 LINE",
"331 718 LINE"
);
}
);
width = 634;
},
{
associatedMasterId = "4068F5EB-61ED-493D-A7D9-97E487B445BB";
layerId = "B5332A46-8780-4274-A7B3-5E593BDAB9DD";
name = "Apr 19 17, 00:31";
paths = (
{
closed = 1;
nodes = (
"272 625 LINE",
"294 625 LINE SMOOTH",
"331 625 OFFCURVE",
"351 605 OFFCURVE",
"351 568 CURVE SMOOTH",
"351 0 LINE",
"454 0 LINE",
"454 718 LINE",
"272 718 LINE"
);
},
{
closed = 1;
nodes = (
"233 93 LINE",
"211 93 LINE SMOOTH",
"174 93 OFFCURVE",
"154 113 OFFCURVE",
"154 150 CURVE SMOOTH",
"154 718 LINE",
"51 718 LINE",
"51 0 LINE",
"233 0 LINE"
);
},
{
closed = 1;
nodes = (
"88 501 LINE",
"369 134 LINE",
"431 217 LINE",
"150 584 LINE"
);
}
);
width = 504;
}
);
leftKerningGroup = H;
leftMetricsKey = E;
rightKerningGroup = H;
rightMetricsKey = E;
unicode = 004E;
},
{
color = 1;
glyphname = Eng;
lastChange = "2018-03-29 21:51:31 +0000";
layers = (
{
anchors = (
{
name = bottom;
position = "{277, 0}";
},
{
name = top;
position = "{277, 718}";
}
);
layerId = "4068F5EB-61ED-493D-A7D9-97E487B445BB";
paths = (
{
closed = 1;
nodes = (
"316 625 LINE",
"338 625 LINE SMOOTH",
"375 625 OFFCURVE",
"395 605 OFFCURVE",
"395 568 CURVE SMOOTH",
"395 224 LINE",
"154 718 LINE",
"51 718 LINE",
"51 0 LINE",
"233 0 LINE",
"233 93 LINE",
"211 93 LINE SMOOTH",
"174 93 OFFCURVE",
"154 113 OFFCURVE",
"154 150 CURVE SMOOTH",
"154 492 LINE",
"393 3 LINE",
"388 -23 OFFCURVE",
"369 -37 OFFCURVE",
"338 -37 CURVE SMOOTH",
"316 -37 LINE",
"316 -130 LINE",
"498 -130 LINE",
"498 718 LINE",
"316 718 LINE"
);
}
);
width = 549;
}
);
leftKerningGroup = Eng;
rightKerningGroup = Eng;
unicode = 014A;
},
{
color = 1;
glyphname = O;
lastChange = "2018-03-29 21:51:31 +0000";
layers = (
{
anchors = (
{
name = bottom;
position = "{253, 0}";
},
{
name = center;
position = "{253, 359}";
},
{
name = ogonek;
position = "{337, 0}";
},
{
name = top;
position = "{253, 718}";
},
{
name = topleft;
position = "{20, 718}";
},
{
name = topright;
position = "{485, 718}";
}
);
layerId = "4068F5EB-61ED-493D-A7D9-97E487B445BB";
paths = (
{
closed = 1;
nodes = (
"51 718 LINE",
"51 0 LINE",
"454 0 LINE",
"454 718 LINE"
);
},
{
closed = 1;
nodes = (
"351 107 OFFCURVE",
"339 95 OFFCURVE",
"319 95 CURVE SMOOTH",
"186 95 LINE SMOOTH",
"166 95 OFFCURVE",
"154 107 OFFCURVE",
"154 127 CURVE SMOOTH",
"154 591 LINE SMOOTH",
"154 611 OFFCURVE",
"166 623 OFFCURVE",
"186 623 CURVE SMOOTH",
"319 623 LINE SMOOTH",
"339 623 OFFCURVE",
"351 611 OFFCURVE",
"351 591 CURVE SMOOTH",
"351 127 LINE SMOOTH"
);
}
);
width = 505;
}
);
leftKerningGroup = O;
leftMetricsKey = E;
rightKerningGroup = O;
rightMetricsKey = E;
unicode = 004F;
},
{
color = 1;
glyphname = Odblgrave;
lastChange = "2018-03-29 21:51:31 +0000";
layers = (
{
anchors = (
{
name = bottom;
position = "{253, 0}";
},
{
name = center;
position = "{253, 359}";
},
{
name = ogonek;
position = "{337, 0}";
},
{
name = top;
position = "{253, 718}";
},
{
name = topleft;
position = "{20, 718}";
},
{
name = topright;
position = "{485, 718}";
}
);
layerId = "4068F5EB-61ED-493D-A7D9-97E487B445BB";
paths = (
{
closed = 1;
nodes = (
"146 791 OFFCURVE",
"173 759 OFFCURVE",
"218 759 CURVE SMOOTH",
"244 759 LINE",
"224 923 LINE",
"129 923 LINE",
"140 836 LINE SMOOTH"
);
},
{
closed = 1;
nodes = (
"276 791 OFFCURVE",
"303 759 OFFCURVE",
"348 759 CURVE SMOOTH",
"374 759 LINE",
"354 923 LINE",
"259 923 LINE",
"270 836 LINE SMOOTH"
);
},
{
closed = 1;
nodes = (
"51 718 LINE",
"51 0 LINE",
"454 0 LINE",
"454 718 LINE"
);
},
{
closed = 1;
nodes = (
"351 107 OFFCURVE",
"339 95 OFFCURVE",
"319 95 CURVE SMOOTH",
"186 95 LINE SMOOTH",
"166 95 OFFCURVE",
"154 107 OFFCURVE",
"154 127 CURVE SMOOTH",
"154 591 LINE SMOOTH",
"154 611 OFFCURVE",
"166 623 OFFCURVE",
"186 623 CURVE SMOOTH",
"319 623 LINE SMOOTH",
"339 623 OFFCURVE",
"351 611 OFFCURVE",
"351 591 CURVE SMOOTH",
"351 127 LINE SMOOTH"
);
}
);
width = 505;
}
);
leftKerningGroup = Odblgrave;
rightKerningGroup = Odblgrave;
unicode = 020C;
},
{
color = 1;
glyphname = Ograve;
lastChange = "2018-03-29 21:51:31 +0000";
layers = (
{
anchors = (
{
name = bottom;
position = "{253, 0}";
},
{
name = center;
position = "{253, 359}";
},
{
name = ogonek;
position = "{337, 0}";
},
{
name = top;
position = "{253, 718}";
},
{
name = topleft;
position = "{20, 718}";
},
{
name = topright;
position = "{485, 718}";
}
);
layerId = "4068F5EB-61ED-493D-A7D9-97E487B445BB";
paths = (
{
closed = 1;
nodes = (
"208 798 OFFCURVE",
"241 766 OFFCURVE",
"286 766 CURVE SMOOTH",
"298 766 LINE",
"298 923 LINE",
"208 923 LINE",
"208 843 LINE SMOOTH"
);
},
{
closed = 1;
nodes = (
"51 718 LINE",
"51 0 LINE",
"454 0 LINE",
"454 718 LINE"
);
},
{
closed = 1;
nodes = (
"351 107 OFFCURVE",
"339 95 OFFCURVE",
"319 95 CURVE SMOOTH",
"186 95 LINE SMOOTH",
"166 95 OFFCURVE",
"154 107 OFFCURVE",
"154 127 CURVE SMOOTH",
"154 591 LINE SMOOTH",
"154 611 OFFCURVE",
"166 623 OFFCURVE",
"186 623 CURVE SMOOTH",
"319 623 LINE SMOOTH",
"339 623 OFFCURVE",
"351 611 OFFCURVE",
"351 591 CURVE SMOOTH",
"351 127 LINE SMOOTH"
);
}
);
width = 505;
}
);
leftKerningGroup = O;
rightKerningGroup = O;
unicode = 00D2;
},
{
color = 1;
glyphname = Oslash;
lastChange = "2018-03-29 21:51:31 +0000";
layers = (
{
anchors = (
{
name = bottom;
position = "{291, 0}";
},
{
name = center;
position = "{291, 359}";
},
{
name = ogonek;
position = "{375, 0}";
},
{
name = top;
position = "{291, 718}";
},
{
name = topleft;
position = "{58, 718}";
},
{
name = topright;
position = "{523, 718}";
}
);
layerId = "4068F5EB-61ED-493D-A7D9-97E487B445BB";
paths = (
{
closed = 1;
nodes = (
"89 718 LINE",
"89 72 LINE",
"51 0 LINE",
"492 0 LINE",
"492 638 LINE",
"534 718 LINE"
);
},
{
closed = 1;
nodes = (
"192 611 OFFCURVE",
"204 623 OFFCURVE",
"224 623 CURVE SMOOTH",
"357 623 LINE SMOOTH",
"364 623 OFFCURVE",
"371 621 OFFCURVE",
"376 618 CURVE",
"192 269 LINE",
"192 591 LINE SMOOTH"
);
},
{
closed = 1;
nodes = (
"389 107 OFFCURVE",
"377 95 OFFCURVE",
"357 95 CURVE SMOOTH",
"224 95 LINE SMOOTH",
"217 95 OFFCURVE",
"212 96 OFFCURVE",
"207 99 CURVE",
"389 443 LINE",
"389 127 LINE SMOOTH"
);
}
);
width = 585;
}
);
leftKerningGroup = O;
leftMetricsKey = H;
rightKerningGroup = O;
rightMetricsKey = H;
unicode = 00D8;
},
{
color = 1;
glyphname = OE;
lastChange = "2018-03-29 21:51:31 +0000";
layers = (
{
anchors = (
{
name = center;
position = "{223, 359}";
}
);
layerId = "4068F5EB-61ED-493D-A7D9-97E487B445BB";
paths = (
{
closed = 1;
nodes = (
"684 718 LINE",
"51 718 LINE",
"51 0 LINE",
"684 0 LINE",
"684 205 LINE",
"581 205 LINE",
"581 127 LINE SMOOTH",
"581 107 OFFCURVE",
"569 95 OFFCURVE",
"549 95 CURVE SMOOTH",
"456 95 LINE SMOOTH",
"436 95 OFFCURVE",
"424 107 OFFCURVE",
"424 127 CURVE SMOOTH",
"424 275 LINE SMOOTH",
"424 298 OFFCURVE",
"437 311 OFFCURVE",
"460 311 CURVE SMOOTH",
"576 311 LINE",
"576 406 LINE",
"460 406 LINE SMOOTH",
"437 406 OFFCURVE",
"424 419 OFFCURVE",
"424 442 CURVE SMOOTH",
"424 591 LINE SMOOTH",
"424 611 OFFCURVE",
"436 623 OFFCURVE",
"456 623 CURVE SMOOTH",
"549 623 LINE SMOOTH",
"569 623 OFFCURVE",
"581 615 OFFCURVE",
"581 591 CURVE SMOOTH",
"581 513 LINE",
"684 513 LINE"
);
},
{
closed = 1;
nodes = (
"321 107 OFFCURVE",
"309 95 OFFCURVE",
"289 95 CURVE SMOOTH",
"186 95 LINE SMOOTH",
"166 95 OFFCURVE",
"154 107 OFFCURVE",
"154 127 CURVE SMOOTH",
"154 591 LINE SMOOTH",
"154 611 OFFCURVE",
"166 623 OFFCURVE",
"186 623 CURVE SMOOTH",
"289 623 LINE SMOOTH",
"309 623 OFFCURVE",
"321 611 OFFCURVE",
"321 591 CURVE SMOOTH",
"321 127 LINE SMOOTH"
);
}
);
width = 735;
}
);
leftKerningGroup = O;
leftMetricsKey = O;
rightKerningGroup = E;
rightMetricsKey = O;
unicode = 0152;
},
{
color = 1;
glyphname = P;
lastChange = "2018-03-29 21:51:31 +0000";
layers = (
{
anchors = (
{
name = bottom;
position = "{253, 0}";
},
{
name = top;
position = "{253, 718}";
}
);
layerId = "4068F5EB-61ED-493D-A7D9-97E487B445BB";
paths = (
{
closed = 1;
nodes = (
"51 718 LINE",
"51 0 LINE",
"154 0 LINE",
"154 174 LINE SMOOTH",
"154 204 OFFCURVE",
"161 221 OFFCURVE",
"191 221 CURVE SMOOTH",
"454 221 LINE",
"454 718 LINE"
);
},
{
closed = 1;
nodes = (
"161 316 OFFCURVE",
"154 333 OFFCURVE",
"154 363 CURVE SMOOTH",
"154 568 LINE SMOOTH",
"154 605 OFFCURVE",
"174 625 OFFCURVE",
"211 625 CURVE SMOOTH",
"351 625 LINE",
"351 316 LINE",
"191 316 LINE SMOOTH"
);
}
);
width = 505;
},
{
associatedMasterId = "4068F5EB-61ED-493D-A7D9-97E487B445BB";
layerId = "332391EF-ECB0-4D3D-BB2B-71CF9401941B";
name = "Apr 3 17, 12:57";
paths = (
{
closed = 1;
nodes = (
"485 390 LINE",
"485 718 LINE",
"372 718 LINE",
"372 433 LINE",
"252 316 LINE",
"191 316 LINE SMOOTH",
"161 316 OFFCURVE",
"154 333 OFFCURVE",
"154 363 CURVE SMOOTH",
"154 568 LINE SMOOTH",
"154 605 OFFCURVE",
"174 625 OFFCURVE",
"211 625 CURVE SMOOTH",
"413 625 LINE",
"413 718 LINE",
"51 718 LINE",
"51 0 LINE",
"154 0 LINE",
"154 174 LINE SMOOTH",
"154 204 OFFCURVE",
"161 221 OFFCURVE",
"191 221 CURVE SMOOTH",
"301 221 LINE"
);
}
);
width = 536;
},
{
associatedMasterId = "4068F5EB-61ED-493D-A7D9-97E487B445BB";
layerId = "3B705D42-C82E-4919-B14F-F4A50171A720";
name = "Apr 3 17, 12:57";
paths = (
{
closed = 1;
nodes = (
"485 390 LINE",
"485 718 LINE",
"372 718 LINE",
"372 433 LINE",
"252 316 LINE",
"191 316 LINE SMOOTH",
"161 316 OFFCURVE",
"154 333 OFFCURVE",
"154 363 CURVE SMOOTH",
"154 568 LINE SMOOTH",
"154 605 OFFCURVE",
"174 625 OFFCURVE",
"211 625 CURVE SMOOTH",
"413 625 LINE",
"413 718 LINE",
"51 718 LINE",
"51 0 LINE",
"154 0 LINE",
"154 174 LINE SMOOTH",
"154 204 OFFCURVE",
"161 221 OFFCURVE",
"191 221 CURVE SMOOTH",
"301 221 LINE"
);
}
);
width = 536;
}
);
leftKerningGroup = H;
leftMetricsKey = E;
rightKerningGroup = P;
rightMetricsKey = E;
unicode = 0050;
},
{
color = 1;
glyphname = Thorn;
lastChange = "2018-03-29 21:51:31 +0000";
layers = (
{
anchors = (
{
name = bottom;
position = "{158, 0}";
},
{
name = ogonek;
position = "{243, 0}";
},
{
name = top;
position = "{158, 718}";
},
{
name = topleft;
position = "{20, 718}";
}
);
layerId = "4068F5EB-61ED-493D-A7D9-97E487B445BB";
paths = (
{
closed = 1;
nodes = (
"509 189 LINE",
"509 556 LINE",
"209 556 LINE",
"209 591 LINE SMOOTH",
"209 611 OFFCURVE",
"221 623 OFFCURVE",
"241 623 CURVE SMOOTH",
"264 623 LINE",
"264 718 LINE",
"51 718 LINE",
"51 623 LINE",
"74 623 LINE SMOOTH",
"94 623 OFFCURVE",
"106 611 OFFCURVE",
"106 591 CURVE SMOOTH",
"106 127 LINE SMOOTH",
"106 107 OFFCURVE",
"94 95 OFFCURVE",
"74 95 CURVE SMOOTH",
"51 95 LINE",
"51 0 LINE",
"264 0 LINE",
"264 95 LINE",
"241 95 LINE SMOOTH",
"221 95 OFFCURVE",
"209 107 OFFCURVE",
"209 127 CURVE SMOOTH",
"209 142 LINE SMOOTH",
"209 172 OFFCURVE",
"216 189 OFFCURVE",
"246 189 CURVE SMOOTH"
);
},
{
closed = 1;
nodes = (
"406 463 LINE",
"406 284 LINE",
"246 284 LINE SMOOTH",
"216 284 OFFCURVE",
"209 301 OFFCURVE",
"209 331 CURVE SMOOTH",
"209 406 LINE SMOOTH",
"209 443 OFFCURVE",
"229 463 OFFCURVE",
"266 463 CURVE SMOOTH"
);
}
);
width = 560;
}
);
leftKerningGroup = H;
rightKerningGroup = Thorn;
rightMetricsKey = P;
unicode = 00DE;
},
{
color = 1;
glyphname = Q;
lastChange = "2018-03-29 21:51:31 +0000";
layers = (
{
anchors = (
{
name = bottom;
position = "{253, 0}";
},
{
name = center;
position = "{253, 359}";
},
{
name = ogonek;
position = "{337, 0}";
},
{
name = top;
position = "{253, 718}";
},
{
name = topleft;
position = "{20, 718}";
},
{
name = topright;
position = "{485, 718}";
}
);
layerId = "4068F5EB-61ED-493D-A7D9-97E487B445BB";
paths = (
{
closed = 1;
nodes = (
"51 718 LINE",
"51 0 LINE",
"201 0 LINE",
"201 -110 LINE",
"304 -110 LINE",
"304 0 LINE",
"454 0 LINE",
"454 718 LINE"
);
},
{
closed = 1;
nodes = (
"351 107 OFFCURVE",
"339 95 OFFCURVE",
"319 95 CURVE SMOOTH",
"304 95 LINE",
"304 181 LINE",
"201 181 LINE",
"201 95 LINE",
"186 95 LINE SMOOTH",
"166 95 OFFCURVE",
"154 107 OFFCURVE",
"154 127 CURVE SMOOTH",
"154 591 LINE SMOOTH",
"154 611 OFFCURVE",
"166 623 OFFCURVE",
"186 623 CURVE SMOOTH",
"319 623 LINE SMOOTH",
"339 623 OFFCURVE",
"351 611 OFFCURVE",
"351 591 CURVE SMOOTH",
"351 127 LINE SMOOTH"
);
}
);
width = 505;
}
);
leftKerningGroup = O;
leftMetricsKey = E;
rightKerningGroup = O;
rightMetricsKey = E;
unicode = 0051;
},
{
color = 1;
glyphname = R;
lastChange = "2018-03-29 21:51:31 +0000";
layers = (
{
anchors = (
{
name = bottom;
position = "{253, 0}";
},
{
name = top;
position = "{253, 718}";
}
);
layerId = "4068F5EB-61ED-493D-A7D9-97E487B445BB";
paths = (
{
closed = 1;
nodes = (
"51 718 LINE",
"51 0 LINE",
"237 0 LINE",
"237 93 LINE",
"211 93 LINE SMOOTH",
"174 93 OFFCURVE",
"154 113 OFFCURVE",
"154 150 CURVE SMOOTH",
"154 256 LINE SMOOTH",
"154 286 OFFCURVE",
"161 303 OFFCURVE",
"191 303 CURVE SMOOTH",
"214 303 LINE",
"341 221 LINE",
"341 0 LINE",
"454 0 LINE",
"454 267 LINE",
"320 352 LINE",
"454 447 LINE",
"454 718 LINE"
);
},
{
closed = 1;
nodes = (
"191 398 LINE SMOOTH",
"161 398 OFFCURVE",
"154 415 OFFCURVE",
"154 445 CURVE SMOOTH",
"154 568 LINE SMOOTH",
"154 605 OFFCURVE",
"174 625 OFFCURVE",
"211 625 CURVE SMOOTH",
"341 625 LINE",
"341 488 LINE",
"217 398 LINE"
);
}
);
width = 505;
}
);
leftKerningGroup = H;
leftMetricsKey = E;
rightKerningGroup = R;
rightMetricsKey = E;
unicode = 0052;
},
{
color = 1;
glyphname = Rdblgrave;
lastChange = "2018-03-29 21:51:31 +0000";
layers = (
{
anchors = (
{
name = bottom;
position = "{253, 0}";
},
{
name = top;
position = "{253, 718}";
}
);
layerId = "4068F5EB-61ED-493D-A7D9-97E487B445BB";
paths = (
{
closed = 1;
nodes = (
"146 791 OFFCURVE",
"173 759 OFFCURVE",
"218 759 CURVE SMOOTH",
"244 759 LINE",
"224 923 LINE",
"129 923 LINE",
"140 836 LINE SMOOTH"
);
},
{
closed = 1;
nodes = (
"276 791 OFFCURVE",
"303 759 OFFCURVE",
"348 759 CURVE SMOOTH",
"374 759 LINE",
"354 923 LINE",
"259 923 LINE",
"270 836 LINE SMOOTH"
);
},
{
closed = 1;
nodes = (
"51 718 LINE",
"51 0 LINE",
"237 0 LINE",
"237 93 LINE",
"211 93 LINE SMOOTH",
"174 93 OFFCURVE",
"154 113 OFFCURVE",
"154 150 CURVE SMOOTH",
"154 256 LINE SMOOTH",
"154 286 OFFCURVE",
"161 303 OFFCURVE",
"191 303 CURVE SMOOTH",
"214 303 LINE",
"341 221 LINE",
"341 0 LINE",
"454 0 LINE",
"454 267 LINE",
"320 352 LINE",
"454 447 LINE",
"454 718 LINE"
);
},
{
closed = 1;
nodes = (
"191 398 LINE SMOOTH",
"161 398 OFFCURVE",
"154 415 OFFCURVE",
"154 445 CURVE SMOOTH",
"154 568 LINE SMOOTH",
"154 605 OFFCURVE",
"174 625 OFFCURVE",
"211 625 CURVE SMOOTH",
"341 625 LINE",
"341 488 LINE",
"217 398 LINE"
);
}
);
width = 505;
}
);
leftKerningGroup = Rdblgrave;
rightKerningGroup = Rdblgrave;
unicode = 0210;
},
{
color = 1;
glyphname = S;
lastChange = "2018-03-29 21:51:31 +0000";
layers = (
{
anchors = (
{
name = bottom;
position = "{253, 0}";
},
{
name = top;
position = "{253, 718}";
}
);
layerId = "4068F5EB-61ED-493D-A7D9-97E487B445BB";
paths = (
{
closed = 1;
nodes = (
"454 718 LINE",
"55 718 LINE",
"55 308 LINE",
"285 308 LINE SMOOTH",
"328 308 OFFCURVE",
"351 284 OFFCURVE",
"351 242 CURVE SMOOTH",
"351 127 LINE SMOOTH",
"351 107 OFFCURVE",
"339 95 OFFCURVE",
"319 95 CURVE SMOOTH",
"186 95 LINE SMOOTH",
"166 95 OFFCURVE",
"154 107 OFFCURVE",
"154 127 CURVE SMOOTH",
"154 188 LINE",
"51 188 LINE",
"51 0 LINE",
"454 0 LINE",
"454 403 LINE",
"224 403 LINE SMOOTH",
"181 403 OFFCURVE",
"158 426 OFFCURVE",
"158 469 CURVE SMOOTH",
"158 591 LINE SMOOTH",
"158 611 OFFCURVE",
"170 623 OFFCURVE",
"190 623 CURVE SMOOTH",
"319 623 LINE SMOOTH",
"339 623 OFFCURVE",
"351 611 OFFCURVE",
"351 591 CURVE SMOOTH",
"351 513 LINE",
"454 513 LINE"
);
}
);
width = 505;
}
);
leftKerningGroup = S;
leftMetricsKey = E;
rightKerningGroup = S;
rightMetricsKey = E;
unicode = 0053;
},
{
color = 1;
glyphname = Germandbls;
lastChange = "2018-03-29 21:51:31 +0000";
layers = (
{
anchors = (
{
name = bottom;
position = "{253, 0}";
},
{
name = top;
position = "{253, 718}";
}
);
layerId = "4068F5EB-61ED-493D-A7D9-97E487B445BB";
paths = (
{
closed = 1;
nodes = (
"454 447 LINE",
"454 718 LINE",
"51 718 LINE",
"51 0 LINE",
"154 0 LINE",
"154 568 LINE SMOOTH",
"154 605 OFFCURVE",
"174 625 OFFCURVE",
"211 625 CURVE SMOOTH",
"341 625 LINE",
"341 468 LINE",
"217 378 LINE",
"217 308 LINE",
"325 308 LINE SMOOTH",
"368 308 OFFCURVE",
"391 284 OFFCURVE",
"391 242 CURVE SMOOTH",
"391 127 LINE SMOOTH",
"391 107 OFFCURVE",
"379 95 OFFCURVE",
"359 95 CURVE SMOOTH",
"346 95 LINE SMOOTH",
"326 95 OFFCURVE",
"314 107 OFFCURVE",
"314 127 CURVE SMOOTH",
"314 178 LINE",
"211 178 LINE",
"211 0 LINE",
"494 0 LINE",
"494 403 LINE",
"392 403 LINE"
);
}
);
width = 505;
}
);
unicode = 1E9E;
},
{
color = 1;
glyphname = Schwa;
lastChange = "2018-03-29 21:51:31 +0000";
layers = (
{
layerId = "4068F5EB-61ED-493D-A7D9-97E487B445BB";
paths = (
{
closed = 1;
nodes = (
"51 718 LINE",
"51 543 LINE",
"154 543 LINE",
"154 591 LINE SMOOTH",
"154 611 OFFCURVE",
"166 623 OFFCURVE",
"186 623 CURVE SMOOTH",
"351 623 LINE",
"351 463 LINE SMOOTH",
"351 440 OFFCURVE",
"338 427 OFFCURVE",
"315 427 CURVE SMOOTH",
"51 427 LINE",
"51 0 LINE",
"454 0 LINE",
"454 718 LINE"
);
},
{
closed = 1;
nodes = (
"351 107 OFFCURVE",
"339 95 OFFCURVE",
"319 95 CURVE SMOOTH",
"186 95 LINE SMOOTH",
"166 95 OFFCURVE",
"154 103 OFFCURVE",
"154 127 CURVE SMOOTH",
"154 332 LINE",
"315 332 LINE SMOOTH",
"338 332 OFFCURVE",
"351 319 OFFCURVE",
"351 296 CURVE SMOOTH",
"351 127 LINE SMOOTH"
);
}
);
width = 505;
}
);
leftKerningGroup = O;
leftMetricsKey = H;
rightKerningGroup = O;
rightMetricsKey = H;
unicode = 018F;
},
{
color = 1;
glyphname = T;
lastChange = "2018-03-29 21:51:31 +0000";
layers = (
{
anchors = (
{
name = bottom;
position = "{293, 0}";
},
{
name = center;
position = "{293, 359}";
},
{
name = top;
position = "{293, 718}";
}
);
layerId = "4068F5EB-61ED-493D-A7D9-97E487B445BB";
paths = (
{
closed = 1;
nodes = (
"534 718 LINE",
"51 718 LINE",
"51 362 LINE",
"153 362 LINE",
"153 591 LINE SMOOTH",
"153 611 OFFCURVE",
"165 623 OFFCURVE",
"185 623 CURVE SMOOTH",
"209 623 LINE SMOOTH",
"229 623 OFFCURVE",
"241 611 OFFCURVE",
"241 591 CURVE SMOOTH",
"241 95 LINE",
"91 95 LINE",
"91 0 LINE",
"493 0 LINE",
"493 95 LINE",
"344 95 LINE",
"344 591 LINE SMOOTH",
"344 611 OFFCURVE",
"356 623 OFFCURVE",
"376 623 CURVE SMOOTH",
"400 623 LINE SMOOTH",
"420 623 OFFCURVE",
"432 611 OFFCURVE",
"432 591 CURVE SMOOTH",
"432 362 LINE",
"534 362 LINE"
);
}
);
width = 585;
}
);
leftKerningGroup = T;
leftMetricsKey = E;
rightKerningGroup = T;
rightMetricsKey = E;
unicode = 0054;
},
{
color = 1;
glyphname = Tbar;
lastChange = "2018-03-29 21:51:31 +0000";
layers = (
{
anchors = (
{
name = bottom;
position = "{293, 0}";
},
{
name = center;
position = "{293, 359}";
},
{
name = top;
position = "{293, 718}";
}
);
layerId = "4068F5EB-61ED-493D-A7D9-97E487B445BB";
paths = (
{
closed = 1;
nodes = (
"534 718 LINE",
"51 718 LINE",
"51 362 LINE",
"153 362 LINE",
"153 591 LINE SMOOTH",
"153 611 OFFCURVE",
"165 623 OFFCURVE",
"185 623 CURVE SMOOTH",
"209 623 LINE SMOOTH",
"229 623 OFFCURVE",
"241 611 OFFCURVE",
"241 591 CURVE SMOOTH",
"241 286 LINE",
"102 286 LINE",
"102 191 LINE",
"241 191 LINE",
"241 95 LINE",
"91 95 LINE",
"91 0 LINE",
"493 0 LINE",
"493 95 LINE",
"344 95 LINE",
"344 191 LINE",
"482 191 LINE",
"482 286 LINE",
"344 286 LINE",
"344 591 LINE SMOOTH",
"344 611 OFFCURVE",
"356 623 OFFCURVE",
"376 623 CURVE SMOOTH",
"400 623 LINE SMOOTH",
"420 623 OFFCURVE",
"432 611 OFFCURVE",
"432 591 CURVE SMOOTH",
"432 362 LINE",
"534 362 LINE"
);
}
);
width = 585;
}
);
leftKerningGroup = T;
rightKerningGroup = T;
unicode = 0166;
},
{
color = 1;
glyphname = U;
lastChange = "2018-03-29 21:51:31 +0000";
layers = (
{
anchors = (
{
name = bottom;
position = "{253, 0}";
},
{
name = ogonek;
position = "{340, 0}";
},
{
name = top;
position = "{253, 718}";
},
{
name = topright;
position = "{485, 718}";
}
);
layerId = "4068F5EB-61ED-493D-A7D9-97E487B445BB";
paths = (
{
closed = 1;
nodes = (
"51 718 LINE",
"51 0 LINE",
"454 0 LINE",
"454 718 LINE",
"351 718 LINE",
"351 127 LINE SMOOTH",
"351 107 OFFCURVE",
"339 95 OFFCURVE",
"319 95 CURVE SMOOTH",
"186 95 LINE SMOOTH",
"166 95 OFFCURVE",
"154 107 OFFCURVE",
"154 127 CURVE SMOOTH",
"154 718 LINE"
);
}
);
width = 505;
}
);
leftKerningGroup = U;
leftMetricsKey = E;
rightKerningGroup = U;
rightMetricsKey = E;
unicode = 0055;
},
{
color = 1;
glyphname = Udblgrave;
lastChange = "2018-03-29 21:51:31 +0000";
layers = (
{
anchors = (
{
name = bottom;
position = "{253, 0}";
},
{
name = ogonek;
position = "{454, 10}";
},
{
name = top;
position = "{253, 718}";
},
{
name = topright;
position = "{485, 718}";
}
);
layerId = "4068F5EB-61ED-493D-A7D9-97E487B445BB";
paths = (
{
closed = 1;
nodes = (
"146 791 OFFCURVE",
"173 759 OFFCURVE",
"218 759 CURVE SMOOTH",
"244 759 LINE",
"224 923 LINE",
"129 923 LINE",
"140 836 LINE SMOOTH"
);
},
{
closed = 1;
nodes = (
"276 791 OFFCURVE",
"303 759 OFFCURVE",
"348 759 CURVE SMOOTH",
"374 759 LINE",
"354 923 LINE",
"259 923 LINE",
"270 836 LINE SMOOTH"
);
},
{
closed = 1;
nodes = (
"51 718 LINE",
"51 0 LINE",
"454 0 LINE",
"454 718 LINE",
"351 718 LINE",
"351 127 LINE SMOOTH",
"351 107 OFFCURVE",
"339 95 OFFCURVE",
"319 95 CURVE SMOOTH",
"186 95 LINE SMOOTH",
"166 95 OFFCURVE",
"154 107 OFFCURVE",
"154 127 CURVE SMOOTH",
"154 718 LINE"
);
}
);
width = 505;
}
);
leftKerningGroup = Udblgrave;
rightKerningGroup = Udblgrave;
unicode = 0214;
},
{
color = 1;
glyphname = Ugrave;
lastChange = "2018-03-29 21:51:31 +0000";
layers = (
{
anchors = (
{
name = bottom;
position = "{253, 0}";
},
{
name = ogonek;
position = "{454, 10}";
},
{
name = top;
position = "{253, 718}";
},
{
name = topright;
position = "{485, 718}";
}
);
layerId = "4068F5EB-61ED-493D-A7D9-97E487B445BB";
paths = (
{
closed = 1;
nodes = (
"208 798 OFFCURVE",
"241 766 OFFCURVE",
"286 766 CURVE SMOOTH",
"298 766 LINE",
"298 923 LINE",
"208 923 LINE",
"208 843 LINE SMOOTH"
);
},
{
closed = 1;
nodes = (
"51 718 LINE",
"51 0 LINE",
"454 0 LINE",
"454 718 LINE",
"351 718 LINE",
"351 127 LINE SMOOTH",
"351 107 OFFCURVE",
"339 95 OFFCURVE",
"319 95 CURVE SMOOTH",
"186 95 LINE SMOOTH",
"166 95 OFFCURVE",
"154 107 OFFCURVE",
"154 127 CURVE SMOOTH",
"154 718 LINE"
);
}
);
width = 505;
}
);
leftKerningGroup = U;
rightKerningGroup = U;
unicode = 00D9;
},
{
color = 1;
glyphname = V;
lastChange = "2018-03-29 21:51:31 +0000";
layers = (
{
anchors = (
{
name = bottom;
position = "{252, 0}";
},
{
name = top;
position = "{252, 718}";
}
);
layerId = "4068F5EB-61ED-493D-A7D9-97E487B445BB";
paths = (
{
closed = 1;
nodes = (
"304 0 LINE",
"453 240 LINE",
"453 718 LINE",
"350 718 LINE",
"350 264 LINE",
"252 105 LINE",
"154 264 LINE",
"154 718 LINE",
"51 718 LINE",
"51 240 LINE",
"200 0 LINE"
);
}
);
width = 504;
}
);
leftKerningGroup = V;
leftMetricsKey = E;
rightKerningGroup = V;
rightMetricsKey = E;
unicode = 0056;
},
{
color = 1;
glyphname = W;
lastChange = "2018-03-29 21:51:31 +0000";
layers = (
{
anchors = (
{
name = bottom;
position = "{336, 0}";
},
{
name = top;
position = "{336, 718}";
}
);
layerId = "4068F5EB-61ED-493D-A7D9-97E487B445BB";
paths = (
{
closed = 1;
nodes = (
"620 0 LINE",
"620 718 LINE",
"460 718 LINE",
"460 623 LINE",
"483 623 LINE SMOOTH",
"503 623 OFFCURVE",
"515 611 OFFCURVE",
"515 591 CURVE SMOOTH",
"515 113 LINE",
"476 113 LINE",
"390 224 LINE",
"385 230 OFFCURVE",
"383 237 OFFCURVE",
"383 245 CURVE SMOOTH",
"383 508 LINE",
"288 508 LINE",
"288 245 LINE SMOOTH",
"288 237 OFFCURVE",
"286 230 OFFCURVE",
"281 224 CURVE",
"195 113 LINE",
"156 113 LINE",
"156 591 LINE SMOOTH",
"156 611 OFFCURVE",
"168 623 OFFCURVE",
"188 623 CURVE SMOOTH",
"211 623 LINE",
"211 718 LINE",
"51 718 LINE",
"51 0 LINE",
"233 0 LINE",
"336 132 LINE",
"438 0 LINE"
);
}
);
width = 671;
}
);
leftKerningGroup = W;
leftMetricsKey = E;
rightKerningGroup = W;
rightMetricsKey = E;
unicode = 0057;
},
{
color = 1;
glyphname = Wgrave;
lastChange = "2018-03-29 21:51:31 +0000";
layers = (
{
anchors = (
{
name = bottom;
position = "{336, 0}";
},
{
name = top;
position = "{336, 718}";
}
);
layerId = "4068F5EB-61ED-493D-A7D9-97E487B445BB";
paths = (
{
closed = 1;
nodes = (
"291 798 OFFCURVE",
"324 766 OFFCURVE",
"369 766 CURVE SMOOTH",
"381 766 LINE",
"381 923 LINE",
"291 923 LINE",
"291 843 LINE SMOOTH"
);
},
{
closed = 1;
nodes = (
"620 0 LINE",
"620 718 LINE",
"460 718 LINE",
"460 623 LINE",
"483 623 LINE SMOOTH",
"503 623 OFFCURVE",
"515 611 OFFCURVE",
"515 591 CURVE SMOOTH",
"515 113 LINE",
"476 113 LINE",
"390 224 LINE",
"385 230 OFFCURVE",
"383 237 OFFCURVE",
"383 245 CURVE SMOOTH",
"383 508 LINE",
"288 508 LINE",
"288 245 LINE SMOOTH",
"288 237 OFFCURVE",
"286 230 OFFCURVE",
"281 224 CURVE",
"195 113 LINE",
"156 113 LINE",
"156 591 LINE SMOOTH",
"156 611 OFFCURVE",
"168 623 OFFCURVE",
"188 623 CURVE SMOOTH",
"211 623 LINE",
"211 718 LINE",
"51 718 LINE",
"51 0 LINE",
"233 0 LINE",
"336 132 LINE",
"438 0 LINE"
);
}
);
width = 671;
}
);
leftKerningGroup = W;
rightKerningGroup = W;
unicode = 1E80;
},
{
color = 1;
glyphname = X;
lastChange = "2018-03-29 21:51:31 +0000";
layers = (
{
anchors = (
{
name = bottom;
position = "{252, 0}";
},
{
name = top;
position = "{252, 718}";
}
);
layerId = "4068F5EB-61ED-493D-A7D9-97E487B445BB";
paths = (
{
closed = 1;
nodes = (
"350 718 LINE",
"350 594 LINE",
"252 449 LINE",
"154 594 LINE",
"154 718 LINE",
"51 718 LINE",
"51 570 LINE",
"194 360 LINE",
"51 149 LINE",
"51 0 LINE",
"154 0 LINE",
"154 125 LINE",
"252 270 LINE",
"350 125 LINE",
"350 0 LINE",
"453 0 LINE",
"453 149 LINE",
"310 360 LINE",
"453 570 LINE",
"453 718 LINE"
);
}
);
width = 504;
},
{
associatedMasterId = "4068F5EB-61ED-493D-A7D9-97E487B445BB";
layerId = "1E7C235B-BD96-4FFF-ABC3-BB459E26E285";
name = "Apr 19 17, 00:18";
paths = (
{
closed = 1;
nodes = (
"275 359 LINE",
"407 460 LINE",
"407 718 LINE",
"304 718 LINE",
"304 503 LINE",
"233 440 LINE",
"162 503 LINE",
"162 718 LINE",
"59 718 LINE",
"59 460 LINE",
"190 360 LINE",
"51 273 LINE",
"51 0 LINE",
"154 0 LINE",
"154 225 LINE",
"233 274 LINE",
"312 225 LINE",
"312 0 LINE",
"415 0 LINE",
"415 273 LINE"
);
}
);
width = 466;
},
{
associatedMasterId = "4068F5EB-61ED-493D-A7D9-97E487B445BB";
layerId = "BD83D634-111A-42E6-94F4-210186944793";
name = "Apr 19 17, 00:18";
paths = (
{
closed = 1;
nodes = (
"275 359 LINE",
"407 460 LINE",
"407 718 LINE",
"304 718 LINE",
"304 503 LINE",
"233 440 LINE",
"162 503 LINE",
"162 718 LINE",
"59 718 LINE",
"59 460 LINE",
"190 360 LINE",
"51 273 LINE",
"51 0 LINE",
"154 0 LINE",
"154 225 LINE",
"233 274 LINE",
"312 225 LINE",
"312 0 LINE",
"415 0 LINE",
"415 273 LINE"
);
}
);
width = 466;
}
);
leftKerningGroup = X;
leftMetricsKey = E;
rightKerningGroup = X;
rightMetricsKey = E;
unicode = 0058;
},
{
color = 1;
glyphname = Y;
lastChange = "2018-03-29 21:51:31 +0000";
layers = (
{
anchors = (
{
name = bottom;
position = "{265, 0}";
},
{
name = top;
position = "{265, 718}";
},
{
name = topleft;
position = "{30, 718}";
}
);
layerId = "4068F5EB-61ED-493D-A7D9-97E487B445BB";
paths = (
{
closed = 1;
nodes = (
"479 718 LINE",
"376 718 LINE",
"376 387 LINE",
"266 307 LINE",
"154 387 LINE",
"154 718 LINE",
"51 718 LINE",
"51 337 LINE",
"214 221 LINE",
"214 127 LINE SMOOTH",
"214 107 OFFCURVE",
"202 95 OFFCURVE",
"182 95 CURVE SMOOTH",
"149 95 LINE",
"149 0 LINE",
"382 0 LINE",
"382 95 LINE",
"349 95 LINE SMOOTH",
"329 95 OFFCURVE",
"317 107 OFFCURVE",
"317 127 CURVE SMOOTH",
"317 221 LINE",
"479 337 LINE"
);
}
);
width = 530;
}
);
leftKerningGroup = Y;
leftMetricsKey = E;
rightKerningGroup = Y;
rightMetricsKey = E;
unicode = 0059;
},
{
color = 1;
glyphname = Ygrave;
lastChange = "2018-03-29 21:51:31 +0000";
layers = (
{
anchors = (
{
name = bottom;
position = "{265, 0}";
},
{
name = top;
position = "{265, 718}";
},
{
name = topleft;
position = "{30, 718}";
}
);
layerId = "4068F5EB-61ED-493D-A7D9-97E487B445BB";
paths = (
{
closed = 1;
nodes = (
"220 798 OFFCURVE",
"253 766 OFFCURVE",
"298 766 CURVE SMOOTH",
"310 766 LINE",
"310 923 LINE",
"220 923 LINE",
"220 843 LINE SMOOTH"
);
},
{
closed = 1;
nodes = (
"479 718 LINE",
"376 718 LINE",
"376 387 LINE",
"266 307 LINE",
"154 387 LINE",
"154 718 LINE",
"51 718 LINE",
"51 337 LINE",
"214 221 LINE",
"214 127 LINE SMOOTH",
"214 107 OFFCURVE",
"202 95 OFFCURVE",
"182 95 CURVE SMOOTH",
"149 95 LINE",
"149 0 LINE",
"382 0 LINE",
"382 95 LINE",
"349 95 LINE SMOOTH",
"329 95 OFFCURVE",
"317 107 OFFCURVE",
"317 127 CURVE SMOOTH",
"317 221 LINE",
"479 337 LINE"
);
}
);
width = 530;
}
);
leftKerningGroup = Y;
rightKerningGroup = Y;
unicode = 1EF2;
},
{
color = 1;
glyphname = Z;
lastChange = "2018-03-29 21:51:31 +0000";
layers = (
{
anchors = (
{
name = bottom;
position = "{253, 0}";
},
{
name = top;
position = "{253, 718}";
}
);
layerId = "4068F5EB-61ED-493D-A7D9-97E487B445BB";
paths = (
{
closed = 1;
nodes = (
"351 127 LINE SMOOTH",
"351 107 OFFCURVE",
"339 95 OFFCURVE",
"319 95 CURVE SMOOTH",
"186 95 LINE SMOOTH",
"166 95 OFFCURVE",
"154 107 OFFCURVE",
"154 127 CURVE SMOOTH",
"154 242 LINE SMOOTH",
"154 284 OFFCURVE",
"177 308 OFFCURVE",
"220 308 CURVE SMOOTH",
"450 308 LINE",
"450 718 LINE",
"51 718 LINE",
"51 513 LINE",
"154 513 LINE",
"154 591 LINE SMOOTH",
"154 611 OFFCURVE",
"166 623 OFFCURVE",
"186 623 CURVE SMOOTH",
"315 623 LINE SMOOTH",
"335 623 OFFCURVE",
"347 611 OFFCURVE",
"347 591 CURVE SMOOTH",
"347 469 LINE SMOOTH",
"347 426 OFFCURVE",
"324 403 OFFCURVE",
"281 403 CURVE SMOOTH",
"51 403 LINE",
"51 0 LINE",
"454 0 LINE",
"454 188 LINE",
"351 188 LINE"
);
}
);
width = 505;
}
);
leftKerningGroup = Z;
leftMetricsKey = E;
rightKerningGroup = Z;
rightMetricsKey = E;
unicode = 005A;
},
{
color = 6;
glyphname = A.ss01;
lastChange = "2018-03-29 21:51:41 +0000";
layers = (
{
anchors = (
{
name = bottom;
position = "{292, 0}";
},
{
name = ogonek;
position = "{534, 0}";
},
{
name = top;
position = "{292, 718}";
}
);
background = {
paths = (
{
closed = 1;
nodes = (
"423 231 OFFCURVE",
"430 214 OFFCURVE",
"430 184 CURVE SMOOTH",
"430 0 LINE",
"533 0 LINE",
"533 718 LINE",
"241 718 LINE",
"241 625 LINE",
"373 625 LINE SMOOTH",
"410 625 OFFCURVE",
"430 605 OFFCURVE",
"430 568 CURVE SMOOTH",
"430 373 LINE SMOOTH",
"430 343 OFFCURVE",
"423 326 OFFCURVE",
"393 326 CURVE",
"241 326 LINE",
"241 231 LINE",
"393 231 LINE"
);
},
{
closed = 1;
nodes = (
"343 231 LINE",
"343 326 LINE",
"191 326 LINE",
"161 326 OFFCURVE",
"154 343 OFFCURVE",
"154 373 CURVE SMOOTH",
"154 568 LINE SMOOTH",
"154 605 OFFCURVE",
"174 625 OFFCURVE",
"211 625 CURVE SMOOTH",
"343 625 LINE",
"343 718 LINE",
"51 718 LINE",
"51 0 LINE",
"154 0 LINE",
"154 184 LINE SMOOTH",
"154 214 OFFCURVE",
"161 231 OFFCURVE",
"191 231 CURVE"
);
}
);
};
layerId = "4068F5EB-61ED-493D-A7D9-97E487B445BB";
paths = (
{
closed = 1;
nodes = (
"51 718 LINE",
"51 0 LINE",
"154 0 LINE",
"154 184 LINE SMOOTH",
"154 214 OFFCURVE",
"161 231 OFFCURVE",
"191 231 CURVE SMOOTH",
"393 231 LINE SMOOTH",
"423 231 OFFCURVE",
"430 214 OFFCURVE",
"430 184 CURVE SMOOTH",
"430 0 LINE",
"533 0 LINE",
"533 718 LINE"
);
},
{
closed = 1;
nodes = (
"430 343 OFFCURVE",
"423 326 OFFCURVE",
"393 326 CURVE SMOOTH",
"191 326 LINE SMOOTH",
"161 326 OFFCURVE",
"154 343 OFFCURVE",
"154 373 CURVE SMOOTH",
"154 568 LINE SMOOTH",
"154 605 OFFCURVE",
"174 625 OFFCURVE",
"211 625 CURVE SMOOTH",
"373 625 LINE SMOOTH",
"410 625 OFFCURVE",
"430 605 OFFCURVE",
"430 568 CURVE SMOOTH",
"430 373 LINE SMOOTH"
);
}
);
width = 584;
},
{
associatedMasterId = "4068F5EB-61ED-493D-A7D9-97E487B445BB";
layerId = "D8D5D010-A444-48C8-9FF4-65618D12DFC6";
name = "Apr 2 17, 16:50";
paths = (
{
closed = 1;
nodes = (
"404 718 LINE",
"141 718 LINE",
"51 1 LINE",
"154 0 LINE",
"224 591 LINE SMOOTH",
"226 611 OFFCURVE",
"236 623 OFFCURVE",
"256 623 CURVE SMOOTH",
"289 623 LINE SMOOTH",
"309 623 OFFCURVE",
"319 611 OFFCURVE",
"321 591 CURVE SMOOTH",
"391 0 LINE",
"494 0 LINE"
);
},
{
closed = 1;
nodes = (
"88 139 LINE",
"454 139 LINE",
"434 246 LINE",
"108 246 LINE"
);
}
);
width = 545;
},
{
associatedMasterId = "4068F5EB-61ED-493D-A7D9-97E487B445BB";
layerId = "FEF42308-E98A-4954-BF2E-4923C74EF026";
name = "Apr 19 17, 00:40";
paths = (
{
closed = 1;
nodes = (
"160 513 LINE",
"160 591 LINE SMOOTH",
"160 611 OFFCURVE",
"172 623 OFFCURVE",
"192 623 CURVE SMOOTH",
"319 623 LINE SMOOTH",
"339 623 OFFCURVE",
"351 611 OFFCURVE",
"351 591 CURVE SMOOTH",
"351 442 LINE SMOOTH",
"351 419 OFFCURVE",
"338 406 OFFCURVE",
"315 406 CURVE SMOOTH",
"79 406 LINE",
"79 311 LINE",
"315 311 LINE SMOOTH",
"338 311 OFFCURVE",
"351 298 OFFCURVE",
"351 275 CURVE SMOOTH",
"351 127 LINE SMOOTH",
"351 107 OFFCURVE",
"339 95 OFFCURVE",
"319 95 CURVE SMOOTH",
"186 95 LINE SMOOTH",
"166 95 OFFCURVE",
"154 107 OFFCURVE",
"154 127 CURVE SMOOTH",
"154 406 LINE",
"51 406 LINE",
"51 0 LINE",
"454 0 LINE",
"454 718 LINE",
"57 718 LINE",
"57 513 LINE"
);
}
);
width = 505;
},
{
associatedMasterId = "4068F5EB-61ED-493D-A7D9-97E487B445BB";
layerId = "5872F83D-E48B-451C-9E7E-F44839A33A38";
name = "Apr 2 17, 16:50";
paths = (
{
closed = 1;
nodes = (
"404 718 LINE",
"141 718 LINE",
"51 1 LINE",
"154 0 LINE",
"224 591 LINE SMOOTH",
"226 611 OFFCURVE",
"236 623 OFFCURVE",
"256 623 CURVE SMOOTH",
"289 623 LINE SMOOTH",
"309 623 OFFCURVE",
"319 611 OFFCURVE",
"321 591 CURVE SMOOTH",
"391 0 LINE",
"494 0 LINE"
);
},
{
closed = 1;
nodes = (
"88 139 LINE",
"454 139 LINE",
"434 246 LINE",
"108 246 LINE"
);
}
);
width = 545;
},
{
associatedMasterId = "4068F5EB-61ED-493D-A7D9-97E487B445BB";
layerId = "3958FFF9-002F-4BB4-B106-8FBE73EC6642";
name = "Apr 19 17, 00:40";
paths = (
{
closed = 1;
nodes = (
"160 513 LINE",
"160 591 LINE SMOOTH",
"160 611 OFFCURVE",
"172 623 OFFCURVE",
"192 623 CURVE SMOOTH",
"319 623 LINE SMOOTH",
"339 623 OFFCURVE",
"351 611 OFFCURVE",
"351 591 CURVE SMOOTH",
"351 442 LINE SMOOTH",
"351 419 OFFCURVE",
"338 406 OFFCURVE",
"315 406 CURVE SMOOTH",
"79 406 LINE",
"79 311 LINE",
"315 311 LINE SMOOTH",
"338 311 OFFCURVE",
"351 298 OFFCURVE",
"351 275 CURVE SMOOTH",
"351 127 LINE SMOOTH",
"351 107 OFFCURVE",
"339 95 OFFCURVE",
"319 95 CURVE SMOOTH",
"186 95 LINE SMOOTH",
"166 95 OFFCURVE",
"154 107 OFFCURVE",
"154 127 CURVE SMOOTH",
"154 406 LINE",
"51 406 LINE",
"51 0 LINE",
"454 0 LINE",
"454 718 LINE",
"57 718 LINE",
"57 513 LINE"
);
}
);
width = 505;
}
);
leftKerningGroup = A;
leftMetricsKey = E;
rightKerningGroup = A;
rightMetricsKey = E;
},
{
color = 6;
glyphname = Adblgrave.ss01;
lastChange = "2018-03-29 21:51:41 +0000";
layers = (
{
anchors = (
{
name = bottom;
position = "{292, 0}";
},
{
name = ogonek;
position = "{534, 10}";
},
{
name = top;
position = "{292, 718}";
}
);
layerId = "4068F5EB-61ED-493D-A7D9-97E487B445BB";
paths = (
{
closed = 1;
nodes = (
"185 791 OFFCURVE",
"212 759 OFFCURVE",
"257 759 CURVE SMOOTH",
"283 759 LINE",
"263 923 LINE",
"168 923 LINE",
"179 836 LINE SMOOTH"
);
},
{
closed = 1;
nodes = (
"315 791 OFFCURVE",
"342 759 OFFCURVE",
"387 759 CURVE SMOOTH",
"413 759 LINE",
"393 923 LINE",
"298 923 LINE",
"309 836 LINE SMOOTH"
);
},
{
closed = 1;
nodes = (
"51 718 LINE",
"51 0 LINE",
"154 0 LINE",
"154 184 LINE SMOOTH",
"154 214 OFFCURVE",
"161 231 OFFCURVE",
"191 231 CURVE SMOOTH",
"393 231 LINE SMOOTH",
"423 231 OFFCURVE",
"430 214 OFFCURVE",
"430 184 CURVE SMOOTH",
"430 0 LINE",
"533 0 LINE",
"533 718 LINE"
);
},
{
closed = 1;
nodes = (
"430 343 OFFCURVE",
"423 326 OFFCURVE",
"393 326 CURVE SMOOTH",
"191 326 LINE SMOOTH",
"161 326 OFFCURVE",
"154 343 OFFCURVE",
"154 373 CURVE SMOOTH",
"154 568 LINE SMOOTH",
"154 605 OFFCURVE",
"174 625 OFFCURVE",
"211 625 CURVE SMOOTH",
"373 625 LINE SMOOTH",
"410 625 OFFCURVE",
"430 605 OFFCURVE",
"430 568 CURVE SMOOTH",
"430 373 LINE SMOOTH"
);
}
);
width = 584;
}
);
leftKerningGroup = A;
rightKerningGroup = A;
},
{
color = 6;
glyphname = Agrave.ss01;
lastChange = "2018-03-29 21:51:41 +0000";
layers = (
{
anchors = (
{
name = bottom;
position = "{292, 0}";
},
{
name = ogonek;
position = "{534, 10}";
},
{
name = top;
position = "{292, 718}";
}
);
layerId = "4068F5EB-61ED-493D-A7D9-97E487B445BB";
paths = (
{
closed = 1;
nodes = (
"247 798 OFFCURVE",
"280 766 OFFCURVE",
"325 766 CURVE SMOOTH",
"337 766 LINE",
"337 923 LINE",
"247 923 LINE",
"247 843 LINE SMOOTH"
);
},
{
closed = 1;
nodes = (
"51 718 LINE",
"51 0 LINE",
"154 0 LINE",
"154 184 LINE SMOOTH",
"154 214 OFFCURVE",
"161 231 OFFCURVE",
"191 231 CURVE SMOOTH",
"393 231 LINE SMOOTH",
"423 231 OFFCURVE",
"430 214 OFFCURVE",
"430 184 CURVE SMOOTH",
"430 0 LINE",
"533 0 LINE",
"533 718 LINE"
);
},
{
closed = 1;
nodes = (
"430 343 OFFCURVE",
"423 326 OFFCURVE",
"393 326 CURVE SMOOTH",
"191 326 LINE SMOOTH",
"161 326 OFFCURVE",
"154 343 OFFCURVE",
"154 373 CURVE SMOOTH",
"154 568 LINE SMOOTH",
"154 605 OFFCURVE",
"174 625 OFFCURVE",
"211 625 CURVE SMOOTH",
"373 625 LINE SMOOTH",
"410 625 OFFCURVE",
"430 605 OFFCURVE",
"430 568 CURVE SMOOTH",
"430 373 LINE SMOOTH"
);
}
);
width = 584;
}
);
leftKerningGroup = A;
rightKerningGroup = A;
},
{
color = 6;
glyphname = AE.ss01;
lastChange = "2018-03-29 21:51:41 +0000";
layers = (
{
anchors = (
{
name = bottom;
position = "{262, 0}";
},
{
name = ogonek;
position = "{504, 10}";
},
{
name = top;
position = "{452, 718}";
}
);
layerId = "4068F5EB-61ED-493D-A7D9-97E487B445BB";
paths = (
{
closed = 1;
nodes = (
"853 718 LINE",
"51 718 LINE",
"51 0 LINE",
"154 0 LINE",
"154 184 LINE SMOOTH",
"154 214 OFFCURVE",
"161 231 OFFCURVE",
"191 231 CURVE SMOOTH",
"363 231 LINE SMOOTH",
"393 231 OFFCURVE",
"400 214 OFFCURVE",
"400 184 CURVE SMOOTH",
"400 0 LINE",
"853 0 LINE",
"853 225 LINE",
"750 225 LINE",
"750 127 LINE SMOOTH",
"750 107 OFFCURVE",
"738 95 OFFCURVE",
"718 95 CURVE SMOOTH",
"535 95 LINE SMOOTH",
"515 95 OFFCURVE",
"503 107 OFFCURVE",
"503 127 CURVE SMOOTH",
"503 275 LINE SMOOTH",
"503 298 OFFCURVE",
"516 311 OFFCURVE",
"539 311 CURVE SMOOTH",
"705 311 LINE",
"705 406 LINE",
"539 406 LINE SMOOTH",
"516 406 OFFCURVE",
"503 419 OFFCURVE",
"503 442 CURVE SMOOTH",
"503 591 LINE SMOOTH",
"503 611 OFFCURVE",
"515 623 OFFCURVE",
"535 623 CURVE SMOOTH",
"718 623 LINE SMOOTH",
"738 623 OFFCURVE",
"750 615 OFFCURVE",
"750 591 CURVE SMOOTH",
"750 493 LINE",
"853 493 LINE"
);
},
{
closed = 1;
nodes = (
"400 343 OFFCURVE",
"393 326 OFFCURVE",
"363 326 CURVE SMOOTH",
"191 326 LINE SMOOTH",
"161 326 OFFCURVE",
"154 343 OFFCURVE",
"154 373 CURVE SMOOTH",
"154 568 LINE SMOOTH",
"154 605 OFFCURVE",
"174 625 OFFCURVE",
"211 625 CURVE SMOOTH",
"343 625 LINE SMOOTH",
"380 625 OFFCURVE",
"400 605 OFFCURVE",
"400 568 CURVE SMOOTH",
"400 373 LINE SMOOTH"
);
}
);
width = 904;
}
);
leftKerningGroup = AE.ss01;
leftMetricsKey = A;
rightKerningGroup = AE.ss01;
rightMetricsKey = E;
},
{
color = 6;
glyphname = B.ss01;
lastChange = "2018-03-29 21:51:41 +0000";
layers = (
{
anchors = (
{
name = bottom;
position = "{298, 0}";
},
{
name = top;
position = "{298, 718}";
}
);
layerId = "4068F5EB-61ED-493D-A7D9-97E487B445BB";
paths = (
{
closed = 1;
nodes = (
"543 452 LINE",
"543 718 LINE",
"51 718 LINE",
"51 0 LINE",
"544 0 LINE",
"544 282 LINE",
"420 362 LINE"
);
},
{
closed = 1;
nodes = (
"154 605 OFFCURVE",
"174 625 OFFCURVE",
"211 625 CURVE SMOOTH",
"440 625 LINE",
"440 498 LINE",
"317 408 LINE",
"191 408 LINE SMOOTH",
"161 408 OFFCURVE",
"154 425 OFFCURVE",
"154 455 CURVE SMOOTH",
"154 568 LINE SMOOTH"
);
},
{
closed = 1;
nodes = (
"174 93 OFFCURVE",
"154 113 OFFCURVE",
"154 150 CURVE SMOOTH",
"154 266 LINE SMOOTH",
"154 296 OFFCURVE",
"161 313 OFFCURVE",
"191 313 CURVE SMOOTH",
"314 313 LINE",
"441 231 LINE",
"441 93 LINE",
"211 93 LINE SMOOTH"
);
}
);
width = 595;
}
);
leftKerningGroup = B.ss01;
leftMetricsKey = E;
rightKerningGroup = B.ss01;
rightMetricsKey = E;
},
{
color = 6;
glyphname = C.ss01;
lastChange = "2018-03-29 21:51:41 +0000";
layers = (
{
anchors = (
{
name = bottom;
position = "{293, 0}";
},
{
name = top;
position = "{293, 718}";
}
);
layerId = "4068F5EB-61ED-493D-A7D9-97E487B445BB";
paths = (
{
closed = 1;
nodes = (
"51 0 LINE",
"544 0 LINE",
"544 255 LINE",
"441 255 LINE",
"441 127 LINE SMOOTH",
"441 107 OFFCURVE",
"429 95 OFFCURVE",
"409 95 CURVE SMOOTH",
"186 95 LINE SMOOTH",
"166 95 OFFCURVE",
"154 107 OFFCURVE",
"154 127 CURVE SMOOTH",
"154 591 LINE SMOOTH",
"154 611 OFFCURVE",
"166 623 OFFCURVE",
"186 623 CURVE SMOOTH",
"409 623 LINE SMOOTH",
"429 623 OFFCURVE",
"441 611 OFFCURVE",
"441 591 CURVE SMOOTH",
"441 463 LINE",
"544 463 LINE",
"544 718 LINE",
"51 718 LINE"
);
}
);
width = 595;
}
);
leftKerningGroup = C.ss01;
leftMetricsKey = E;
rightKerningGroup = C.ss01;
rightMetricsKey = E;
},
{
color = 6;
glyphname = D.ss01;
lastChange = "2018-03-29 21:51:41 +0000";
layers = (
{
anchors = (
{
name = bottom;
position = "{303, 0}";
},
{
name = center;
position = "{303, 359}";
},
{
name = top;
position = "{303, 718}";
}
);
layerId = "4068F5EB-61ED-493D-A7D9-97E487B445BB";
paths = (
{
closed = 1;
nodes = (
"51 718 LINE",
"51 0 LINE",
"403 0 LINE",
"554 116 LINE",
"554 602 LINE",
"403 718 LINE"
);
},
{
closed = 1;
nodes = (
"451 162 LINE",
"362 95 LINE",
"191 95 LINE SMOOTH",
"161 95 OFFCURVE",
"154 112 OFFCURVE",
"154 142 CURVE SMOOTH",
"154 576 LINE SMOOTH",
"154 606 OFFCURVE",
"161 623 OFFCURVE",
"191 623 CURVE SMOOTH",
"362 623 LINE",
"451 556 LINE"
);
}
);
width = 605;
}
);
leftKerningGroup = D.ss01;
leftMetricsKey = E;
rightKerningGroup = D.ss01;
rightMetricsKey = E;
},
{
color = 6;
glyphname = Eth.ss01;
lastChange = "2018-03-29 21:53:29 +0000";
layers = (
{
anchors = (
{
name = bottom;
position = "{354, 0}";
},
{
name = center;
position = "{354, 359}";
},
{
name = top;
position = "{354, 718}";
}
);
layerId = "4068F5EB-61ED-493D-A7D9-97E487B445BB";
paths = (
{
closed = 1;
nodes = (
"102 718 LINE",
"102 406 LINE",
"51 406 LINE",
"51 311 LINE",
"102 311 LINE",
"102 0 LINE",
"454 0 LINE",
"605 116 LINE",
"605 602 LINE",
"454 718 LINE"
);
},
{
closed = 1;
nodes = (
"413 95 LINE",
"242 95 LINE SMOOTH",
"212 95 OFFCURVE",
"205 112 OFFCURVE",
"205 142 CURVE SMOOTH",
"205 311 LINE",
"313 311 LINE",
"313 406 LINE",
"205 406 LINE",
"205 576 LINE SMOOTH",
"205 606 OFFCURVE",
"212 623 OFFCURVE",
"242 623 CURVE SMOOTH",
"413 623 LINE",
"502 556 LINE",
"502 162 LINE"
);
}
);
width = 656;
}
);
leftKerningGroup = Eth.ss01;
leftMetricsKey = D;
rightKerningGroup = Eth.ss01;
rightMetricsKey = D;
},
{
color = 6;
glyphname = E.ss01;
lastChange = "2018-03-29 21:51:41 +0000";
layers = (
{
anchors = (
{
name = bottom;
position = "{293, 0}";
},
{
name = ogonek;
position = "{534, 0}";
},
{
name = top;
position = "{293, 718}";
},
{
name = topleft;
position = "{20, 718}";
}
);
layerId = "4068F5EB-61ED-493D-A7D9-97E487B445BB";
paths = (
{
closed = 1;
nodes = (
"534 718 LINE",
"51 718 LINE",
"51 0 LINE",
"534 0 LINE",
"534 225 LINE",
"431 225 LINE",
"431 127 LINE SMOOTH",
"431 107 OFFCURVE",
"419 95 OFFCURVE",
"399 95 CURVE SMOOTH",
"186 95 LINE SMOOTH",
"166 95 OFFCURVE",
"154 107 OFFCURVE",
"154 127 CURVE SMOOTH",
"154 275 LINE SMOOTH",
"154 298 OFFCURVE",
"167 311 OFFCURVE",
"190 311 CURVE SMOOTH",
"386 311 LINE",
"386 406 LINE",
"190 406 LINE SMOOTH",
"167 406 OFFCURVE",
"154 419 OFFCURVE",
"154 442 CURVE SMOOTH",
"154 591 LINE SMOOTH",
"154 611 OFFCURVE",
"166 623 OFFCURVE",
"186 623 CURVE SMOOTH",
"399 623 LINE SMOOTH",
"419 623 OFFCURVE",
"431 615 OFFCURVE",
"431 591 CURVE SMOOTH",
"431 493 LINE",
"534 493 LINE"
);
}
);
width = 585;
}
);
leftKerningGroup = E.ss01;
leftMetricsKey = E;
rightKerningGroup = E.ss01;
rightMetricsKey = E;
},
{
color = 6;
glyphname = Edblgrave.ss01;
lastChange = "2018-03-29 21:51:41 +0000";
layers = (
{
anchors = (
{
name = bottom;
position = "{293, 0}";
},
{
name = ogonek;
position = "{534, 10}";
},
{
name = top;
position = "{293, 718}";
},
{
name = topleft;
position = "{20, 718}";
}
);
layerId = "4068F5EB-61ED-493D-A7D9-97E487B445BB";
paths = (
{
closed = 1;
nodes = (
"186 791 OFFCURVE",
"213 759 OFFCURVE",
"258 759 CURVE SMOOTH",
"284 759 LINE",
"264 923 LINE",
"169 923 LINE",
"180 836 LINE SMOOTH"
);
},
{
closed = 1;
nodes = (
"316 791 OFFCURVE",
"343 759 OFFCURVE",
"388 759 CURVE SMOOTH",
"414 759 LINE",
"394 923 LINE",
"299 923 LINE",
"310 836 LINE SMOOTH"
);
},
{
closed = 1;
nodes = (
"534 718 LINE",
"51 718 LINE",
"51 0 LINE",
"534 0 LINE",
"534 225 LINE",
"431 225 LINE",
"431 127 LINE SMOOTH",
"431 107 OFFCURVE",
"419 95 OFFCURVE",
"399 95 CURVE SMOOTH",
"186 95 LINE SMOOTH",
"166 95 OFFCURVE",
"154 107 OFFCURVE",
"154 127 CURVE SMOOTH",
"154 275 LINE SMOOTH",
"154 298 OFFCURVE",
"167 311 OFFCURVE",
"190 311 CURVE SMOOTH",
"386 311 LINE",
"386 406 LINE",
"190 406 LINE SMOOTH",
"167 406 OFFCURVE",
"154 419 OFFCURVE",
"154 442 CURVE SMOOTH",
"154 591 LINE SMOOTH",
"154 611 OFFCURVE",
"166 623 OFFCURVE",
"186 623 CURVE SMOOTH",
"399 623 LINE SMOOTH",
"419 623 OFFCURVE",
"431 615 OFFCURVE",
"431 591 CURVE SMOOTH",
"431 493 LINE",
"534 493 LINE"
);
}
);
width = 585;
}
);
leftKerningGroup = Edblgrave.ss01;
rightKerningGroup = Edblgrave.ss01;
},
{
color = 6;
glyphname = Egrave.ss01;
lastChange = "2018-03-29 21:51:41 +0000";
layers = (
{
anchors = (
{
name = bottom;
position = "{293, 0}";
},
{
name = ogonek;
position = "{534, 10}";
},
{
name = top;
position = "{293, 718}";
},
{
name = topleft;
position = "{20, 718}";
}
);
layerId = "4068F5EB-61ED-493D-A7D9-97E487B445BB";
paths = (
{
closed = 1;
nodes = (
"248 798 OFFCURVE",
"281 766 OFFCURVE",
"326 766 CURVE SMOOTH",
"338 766 LINE",
"338 923 LINE",
"248 923 LINE",
"248 843 LINE SMOOTH"
);
},
{
closed = 1;
nodes = (
"534 718 LINE",
"51 718 LINE",
"51 0 LINE",
"534 0 LINE",
"534 225 LINE",
"431 225 LINE",
"431 127 LINE SMOOTH",
"431 107 OFFCURVE",
"419 95 OFFCURVE",
"399 95 CURVE SMOOTH",
"186 95 LINE SMOOTH",
"166 95 OFFCURVE",
"154 107 OFFCURVE",
"154 127 CURVE SMOOTH",
"154 275 LINE SMOOTH",
"154 298 OFFCURVE",
"167 311 OFFCURVE",
"190 311 CURVE SMOOTH",
"386 311 LINE",
"386 406 LINE",
"190 406 LINE SMOOTH",
"167 406 OFFCURVE",
"154 419 OFFCURVE",
"154 442 CURVE SMOOTH",
"154 591 LINE SMOOTH",
"154 611 OFFCURVE",
"166 623 OFFCURVE",
"186 623 CURVE SMOOTH",
"399 623 LINE SMOOTH",
"419 623 OFFCURVE",
"431 615 OFFCURVE",
"431 591 CURVE SMOOTH",
"431 493 LINE",
"534 493 LINE"
);
}
);
width = 585;
}
);
leftKerningGroup = Egrave.ss01;
rightKerningGroup = Egrave.ss01;
},
{
color = 6;
glyphname = F.ss01;
lastChange = "2018-03-29 21:51:41 +0000";
layers = (
{
anchors = (
{
name = bottom;
position = "{293, 0}";
},
{
name = top;
position = "{293, 718}";
}
);
layerId = "4068F5EB-61ED-493D-A7D9-97E487B445BB";
paths = (
{
closed = 1;
nodes = (
"154 255 LINE SMOOTH",
"154 278 OFFCURVE",
"167 291 OFFCURVE",
"190 291 CURVE SMOOTH",
"434 291 LINE",
"434 386 LINE",
"190 386 LINE SMOOTH",
"167 386 OFFCURVE",
"154 399 OFFCURVE",
"154 422 CURVE SMOOTH",
"154 591 LINE SMOOTH",
"154 611 OFFCURVE",
"166 623 OFFCURVE",
"186 623 CURVE SMOOTH",
"399 623 LINE SMOOTH",
"419 623 OFFCURVE",
"431 615 OFFCURVE",
"431 591 CURVE SMOOTH",
"431 483 LINE",
"534 483 LINE",
"534 718 LINE",
"51 718 LINE",
"51 0 LINE",
"154 0 LINE"
);
}
);
width = 585;
}
);
leftKerningGroup = F.ss01;
leftMetricsKey = E;
rightKerningGroup = F.ss01;
rightMetricsKey = E;
},
{
color = 6;
glyphname = G.ss01;
lastChange = "2018-03-29 21:51:41 +0000";
layers = (
{
anchors = (
{
name = bottom;
position = "{293, 0}";
},
{
name = top;
position = "{293, 718}";
}
);
layerId = "4068F5EB-61ED-493D-A7D9-97E487B445BB";
paths = (
{
closed = 1;
nodes = (
"534 718 LINE",
"51 718 LINE",
"51 0 LINE",
"534 0 LINE",
"534 396 LINE",
"283 396 LINE",
"283 301 LINE",
"431 301 LINE",
"431 127 LINE SMOOTH",
"431 107 OFFCURVE",
"419 95 OFFCURVE",
"399 95 CURVE SMOOTH",
"186 95 LINE SMOOTH",
"166 95 OFFCURVE",
"154 107 OFFCURVE",
"154 127 CURVE SMOOTH",
"154 591 LINE SMOOTH",
"154 611 OFFCURVE",
"166 623 OFFCURVE",
"186 623 CURVE SMOOTH",
"399 623 LINE SMOOTH",
"419 623 OFFCURVE",
"431 611 OFFCURVE",
"431 591 CURVE SMOOTH",
"431 513 LINE",
"534 513 LINE"
);
}
);
width = 585;
}
);
leftKerningGroup = G.ss01;
leftMetricsKey = E;
rightKerningGroup = G.ss01;
rightMetricsKey = E;
},
{
color = 6;
glyphname = H.ss01;
lastChange = "2018-03-29 21:51:41 +0000";
layers = (
{
anchors = (
{
name = bottom;
position = "{303, 0}";
},
{
name = center;
position = "{303, 359}";
},
{
name = top;
position = "{303, 718}";
},
{
name = topleft;
position = "{20, 718}";
}
);
layerId = "4068F5EB-61ED-493D-A7D9-97E487B445BB";
paths = (
{
closed = 1;
nodes = (
"452 455 LINE SMOOTH",
"452 425 OFFCURVE",
"445 408 OFFCURVE",
"415 408 CURVE SMOOTH",
"192 408 LINE SMOOTH",
"162 408 OFFCURVE",
"155 425 OFFCURVE",
"155 455 CURVE SMOOTH",
"155 582 LINE",
"159 610 OFFCURVE",
"179 625 OFFCURVE",
"211 625 CURVE SMOOTH",
"257 625 LINE",
"257 718 LINE",
"51 718 LINE",
"52 717 LINE",
"52 0 LINE",
"155 0 LINE",
"155 266 LINE SMOOTH",
"155 296 OFFCURVE",
"162 313 OFFCURVE",
"192 313 CURVE SMOOTH",
"415 313 LINE SMOOTH",
"445 313 OFFCURVE",
"452 296 OFFCURVE",
"452 266 CURVE SMOOTH",
"452 150 LINE SMOOTH",
"452 113 OFFCURVE",
"432 93 OFFCURVE",
"395 93 CURVE SMOOTH",
"349 93 LINE",
"349 0 LINE",
"555 0 LINE",
"555 718 LINE",
"452 718 LINE"
);
}
);
width = 606;
}
);
leftKerningGroup = H.ss01;
leftMetricsKey = E;
rightKerningGroup = H.ss01;
rightMetricsKey = E;
},
{
color = 6;
glyphname = Hbar.ss01;
lastChange = "2018-03-29 21:51:41 +0000";
layers = (
{
anchors = (
{
name = bottom;
position = "{310, 0}";
},
{
name = center;
position = "{310, 359}";
},
{
name = top;
position = "{310, 718}";
},
{
name = topleft;
position = "{27, 718}";
}
);
layerId = "4068F5EB-61ED-493D-A7D9-97E487B445BB";
paths = (
{
closed = 1;
nodes = (
"562 556 LINE",
"562 718 LINE",
"459 718 LINE",
"459 556 LINE",
"162 556 LINE",
"162 582 LINE",
"166 610 OFFCURVE",
"186 625 OFFCURVE",
"218 625 CURVE SMOOTH",
"264 625 LINE",
"264 718 LINE",
"58 718 LINE",
"59 717 LINE",
"59 556 LINE",
"30 556 LINE",
"30 461 LINE",
"59 461 LINE",
"59 0 LINE",
"162 0 LINE",
"162 266 LINE SMOOTH",
"162 296 OFFCURVE",
"169 313 OFFCURVE",
"199 313 CURVE SMOOTH",
"422 313 LINE SMOOTH",
"452 313 OFFCURVE",
"459 296 OFFCURVE",
"459 266 CURVE SMOOTH",
"459 150 LINE SMOOTH",
"459 113 OFFCURVE",
"439 93 OFFCURVE",
"402 93 CURVE SMOOTH",
"356 93 LINE",
"356 0 LINE",
"562 0 LINE",
"562 461 LINE",
"590 461 LINE",
"590 556 LINE"
);
},
{
closed = 1;
nodes = (
"459 425 OFFCURVE",
"452 408 OFFCURVE",
"422 408 CURVE SMOOTH",
"199 408 LINE SMOOTH",
"169 408 OFFCURVE",
"162 425 OFFCURVE",
"162 455 CURVE SMOOTH",
"162 461 LINE",
"459 461 LINE",
"459 455 LINE SMOOTH"
);
}
);
width = 620;
}
);
leftKerningGroup = Hbar.ss01;
rightKerningGroup = Hbar.ss01;
},
{
color = 6;
glyphname = I.ss01;
lastChange = "2018-03-29 21:51:41 +0000";
layers = (
{
anchors = (
{
name = bottom;
position = "{208, 0}";
},
{
name = ogonek;
position = "{297, 0}";
},
{
name = top;
position = "{208, 718}";
},
{
name = topleft;
position = "{40, 718}";
}
);
layerId = "4068F5EB-61ED-493D-A7D9-97E487B445BB";
paths = (
{
closed = 1;
nodes = (
"259 611 OFFCURVE",
"271 623 OFFCURVE",
"291 623 CURVE SMOOTH",
"364 623 LINE",
"364 718 LINE",
"51 718 LINE",
"51 623 LINE",
"124 623 LINE SMOOTH",
"144 623 OFFCURVE",
"156 611 OFFCURVE",
"156 591 CURVE SMOOTH",
"156 127 LINE SMOOTH",
"156 107 OFFCURVE",
"144 95 OFFCURVE",
"124 95 CURVE SMOOTH",
"51 95 LINE",
"51 0 LINE",
"364 0 LINE",
"364 95 LINE",
"291 95 LINE SMOOTH",
"271 95 OFFCURVE",
"259 107 OFFCURVE",
"259 127 CURVE SMOOTH",
"259 591 LINE SMOOTH"
);
}
);
width = 415;
}
);
leftKerningGroup = I.ss01;
leftMetricsKey = E;
rightKerningGroup = I.ss01;
rightMetricsKey = E;
},
{
color = 6;
glyphname = Idblgrave.ss01;
lastChange = "2018-03-29 21:51:41 +0000";
layers = (
{
anchors = (
{
name = bottom;
position = "{188, 0}";
},
{
name = ogonek;
position = "{337, 10}";
},
{
name = top;
position = "{188, 718}";
},
{
name = topleft;
position = "{20, 718}";
}
);
layerId = "4068F5EB-61ED-493D-A7D9-97E487B445BB";
paths = (
{
closed = 1;
nodes = (
"81 791 OFFCURVE",
"108 759 OFFCURVE",
"153 759 CURVE SMOOTH",
"179 759 LINE",
"159 923 LINE",
"64 923 LINE",
"75 836 LINE SMOOTH"
);
},
{
closed = 1;
nodes = (
"211 791 OFFCURVE",
"238 759 OFFCURVE",
"283 759 CURVE SMOOTH",
"309 759 LINE",
"289 923 LINE",
"194 923 LINE",
"205 836 LINE SMOOTH"
);
},
{
closed = 1;
nodes = (
"239 611 OFFCURVE",
"251 623 OFFCURVE",
"271 623 CURVE SMOOTH",
"324 623 LINE",
"324 718 LINE",
"51 718 LINE",
"51 623 LINE",
"104 623 LINE SMOOTH",
"124 623 OFFCURVE",
"136 611 OFFCURVE",
"136 591 CURVE SMOOTH",
"136 127 LINE SMOOTH",
"136 107 OFFCURVE",
"124 95 OFFCURVE",
"104 95 CURVE SMOOTH",
"51 95 LINE",
"51 0 LINE",
"324 0 LINE",
"324 95 LINE",
"271 95 LINE SMOOTH",
"251 95 OFFCURVE",
"239 107 OFFCURVE",
"239 127 CURVE SMOOTH",
"239 591 LINE SMOOTH"
);
}
);
width = 375;
}
);
leftKerningGroup = Idblgrave.ss01;
rightKerningGroup = Idblgrave.ss01;
},
{
color = 6;
glyphname = Igrave.ss01;
lastChange = "2018-03-29 21:51:41 +0000";
layers = (
{
anchors = (
{
name = bottom;
position = "{188, 0}";
},
{
name = ogonek;
position = "{337, 10}";
},
{
name = top;
position = "{188, 718}";
},
{
name = topleft;
position = "{20, 718}";
}
);
layerId = "4068F5EB-61ED-493D-A7D9-97E487B445BB";
paths = (
{
closed = 1;
nodes = (
"143 798 OFFCURVE",
"176 766 OFFCURVE",
"221 766 CURVE SMOOTH",
"233 766 LINE",
"233 923 LINE",
"143 923 LINE",
"143 843 LINE SMOOTH"
);
},
{
closed = 1;
nodes = (
"239 611 OFFCURVE",
"251 623 OFFCURVE",
"271 623 CURVE SMOOTH",
"324 623 LINE",
"324 718 LINE",
"51 718 LINE",
"51 623 LINE",
"104 623 LINE SMOOTH",
"124 623 OFFCURVE",
"136 611 OFFCURVE",
"136 591 CURVE SMOOTH",
"136 127 LINE SMOOTH",
"136 107 OFFCURVE",
"124 95 OFFCURVE",
"104 95 CURVE SMOOTH",
"51 95 LINE",
"51 0 LINE",
"324 0 LINE",
"324 95 LINE",
"271 95 LINE SMOOTH",
"251 95 OFFCURVE",
"239 107 OFFCURVE",
"239 127 CURVE SMOOTH",
"239 591 LINE SMOOTH"
);
}
);
width = 375;
}
);
leftKerningGroup = Igrave.ss01;
rightKerningGroup = Igrave.ss01;
},
{
color = 6;
glyphname = J.ss01;
lastChange = "2018-03-29 21:51:41 +0000";
layers = (
{
anchors = (
{
name = bottom;
position = "{293, 0}";
},
{
name = top;
position = "{399, 718}";
}
);
layerId = "4068F5EB-61ED-493D-A7D9-97E487B445BB";
paths = (
{
closed = 1;
nodes = (
"196 718 LINE",
"196 623 LINE",
"399 623 LINE SMOOTH",
"419 623 OFFCURVE",
"431 611 OFFCURVE",
"431 591 CURVE SMOOTH",
"431 127 LINE SMOOTH",
"431 107 OFFCURVE",
"419 95 OFFCURVE",
"399 95 CURVE SMOOTH",
"186 95 LINE SMOOTH",
"166 95 OFFCURVE",
"154 107 OFFCURVE",
"154 127 CURVE SMOOTH",
"154 325 LINE",
"51 325 LINE",
"51 0 LINE",
"534 0 LINE",
"534 718 LINE"
);
}
);
width = 585;
}
);
leftKerningGroup = J.ss01;
leftMetricsKey = E;
rightKerningGroup = J.ss01;
rightMetricsKey = E;
},
{
color = 6;
glyphname = K.ss01;
lastChange = "2018-03-29 21:51:41 +0000";
layers = (
{
associatedMasterId = "4068F5EB-61ED-493D-A7D9-97E487B445BB";
layerId = "0BD49C9D-5E91-4F5B-B984-2F6687374BBD";
name = "Apr 2 17, 16:40";
paths = (
{
closed = 1;
nodes = (
"454 718 LINE",
"338 718 LINE",
"248 416 LINE",
"144 416 LINE",
"144 718 LINE",
"41 718 LINE",
"41 0 LINE",
"144 0 LINE",
"144 301 LINE",
"238 301 LINE",
"342 0 LINE",
"470 0 LINE",
"343 358 LINE"
);
},
{
closed = 1;
nodes = (
"522 622 LINE",
"522 717 LINE",
"366 717 LINE",
"366 622 LINE"
);
},
{
closed = 1;
nodes = (
"520 -1 LINE",
"520 94 LINE",
"386 94 LINE",
"385 -1 LINE"
);
}
);
width = 600;
},
{
associatedMasterId = "4068F5EB-61ED-493D-A7D9-97E487B445BB";
layerId = "7C3AFD03-EE0C-4281-B6C6-1A26A928A3E4";
name = "Apr 2 17, 16:49";
paths = (
{
closed = 1;
nodes = (
"616 647 LINE",
"511 718 LINE",
"369 416 LINE",
"315 416 LINE",
"315 718 LINE",
"212 718 LINE",
"212 0 LINE",
"315 0 LINE",
"315 301 LINE",
"359 301 LINE",
"451 95 LINE",
"559 127 LINE",
"432 358 LINE"
);
},
{
closed = 1;
nodes = (
"252 95 LINE",
"176 95 LINE SMOOTH",
"156 95 OFFCURVE",
"144 107 OFFCURVE",
"144 127 CURVE SMOOTH",
"144 205 LINE",
"41 205 LINE",
"41 0 LINE",
"252 0 LINE"
);
},
{
closed = 1;
nodes = (
"252 718 LINE",
"41 718 LINE",
"41 513 LINE",
"144 513 LINE",
"144 591 LINE SMOOTH",
"144 611 OFFCURVE",
"156 623 OFFCURVE",
"176 623 CURVE SMOOTH",
"252 623 LINE"
);
},
{
closed = 1;
nodes = (
"662 0 LINE",
"662 205 LINE",
"559 205 LINE",
"559 127 LINE",
"451 95 LINE",
"492 0 LINE"
);
},
{
closed = 1;
nodes = (
"527 623 LINE SMOOTH",
"547 623 OFFCURVE",
"559 611 OFFCURVE",
"559 591 CURVE SMOOTH",
"559 513 LINE",
"662 513 LINE",
"662 718 LINE",
"511 718 LINE",
"451 623 LINE"
);
}
);
width = 731;
},
{
anchors = (
{
name = bottom;
position = "{303, 0}";
},
{
name = top;
position = "{303, 718}";
}
);
layerId = "4068F5EB-61ED-493D-A7D9-97E487B445BB";
paths = (
{
closed = 1;
nodes = (
"553 457 LINE",
"553 718 LINE",
"440 718 LINE",
"440 498 LINE",
"317 408 LINE",
"191 408 LINE SMOOTH",
"161 408 OFFCURVE",
"154 425 OFFCURVE",
"154 455 CURVE SMOOTH",
"154 568 LINE SMOOTH",
"154 605 OFFCURVE",
"174 625 OFFCURVE",
"211 625 CURVE SMOOTH",
"267 625 LINE",
"267 718 LINE",
"51 718 LINE",
"51 0 LINE",
"267 0 LINE",
"267 93 LINE",
"211 93 LINE SMOOTH",
"174 93 OFFCURVE",
"154 113 OFFCURVE",
"154 150 CURVE SMOOTH",
"154 266 LINE SMOOTH",
"154 296 OFFCURVE",
"161 313 OFFCURVE",
"191 313 CURVE SMOOTH",
"314 313 LINE",
"441 231 LINE",
"441 0 LINE",
"554 0 LINE",
"554 277 LINE",
"420 362 LINE"
);
}
);
width = 605;
},
{
associatedMasterId = "4068F5EB-61ED-493D-A7D9-97E487B445BB";
layerId = "89BEB9FB-2B84-438B-A016-61BA406D9239";
name = "Apr 2 17, 16:40";
paths = (
{
closed = 1;
nodes = (
"454 718 LINE",
"338 718 LINE",
"248 416 LINE",
"144 416 LINE",
"144 718 LINE",
"41 718 LINE",
"41 0 LINE",
"144 0 LINE",
"144 301 LINE",
"238 301 LINE",
"342 0 LINE",
"470 0 LINE",
"343 358 LINE"
);
},
{
closed = 1;
nodes = (
"522 622 LINE",
"522 717 LINE",
"366 717 LINE",
"366 622 LINE"
);
},
{
closed = 1;
nodes = (
"520 -1 LINE",
"520 94 LINE",
"386 94 LINE",
"385 -1 LINE"
);
}
);
width = 600;
},
{
associatedMasterId = "4068F5EB-61ED-493D-A7D9-97E487B445BB";
layerId = "2AACEA9A-1E59-49E9-B36F-5990851EF71E";
name = "Apr 2 17, 16:49";
paths = (
{
closed = 1;
nodes = (
"616 647 LINE",
"511 718 LINE",
"369 416 LINE",
"315 416 LINE",
"315 718 LINE",
"212 718 LINE",
"212 0 LINE",
"315 0 LINE",
"315 301 LINE",
"359 301 LINE",
"451 95 LINE",
"559 127 LINE",
"432 358 LINE"
);
},
{
closed = 1;
nodes = (
"252 95 LINE",
"176 95 LINE SMOOTH",
"156 95 OFFCURVE",
"144 107 OFFCURVE",
"144 127 CURVE SMOOTH",
"144 205 LINE",
"41 205 LINE",
"41 0 LINE",
"252 0 LINE"
);
},
{
closed = 1;
nodes = (
"252 718 LINE",
"41 718 LINE",
"41 513 LINE",
"144 513 LINE",
"144 591 LINE SMOOTH",
"144 611 OFFCURVE",
"156 623 OFFCURVE",
"176 623 CURVE SMOOTH",
"252 623 LINE"
);
},
{
closed = 1;
nodes = (
"662 0 LINE",
"662 205 LINE",
"559 205 LINE",
"559 127 LINE",
"451 95 LINE",
"492 0 LINE"
);
},
{
closed = 1;
nodes = (
"527 623 LINE SMOOTH",
"547 623 OFFCURVE",
"559 611 OFFCURVE",
"559 591 CURVE SMOOTH",
"559 513 LINE",
"662 513 LINE",
"662 718 LINE",
"511 718 LINE",
"451 623 LINE"
);
}
);
width = 731;
}
);
leftKerningGroup = K.ss01;
leftMetricsKey = E;
rightKerningGroup = K.ss01;
rightMetricsKey = E;
},
{
color = 6;
glyphname = L.ss01;
lastChange = "2018-03-29 21:51:41 +0000";
layers = (
{
anchors = (
{
name = bottom;
position = "{293, 0}";
},
{
name = center;
position = "{293, 359}";
},
{
name = top;
position = "{154, 718}";
},
{
name = topright;
position = "{565, 718}";
}
);
layerId = "4068F5EB-61ED-493D-A7D9-97E487B445BB";
paths = (
{
closed = 1;
nodes = (
"431 127 LINE SMOOTH",
"431 107 OFFCURVE",
"419 95 OFFCURVE",
"399 95 CURVE SMOOTH",
"186 95 LINE SMOOTH",
"166 95 OFFCURVE",
"154 107 OFFCURVE",
"154 127 CURVE SMOOTH",
"154 591 LINE SMOOTH",
"154 611 OFFCURVE",
"166 623 OFFCURVE",
"186 623 CURVE SMOOTH",
"249 623 LINE",
"249 718 LINE",
"51 718 LINE",
"51 0 LINE",
"534 0 LINE",
"534 405 LINE",
"431 405 LINE"
);
}
);
width = 585;
}
);
leftKerningGroup = L.ss01;
leftMetricsKey = E;
rightKerningGroup = L.ss01;
rightMetricsKey = E;
},
{
color = 6;
glyphname = Lslash.ss01;
lastChange = "2018-03-29 21:51:41 +0000";
layers = (
{
anchors = (
{
name = bottom;
position = "{293, 0}";
},
{
name = center;
position = "{293, 359}";
},
{
name = top;
position = "{293, 718}";
},
{
name = topright;
position = "{565, 718}";
}
);
layerId = "4068F5EB-61ED-493D-A7D9-97E487B445BB";
paths = (
{
closed = 1;
nodes = (
"431 127 LINE SMOOTH",
"431 107 OFFCURVE",
"419 95 OFFCURVE",
"399 95 CURVE SMOOTH",
"186 95 LINE SMOOTH",
"166 95 OFFCURVE",
"154 107 OFFCURVE",
"154 127 CURVE SMOOTH",
"154 259 LINE",
"435 476 LINE",
"379 557 LINE",
"154 383 LINE",
"154 591 LINE SMOOTH",
"154 611 OFFCURVE",
"166 623 OFFCURVE",
"186 623 CURVE SMOOTH",
"249 623 LINE",
"249 718 LINE",
"51 718 LINE",
"51 0 LINE",
"534 0 LINE",
"534 345 LINE",
"431 345 LINE"
);
}
);
width = 585;
}
);
leftKerningGroup = Lslash.ss01;
leftMetricsKey = E;
rightKerningGroup = Lslash.ss01;
rightMetricsKey = E;
},
{
color = 6;
glyphname = M.ss01;
lastChange = "2018-03-29 21:51:41 +0000";
layers = (
{
anchors = (
{
name = bottom;
position = "{376, 0}";
},
{
name = top;
position = "{376, 718}";
}
);
layerId = "4068F5EB-61ED-493D-A7D9-97E487B445BB";
paths = (
{
closed = 1;
nodes = (
"376 586 LINE",
"273 718 LINE",
"51 718 LINE",
"51 0 LINE",
"231 0 LINE",
"231 95 LINE",
"188 95 LINE SMOOTH",
"168 95 OFFCURVE",
"156 107 OFFCURVE",
"156 127 CURVE SMOOTH",
"156 605 LINE",
"235 605 LINE",
"321 494 LINE",
"326 488 OFFCURVE",
"328 481 OFFCURVE",
"328 473 CURVE SMOOTH",
"328 120 LINE",
"423 120 LINE",
"423 473 LINE SMOOTH",
"423 481 OFFCURVE",
"425 488 OFFCURVE",
"430 494 CURVE",
"516 605 LINE",
"595 605 LINE",
"595 127 LINE SMOOTH",
"595 107 OFFCURVE",
"583 95 OFFCURVE",
"563 95 CURVE SMOOTH",
"520 95 LINE",
"520 0 LINE",
"700 0 LINE",
"700 718 LINE",
"478 718 LINE"
);
}
);
width = 751;
}
);
leftKerningGroup = M.ss01;
leftMetricsKey = E;
rightKerningGroup = M.ss01;
rightMetricsKey = E;
},
{
color = 6;
glyphname = N.ss01;
lastChange = "2018-03-29 21:51:41 +0000";
layers = (
{
anchors = (
{
name = bottom;
position = "{313, 0}";
},
{
name = top;
position = "{313, 718}";
}
);
layerId = "4068F5EB-61ED-493D-A7D9-97E487B445BB";
paths = (
{
closed = 1;
nodes = (
"372 625 LINE",
"414 625 LINE SMOOTH",
"451 625 OFFCURVE",
"471 605 OFFCURVE",
"471 568 CURVE SMOOTH",
"471 191 LINE",
"154 711 LINE",
"154 718 LINE",
"51 718 LINE",
"51 0 LINE",
"253 0 LINE",
"253 93 LINE",
"211 93 LINE SMOOTH",
"174 93 OFFCURVE",
"154 113 OFFCURVE",
"154 150 CURVE SMOOTH",
"154 519 LINE",
"471 0 LINE",
"574 0 LINE",
"574 718 LINE",
"372 718 LINE"
);
}
);
width = 625;
},
{
associatedMasterId = "4068F5EB-61ED-493D-A7D9-97E487B445BB";
layerId = "7953688F-9673-4E2B-A5FB-A06201B13CF1";
name = "Apr 3 17, 18:24";
paths = (
{
closed = 1;
nodes = (
"154 295 OFFCURVE",
"154 424 OFFCURVE",
"154 454 CURVE SMOOTH",
"154 718 LINE",
"51 718 LINE",
"51 0 LINE",
"303 0 LINE",
"303 93 LINE",
"211 93 LINE SMOOTH",
"174 93 OFFCURVE",
"154 113 OFFCURVE",
"154 150 CURVE SMOOTH",
"154 265 LINE SMOOTH"
);
},
{
closed = 1;
nodes = (
"480 424 OFFCURVE",
"480 295 OFFCURVE",
"480 265 CURVE SMOOTH",
"480 0 LINE",
"583 0 LINE",
"583 718 LINE",
"331 718 LINE",
"331 625 LINE",
"423 625 LINE SMOOTH",
"460 625 OFFCURVE",
"480 605 OFFCURVE",
"480 568 CURVE SMOOTH",
"480 454 LINE SMOOTH"
);
},
{
closed = 1;
nodes = (
"477 0 LINE",
"581 40 LINE",
"155 718 LINE",
"57 668 LINE"
);
}
);
width = 634;
},
{
associatedMasterId = "4068F5EB-61ED-493D-A7D9-97E487B445BB";
layerId = "DBC8857C-2657-4844-9CE7-51B7C592B32A";
name = "Apr 18 17, 22:30";
paths = (
{
closed = 1;
nodes = (
"331 625 LINE",
"423 625 LINE SMOOTH",
"460 625 OFFCURVE",
"480 605 OFFCURVE",
"480 568 CURVE SMOOTH",
"480 263 LINE SMOOTH",
"480 237 OFFCURVE",
"461 231 OFFCURVE",
"447 253 CURVE SMOOTH",
"155 718 LINE",
"154 717 LINE",
"154 718 LINE",
"51 718 LINE",
"51 0 LINE",
"303 0 LINE",
"303 93 LINE",
"211 93 LINE SMOOTH",
"174 93 OFFCURVE",
"154 113 OFFCURVE",
"154 150 CURVE SMOOTH",
"154 452 LINE SMOOTH",
"154 478 OFFCURVE",
"173 484 OFFCURVE",
"187 462 CURVE SMOOTH",
"477 0 LINE",
"480 1 LINE",
"480 0 LINE",
"583 0 LINE",
"583 718 LINE",
"331 718 LINE"
);
}
);
width = 634;
},
{
associatedMasterId = "4068F5EB-61ED-493D-A7D9-97E487B445BB";
layerId = "8DF33536-5DFC-4D6D-8AA1-30A30430B4F0";
name = "Apr 19 17, 00:31";
paths = (
{
closed = 1;
nodes = (
"272 625 LINE",
"294 625 LINE SMOOTH",
"331 625 OFFCURVE",
"351 605 OFFCURVE",
"351 568 CURVE SMOOTH",
"351 0 LINE",
"454 0 LINE",
"454 718 LINE",
"272 718 LINE"
);
},
{
closed = 1;
nodes = (
"233 93 LINE",
"211 93 LINE SMOOTH",
"174 93 OFFCURVE",
"154 113 OFFCURVE",
"154 150 CURVE SMOOTH",
"154 718 LINE",
"51 718 LINE",
"51 0 LINE",
"233 0 LINE"
);
},
{
closed = 1;
nodes = (
"88 501 LINE",
"369 134 LINE",
"431 217 LINE",
"150 584 LINE"
);
}
);
width = 504;
},
{
associatedMasterId = "4068F5EB-61ED-493D-A7D9-97E487B445BB";
layerId = "F16C8B43-463D-4794-BBAB-674DA9191977";
name = "Apr 3 17, 18:24";
paths = (
{
closed = 1;
nodes = (
"154 295 OFFCURVE",
"154 424 OFFCURVE",
"154 454 CURVE SMOOTH",
"154 718 LINE",
"51 718 LINE",
"51 0 LINE",
"303 0 LINE",
"303 93 LINE",
"211 93 LINE SMOOTH",
"174 93 OFFCURVE",
"154 113 OFFCURVE",
"154 150 CURVE SMOOTH",
"154 265 LINE SMOOTH"
);
},
{
closed = 1;
nodes = (
"480 424 OFFCURVE",
"480 295 OFFCURVE",
"480 265 CURVE SMOOTH",
"480 0 LINE",
"583 0 LINE",
"583 718 LINE",
"331 718 LINE",
"331 625 LINE",
"423 625 LINE SMOOTH",
"460 625 OFFCURVE",
"480 605 OFFCURVE",
"480 568 CURVE SMOOTH",
"480 454 LINE SMOOTH"
);
},
{
closed = 1;
nodes = (
"477 0 LINE",
"581 40 LINE",
"155 718 LINE",
"57 668 LINE"
);
}
);
width = 634;
},
{
associatedMasterId = "4068F5EB-61ED-493D-A7D9-97E487B445BB";
layerId = "30198A59-33B2-4A74-891D-3625B36F4605";
name = "Apr 18 17, 22:30";
paths = (
{
closed = 1;
nodes = (
"331 625 LINE",
"423 625 LINE SMOOTH",
"460 625 OFFCURVE",
"480 605 OFFCURVE",
"480 568 CURVE SMOOTH",
"480 263 LINE SMOOTH",
"480 237 OFFCURVE",
"461 231 OFFCURVE",
"447 253 CURVE SMOOTH",
"155 718 LINE",
"154 717 LINE",
"154 718 LINE",
"51 718 LINE",
"51 0 LINE",
"303 0 LINE",
"303 93 LINE",
"211 93 LINE SMOOTH",
"174 93 OFFCURVE",
"154 113 OFFCURVE",
"154 150 CURVE SMOOTH",
"154 452 LINE SMOOTH",
"154 478 OFFCURVE",
"173 484 OFFCURVE",
"187 462 CURVE SMOOTH",
"477 0 LINE",
"480 1 LINE",
"480 0 LINE",
"583 0 LINE",
"583 718 LINE",
"331 718 LINE"
);
}
);
width = 634;
},
{
associatedMasterId = "4068F5EB-61ED-493D-A7D9-97E487B445BB";
layerId = "894D8F42-9283-4018-8495-716E58FA22EC";
name = "Apr 19 17, 00:31";
paths = (
{
closed = 1;
nodes = (
"272 625 LINE",
"294 625 LINE SMOOTH",
"331 625 OFFCURVE",
"351 605 OFFCURVE",
"351 568 CURVE SMOOTH",
"351 0 LINE",
"454 0 LINE",
"454 718 LINE",
"272 718 LINE"
);
},
{
closed = 1;
nodes = (
"233 93 LINE",
"211 93 LINE SMOOTH",
"174 93 OFFCURVE",
"154 113 OFFCURVE",
"154 150 CURVE SMOOTH",
"154 718 LINE",
"51 718 LINE",
"51 0 LINE",
"233 0 LINE"
);
},
{
closed = 1;
nodes = (
"88 501 LINE",
"369 134 LINE",
"431 217 LINE",
"150 584 LINE"
);
}
);
width = 504;
}
);
leftKerningGroup = N.ss01;
leftMetricsKey = E;
rightKerningGroup = N.ss01;
rightMetricsKey = E;
},
{
color = 6;
glyphname = Eng.ss01;
lastChange = "2018-03-29 21:51:41 +0000";
layers = (
{
anchors = (
{
name = bottom;
position = "{313, 0}";
},
{
name = top;
position = "{313, 718}";
}
);
layerId = "4068F5EB-61ED-493D-A7D9-97E487B445BB";
paths = (
{
closed = 1;
nodes = (
"372 625 LINE",
"414 625 LINE SMOOTH",
"451 625 OFFCURVE",
"471 605 OFFCURVE",
"471 568 CURVE SMOOTH",
"471 191 LINE",
"154 711 LINE",
"154 718 LINE",
"51 718 LINE",
"51 0 LINE",
"253 0 LINE",
"253 93 LINE",
"211 93 LINE SMOOTH",
"174 93 OFFCURVE",
"154 113 OFFCURVE",
"154 150 CURVE SMOOTH",
"154 519 LINE",
"469 3 LINE",
"464 -23 OFFCURVE",
"445 -37 OFFCURVE",
"414 -37 CURVE SMOOTH",
"372 -37 LINE",
"372 -130 LINE",
"574 -130 LINE",
"574 718 LINE",
"372 718 LINE"
);
}
);
width = 625;
}
);
leftKerningGroup = Eng.ss01;
rightKerningGroup = Eng.ss01;
},
{
color = 6;
glyphname = O.ss01;
lastChange = "2018-03-29 21:51:41 +0000";
layers = (
{
anchors = (
{
name = bottom;
position = "{293, 0}";
},
{
name = center;
position = "{293, 359}";
},
{
name = ogonek;
position = "{379, 0}";
},
{
name = top;
position = "{293, 718}";
},
{
name = topleft;
position = "{20, 718}";
},
{
name = topright;
position = "{565, 718}";
}
);
layerId = "4068F5EB-61ED-493D-A7D9-97E487B445BB";
paths = (
{
closed = 1;
nodes = (
"51 718 LINE",
"51 0 LINE",
"534 0 LINE",
"534 718 LINE"
);
},
{
closed = 1;
nodes = (
"431 107 OFFCURVE",
"419 95 OFFCURVE",
"399 95 CURVE SMOOTH",
"186 95 LINE SMOOTH",
"166 95 OFFCURVE",
"154 107 OFFCURVE",
"154 127 CURVE SMOOTH",
"154 591 LINE SMOOTH",
"154 611 OFFCURVE",
"166 623 OFFCURVE",
"186 623 CURVE SMOOTH",
"399 623 LINE SMOOTH",
"419 623 OFFCURVE",
"431 611 OFFCURVE",
"431 591 CURVE SMOOTH",
"431 127 LINE SMOOTH"
);
}
);
width = 585;
}
);
leftKerningGroup = O.ss01;
leftMetricsKey = E;
rightKerningGroup = O.ss01;
rightMetricsKey = E;
},
{
color = 6;
glyphname = Odblgrave.ss01;
lastChange = "2018-03-29 21:51:41 +0000";
layers = (
{
anchors = (
{
name = bottom;
position = "{293, 0}";
},
{
name = center;
position = "{293, 359}";
},
{
name = ogonek;
position = "{526, 10}";
},
{
name = top;
position = "{293, 718}";
},
{
name = topleft;
position = "{20, 718}";
},
{
name = topright;
position = "{565, 718}";
}
);
layerId = "4068F5EB-61ED-493D-A7D9-97E487B445BB";
paths = (
{
closed = 1;
nodes = (
"186 791 OFFCURVE",
"213 759 OFFCURVE",
"258 759 CURVE SMOOTH",
"284 759 LINE",
"264 923 LINE",
"169 923 LINE",
"180 836 LINE SMOOTH"
);
},
{
closed = 1;
nodes = (
"316 791 OFFCURVE",
"343 759 OFFCURVE",
"388 759 CURVE SMOOTH",
"414 759 LINE",
"394 923 LINE",
"299 923 LINE",
"310 836 LINE SMOOTH"
);
},
{
closed = 1;
nodes = (
"51 718 LINE",
"51 0 LINE",
"534 0 LINE",
"534 718 LINE"
);
},
{
closed = 1;
nodes = (
"431 107 OFFCURVE",
"419 95 OFFCURVE",
"399 95 CURVE SMOOTH",
"186 95 LINE SMOOTH",
"166 95 OFFCURVE",
"154 107 OFFCURVE",
"154 127 CURVE SMOOTH",
"154 591 LINE SMOOTH",
"154 611 OFFCURVE",
"166 623 OFFCURVE",
"186 623 CURVE SMOOTH",
"399 623 LINE SMOOTH",
"419 623 OFFCURVE",
"431 611 OFFCURVE",
"431 591 CURVE SMOOTH",
"431 127 LINE SMOOTH"
);
}
);
width = 585;
}
);
leftKerningGroup = Odblgrave.ss01;
rightKerningGroup = Odblgrave.ss01;
},
{
color = 6;
glyphname = Ograve.ss01;
lastChange = "2018-03-29 21:51:41 +0000";
layers = (
{
anchors = (
{
name = bottom;
position = "{293, 0}";
},
{
name = center;
position = "{293, 359}";
},
{
name = ogonek;
position = "{526, 10}";
},
{
name = top;
position = "{293, 718}";
},
{
name = topleft;
position = "{20, 718}";
},
{
name = topright;
position = "{565, 718}";
}
);
layerId = "4068F5EB-61ED-493D-A7D9-97E487B445BB";
paths = (
{
closed = 1;
nodes = (
"248 798 OFFCURVE",
"281 766 OFFCURVE",
"326 766 CURVE SMOOTH",
"338 766 LINE",
"338 923 LINE",
"248 923 LINE",
"248 843 LINE SMOOTH"
);
},
{
closed = 1;
nodes = (
"51 718 LINE",
"51 0 LINE",
"534 0 LINE",
"534 718 LINE"
);
},
{
closed = 1;
nodes = (
"431 107 OFFCURVE",
"419 95 OFFCURVE",
"399 95 CURVE SMOOTH",
"186 95 LINE SMOOTH",
"166 95 OFFCURVE",
"154 107 OFFCURVE",
"154 127 CURVE SMOOTH",
"154 591 LINE SMOOTH",
"154 611 OFFCURVE",
"166 623 OFFCURVE",
"186 623 CURVE SMOOTH",
"399 623 LINE SMOOTH",
"419 623 OFFCURVE",
"431 611 OFFCURVE",
"431 591 CURVE SMOOTH",
"431 127 LINE SMOOTH"
);
}
);
width = 585;
}
);
leftKerningGroup = Ograve.ss01;
rightKerningGroup = Ograve.ss01;
},
{
color = 6;
glyphname = Oslash.ss01;
lastChange = "2018-03-29 21:51:41 +0000";
layers = (
{
anchors = (
{
name = bottom;
position = "{293, 0}";
},
{
name = center;
position = "{293, 359}";
},
{
name = ogonek;
position = "{526, 10}";
},
{
name = top;
position = "{293, 718}";
},
{
name = topleft;
position = "{20, 718}";
},
{
name = topright;
position = "{565, 718}";
}
);
layerId = "4068F5EB-61ED-493D-A7D9-97E487B445BB";
paths = (
{
closed = 1;
nodes = (
"51 718 LINE",
"51 0 LINE",
"534 0 LINE",
"534 718 LINE"
);
},
{
closed = 1;
nodes = (
"154 611 OFFCURVE",
"166 623 OFFCURVE",
"186 623 CURVE SMOOTH",
"378 623 LINE",
"154 196 LINE",
"154 591 LINE SMOOTH"
);
},
{
closed = 1;
nodes = (
"205 95 LINE",
"431 523 LINE",
"431 127 LINE SMOOTH",
"431 107 OFFCURVE",
"419 95 OFFCURVE",
"399 95 CURVE SMOOTH"
);
}
);
width = 585;
}
);
leftKerningGroup = Oslash.ss01;
rightKerningGroup = Oslash.ss01;
},
{
color = 6;
glyphname = OE.ss01;
lastChange = "2018-03-29 21:51:41 +0000";
layers = (
{
layerId = "4068F5EB-61ED-493D-A7D9-97E487B445BB";
paths = (
{
closed = 1;
nodes = (
"854 718 LINE",
"51 718 LINE",
"51 0 LINE",
"854 0 LINE",
"854 225 LINE",
"751 225 LINE",
"751 127 LINE SMOOTH",
"751 107 OFFCURVE",
"739 95 OFFCURVE",
"719 95 CURVE SMOOTH",
"536 95 LINE SMOOTH",
"516 95 OFFCURVE",
"504 107 OFFCURVE",
"504 127 CURVE SMOOTH",
"504 275 LINE SMOOTH",
"504 298 OFFCURVE",
"517 311 OFFCURVE",
"540 311 CURVE SMOOTH",
"706 311 LINE",
"706 406 LINE",
"540 406 LINE SMOOTH",
"517 406 OFFCURVE",
"504 419 OFFCURVE",
"504 442 CURVE SMOOTH",
"504 591 LINE SMOOTH",
"504 611 OFFCURVE",
"516 623 OFFCURVE",
"536 623 CURVE SMOOTH",
"719 623 LINE SMOOTH",
"739 623 OFFCURVE",
"751 615 OFFCURVE",
"751 591 CURVE SMOOTH",
"751 493 LINE",
"854 493 LINE"
);
},
{
closed = 1;
nodes = (
"401 107 OFFCURVE",
"389 95 OFFCURVE",
"369 95 CURVE SMOOTH",
"186 95 LINE SMOOTH",
"166 95 OFFCURVE",
"154 107 OFFCURVE",
"154 127 CURVE SMOOTH",
"154 591 LINE SMOOTH",
"154 611 OFFCURVE",
"166 623 OFFCURVE",
"186 623 CURVE SMOOTH",
"369 623 LINE SMOOTH",
"389 623 OFFCURVE",
"401 611 OFFCURVE",
"401 591 CURVE SMOOTH",
"401 127 LINE SMOOTH"
);
}
);
width = 905;
}
);
leftKerningGroup = OE.ss01;
rightKerningGroup = OE.ss01;
},
{
color = 6;
glyphname = P.ss01;
lastChange = "2018-03-29 21:51:41 +0000";
layers = (
{
anchors = (
{
name = bottom;
position = "{293, 0}";
},
{
name = top;
position = "{293, 718}";
}
);
layerId = "4068F5EB-61ED-493D-A7D9-97E487B445BB";
paths = (
{
closed = 1;
nodes = (
"51 718 LINE",
"51 0 LINE",
"154 0 LINE",
"154 174 LINE SMOOTH",
"154 204 OFFCURVE",
"161 221 OFFCURVE",
"191 221 CURVE SMOOTH",
"534 221 LINE",
"534 718 LINE"
);
},
{
closed = 1;
nodes = (
"161 316 OFFCURVE",
"154 333 OFFCURVE",
"154 363 CURVE SMOOTH",
"154 568 LINE SMOOTH",
"154 605 OFFCURVE",
"174 625 OFFCURVE",
"211 625 CURVE SMOOTH",
"431 625 LINE",
"431 316 LINE",
"191 316 LINE SMOOTH"
);
}
);
width = 585;
},
{
associatedMasterId = "4068F5EB-61ED-493D-A7D9-97E487B445BB";
layerId = "332391EF-ECB0-4D3D-BB2B-71CF9401941B";
name = "Apr 3 17, 12:57";
paths = (
{
closed = 1;
nodes = (
"485 390 LINE",
"485 718 LINE",
"372 718 LINE",
"372 433 LINE",
"252 316 LINE",
"191 316 LINE SMOOTH",
"161 316 OFFCURVE",
"154 333 OFFCURVE",
"154 363 CURVE SMOOTH",
"154 568 LINE SMOOTH",
"154 605 OFFCURVE",
"174 625 OFFCURVE",
"211 625 CURVE SMOOTH",
"413 625 LINE",
"413 718 LINE",
"51 718 LINE",
"51 0 LINE",
"154 0 LINE",
"154 174 LINE SMOOTH",
"154 204 OFFCURVE",
"161 221 OFFCURVE",
"191 221 CURVE SMOOTH",
"301 221 LINE"
);
}
);
width = 536;
},
{
associatedMasterId = "4068F5EB-61ED-493D-A7D9-97E487B445BB";
layerId = "DDE50C89-CD7D-4CE3-AC9C-AD17845E6EEB";
name = "Apr 3 17, 12:57";
paths = (
{
closed = 1;
nodes = (
"485 390 LINE",
"485 718 LINE",
"372 718 LINE",
"372 433 LINE",
"252 316 LINE",
"191 316 LINE SMOOTH",
"161 316 OFFCURVE",
"154 333 OFFCURVE",
"154 363 CURVE SMOOTH",
"154 568 LINE SMOOTH",
"154 605 OFFCURVE",
"174 625 OFFCURVE",
"211 625 CURVE SMOOTH",
"413 625 LINE",
"413 718 LINE",
"51 718 LINE",
"51 0 LINE",
"154 0 LINE",
"154 174 LINE SMOOTH",
"154 204 OFFCURVE",
"161 221 OFFCURVE",
"191 221 CURVE SMOOTH",
"301 221 LINE"
);
}
);
width = 536;
}
);
leftKerningGroup = P.ss01;
leftMetricsKey = E;
rightKerningGroup = P.ss01;
rightMetricsKey = E;
},
{
color = 6;
glyphname = Thorn.ss01;
lastChange = "2018-03-29 21:51:41 +0000";
layers = (
{
anchors = (
{
name = bottom;
position = "{188, 0}";
},
{
name = ogonek;
position = "{337, 10}";
},
{
name = top;
position = "{188, 718}";
},
{
name = topleft;
position = "{20, 718}";
}
);
layerId = "4068F5EB-61ED-493D-A7D9-97E487B445BB";
paths = (
{
closed = 1;
nodes = (
"559 189 LINE",
"559 556 LINE",
"239 556 LINE",
"239 591 LINE SMOOTH",
"239 611 OFFCURVE",
"251 623 OFFCURVE",
"271 623 CURVE SMOOTH",
"324 623 LINE",
"324 718 LINE",
"51 718 LINE",
"51 623 LINE",
"104 623 LINE SMOOTH",
"124 623 OFFCURVE",
"136 611 OFFCURVE",
"136 591 CURVE SMOOTH",
"136 127 LINE SMOOTH",
"136 107 OFFCURVE",
"124 95 OFFCURVE",
"104 95 CURVE SMOOTH",
"51 95 LINE",
"51 0 LINE",
"324 0 LINE",
"324 95 LINE",
"271 95 LINE SMOOTH",
"251 95 OFFCURVE",
"239 107 OFFCURVE",
"239 127 CURVE SMOOTH",
"239 142 LINE SMOOTH",
"239 172 OFFCURVE",
"246 189 OFFCURVE",
"276 189 CURVE SMOOTH"
);
},
{
closed = 1;
nodes = (
"456 463 LINE",
"456 284 LINE",
"276 284 LINE SMOOTH",
"246 284 OFFCURVE",
"239 301 OFFCURVE",
"239 331 CURVE SMOOTH",
"239 406 LINE SMOOTH",
"239 443 OFFCURVE",
"259 463 OFFCURVE",
"296 463 CURVE SMOOTH"
);
}
);
width = 610;
}
);
leftKerningGroup = Thorn.ss01;
rightKerningGroup = Thorn.ss01;
},
{
color = 6;
glyphname = Q.ss01;
lastChange = "2018-03-29 21:51:41 +0000";
layers = (
{
anchors = (
{
name = bottom;
position = "{293, 0}";
},
{
name = center;
position = "{293, 359}";
},
{
name = ogonek;
position = "{526, 10}";
},
{
name = top;
position = "{293, 718}";
},
{
name = topleft;
position = "{20, 718}";
},
{
name = topright;
position = "{565, 718}";
}
);
layerId = "4068F5EB-61ED-493D-A7D9-97E487B445BB";
paths = (
{
closed = 1;
nodes = (
"51 718 LINE",
"51 0 LINE",
"231 0 LINE",
"231 -110 LINE",
"354 -110 LINE",
"354 0 LINE",
"534 0 LINE",
"534 718 LINE"
);
},
{
closed = 1;
nodes = (
"431 107 OFFCURVE",
"419 95 OFFCURVE",
"399 95 CURVE SMOOTH",
"186 95 LINE SMOOTH",
"166 95 OFFCURVE",
"154 107 OFFCURVE",
"154 127 CURVE SMOOTH",
"154 591 LINE SMOOTH",
"154 611 OFFCURVE",
"166 623 OFFCURVE",
"186 623 CURVE SMOOTH",
"399 623 LINE SMOOTH",
"419 623 OFFCURVE",
"431 611 OFFCURVE",
"431 591 CURVE SMOOTH",
"431 127 LINE SMOOTH"
);
}
);
width = 585;
}
);
leftKerningGroup = Q.ss01;
leftMetricsKey = E;
rightKerningGroup = Q.ss01;
rightMetricsKey = E;
},
{
color = 6;
glyphname = R.ss01;
lastChange = "2018-03-29 21:51:41 +0000";
layers = (
{
anchors = (
{
name = bottom;
position = "{293, 0}";
},
{
name = top;
position = "{293, 718}";
}
);
layerId = "4068F5EB-61ED-493D-A7D9-97E487B445BB";
paths = (
{
closed = 1;
nodes = (
"51 718 LINE",
"51 0 LINE",
"237 0 LINE",
"237 93 LINE",
"211 93 LINE SMOOTH",
"174 93 OFFCURVE",
"154 113 OFFCURVE",
"154 150 CURVE SMOOTH",
"154 256 LINE SMOOTH",
"154 286 OFFCURVE",
"161 303 OFFCURVE",
"191 303 CURVE SMOOTH",
"294 303 LINE",
"421 221 LINE",
"421 0 LINE",
"534 0 LINE",
"534 267 LINE",
"400 352 LINE",
"534 447 LINE",
"534 718 LINE"
);
},
{
closed = 1;
nodes = (
"191 398 LINE SMOOTH",
"161 398 OFFCURVE",
"154 415 OFFCURVE",
"154 445 CURVE SMOOTH",
"154 568 LINE SMOOTH",
"154 605 OFFCURVE",
"174 625 OFFCURVE",
"211 625 CURVE SMOOTH",
"421 625 LINE",
"421 488 LINE",
"297 398 LINE"
);
}
);
width = 585;
}
);
leftKerningGroup = R.ss01;
leftMetricsKey = E;
rightKerningGroup = R.ss01;
rightMetricsKey = E;
},
{
color = 6;
glyphname = Rdblgrave.ss01;
lastChange = "2018-03-29 21:51:41 +0000";
layers = (
{
anchors = (
{
name = bottom;
position = "{293, 0}";
},
{
name = top;
position = "{293, 718}";
}
);
layerId = "4068F5EB-61ED-493D-A7D9-97E487B445BB";
paths = (
{
closed = 1;
nodes = (
"186 791 OFFCURVE",
"213 759 OFFCURVE",
"258 759 CURVE SMOOTH",
"284 759 LINE",
"264 923 LINE",
"169 923 LINE",
"180 836 LINE SMOOTH"
);
},
{
closed = 1;
nodes = (
"316 791 OFFCURVE",
"343 759 OFFCURVE",
"388 759 CURVE SMOOTH",
"414 759 LINE",
"394 923 LINE",
"299 923 LINE",
"310 836 LINE SMOOTH"
);
},
{
closed = 1;
nodes = (
"51 718 LINE",
"51 0 LINE",
"237 0 LINE",
"237 93 LINE",
"211 93 LINE SMOOTH",
"174 93 OFFCURVE",
"154 113 OFFCURVE",
"154 150 CURVE SMOOTH",
"154 256 LINE SMOOTH",
"154 286 OFFCURVE",
"161 303 OFFCURVE",
"191 303 CURVE SMOOTH",
"294 303 LINE",
"421 221 LINE",
"421 0 LINE",
"534 0 LINE",
"534 267 LINE",
"400 352 LINE",
"534 447 LINE",
"534 718 LINE"
);
},
{
closed = 1;
nodes = (
"191 398 LINE SMOOTH",
"161 398 OFFCURVE",
"154 415 OFFCURVE",
"154 445 CURVE SMOOTH",
"154 568 LINE SMOOTH",
"154 605 OFFCURVE",
"174 625 OFFCURVE",
"211 625 CURVE SMOOTH",
"421 625 LINE",
"421 488 LINE",
"297 398 LINE"
);
}
);
width = 585;
}
);
leftKerningGroup = Rdblgrave.ss01;
rightKerningGroup = Rdblgrave.ss01;
},
{
color = 6;
glyphname = S.ss01;
lastChange = "2018-03-29 21:51:41 +0000";
layers = (
{
anchors = (
{
name = bottom;
position = "{298, 0}";
},
{
name = top;
position = "{298, 718}";
}
);
layerId = "4068F5EB-61ED-493D-A7D9-97E487B445BB";
paths = (
{
closed = 1;
nodes = (
"544 718 LINE",
"55 718 LINE",
"55 308 LINE",
"375 308 LINE SMOOTH",
"418 308 OFFCURVE",
"441 284 OFFCURVE",
"441 242 CURVE SMOOTH",
"441 127 LINE SMOOTH",
"441 107 OFFCURVE",
"429 95 OFFCURVE",
"409 95 CURVE SMOOTH",
"186 95 LINE SMOOTH",
"166 95 OFFCURVE",
"154 107 OFFCURVE",
"154 127 CURVE SMOOTH",
"154 188 LINE",
"51 188 LINE",
"51 0 LINE",
"544 0 LINE",
"544 403 LINE",
"224 403 LINE SMOOTH",
"181 403 OFFCURVE",
"158 426 OFFCURVE",
"158 469 CURVE SMOOTH",
"158 591 LINE SMOOTH",
"158 611 OFFCURVE",
"170 623 OFFCURVE",
"190 623 CURVE SMOOTH",
"409 623 LINE SMOOTH",
"429 623 OFFCURVE",
"441 611 OFFCURVE",
"441 591 CURVE SMOOTH",
"441 513 LINE",
"544 513 LINE"
);
}
);
width = 595;
}
);
leftKerningGroup = S.ss01;
leftMetricsKey = E;
rightKerningGroup = S.ss01;
rightMetricsKey = E;
},
{
color = 6;
glyphname = Germandbls.ss01;
lastChange = "2018-03-29 21:55:09 +0000";
layers = (
{
layerId = "4068F5EB-61ED-493D-A7D9-97E487B445BB";
paths = (
{
closed = 1;
nodes = (
"584 447 LINE",
"584 718 LINE",
"51 718 LINE",
"51 0 LINE",
"154 0 LINE",
"154 568 LINE SMOOTH",
"154 605 OFFCURVE",
"174 625 OFFCURVE",
"211 625 CURVE SMOOTH",
"471 625 LINE",
"471 468 LINE",
"347 378 LINE",
"347 308 LINE",
"455 308 LINE SMOOTH",
"498 308 OFFCURVE",
"521 284 OFFCURVE",
"521 242 CURVE SMOOTH",
"521 127 LINE SMOOTH",
"521 107 OFFCURVE",
"509 95 OFFCURVE",
"489 95 CURVE SMOOTH",
"366 95 LINE SMOOTH",
"346 95 OFFCURVE",
"334 107 OFFCURVE",
"334 127 CURVE SMOOTH",
"334 178 LINE",
"231 178 LINE",
"231 0 LINE",
"624 0 LINE",
"624 403 LINE",
"522 403 LINE"
);
}
);
width = 675;
}
);
rightMetricsKey = H;
},
{
color = 6;
glyphname = Schwa.ss01;
lastChange = "2018-03-29 21:51:41 +0000";
layers = (
{
background = {
components = (
{
name = O.ss01;
}
);
};
layerId = "4068F5EB-61ED-493D-A7D9-97E487B445BB";
paths = (
{
closed = 1;
nodes = (
"51 718 LINE",
"51 543 LINE",
"154 543 LINE",
"154 591 LINE SMOOTH",
"154 611 OFFCURVE",
"166 623 OFFCURVE",
"186 623 CURVE SMOOTH",
"431 623 LINE",
"431 463 LINE SMOOTH",
"431 440 OFFCURVE",
"418 427 OFFCURVE",
"395 427 CURVE SMOOTH",
"51 427 LINE",
"51 0 LINE",
"534 0 LINE",
"534 718 LINE"
);
},
{
closed = 1;
nodes = (
"431 107 OFFCURVE",
"419 95 OFFCURVE",
"399 95 CURVE SMOOTH",
"186 95 LINE SMOOTH",
"166 95 OFFCURVE",
"154 103 OFFCURVE",
"154 127 CURVE SMOOTH",
"154 332 LINE",
"395 332 LINE SMOOTH",
"418 332 OFFCURVE",
"431 319 OFFCURVE",
"431 296 CURVE SMOOTH",
"431 127 LINE SMOOTH"
);
}
);
width = 585;
}
);
leftKerningGroup = Schwa.ss01;
rightKerningGroup = "40Schwa.ss01";
},
{
color = 6;
glyphname = T.ss01;
lastChange = "2018-03-29 21:51:41 +0000";
layers = (
{
anchors = (
{
name = bottom;
position = "{333, 0}";
},
{
name = center;
position = "{333, 359}";
},
{
name = top;
position = "{333, 718}";
}
);
layerId = "4068F5EB-61ED-493D-A7D9-97E487B445BB";
paths = (
{
closed = 1;
nodes = (
"614 718 LINE",
"51 718 LINE",
"51 332 LINE",
"153 332 LINE",
"153 591 LINE SMOOTH",
"153 611 OFFCURVE",
"165 623 OFFCURVE",
"185 623 CURVE SMOOTH",
"249 623 LINE SMOOTH",
"269 623 OFFCURVE",
"281 611 OFFCURVE",
"281 591 CURVE SMOOTH",
"281 95 LINE",
"111 95 LINE",
"111 0 LINE",
"553 0 LINE",
"553 95 LINE",
"384 95 LINE",
"384 591 LINE SMOOTH",
"384 611 OFFCURVE",
"396 623 OFFCURVE",
"416 623 CURVE SMOOTH",
"480 623 LINE SMOOTH",
"500 623 OFFCURVE",
"512 611 OFFCURVE",
"512 591 CURVE SMOOTH",
"512 332 LINE",
"614 332 LINE"
);
}
);
width = 665;
}
);
leftKerningGroup = T.ss01;
leftMetricsKey = E;
rightKerningGroup = T.ss01;
rightMetricsKey = E;
},
{
color = 6;
glyphname = Tbar.ss01;
lastChange = "2018-03-29 21:51:41 +0000";
layers = (
{
anchors = (
{
name = bottom;
position = "{333, 0}";
},
{
name = center;
position = "{333, 359}";
},
{
name = top;
position = "{333, 718}";
}
);
layerId = "4068F5EB-61ED-493D-A7D9-97E487B445BB";
paths = (
{
closed = 1;
nodes = (
"614 718 LINE",
"51 718 LINE",
"51 332 LINE",
"153 332 LINE",
"153 591 LINE SMOOTH",
"153 611 OFFCURVE",
"165 623 OFFCURVE",
"185 623 CURVE SMOOTH",
"249 623 LINE SMOOTH",
"269 623 OFFCURVE",
"281 611 OFFCURVE",
"281 591 CURVE SMOOTH",
"281 261 LINE",
"52 261 LINE",
"52 166 LINE",
"281 166 LINE",
"281 95 LINE",
"111 95 LINE",
"111 0 LINE",
"553 0 LINE",
"553 95 LINE",
"384 95 LINE",
"384 166 LINE",
"612 166 LINE",
"612 261 LINE",
"384 261 LINE",
"384 591 LINE SMOOTH",
"384 611 OFFCURVE",
"396 623 OFFCURVE",
"416 623 CURVE SMOOTH",
"480 623 LINE SMOOTH",
"500 623 OFFCURVE",
"512 611 OFFCURVE",
"512 591 CURVE SMOOTH",
"512 332 LINE",
"614 332 LINE"
);
}
);
width = 665;
}
);
leftKerningGroup = Tbar.ss01;
rightKerningGroup = Tbar.ss01;
},
{
color = 6;
glyphname = U.ss01;
lastChange = "2018-03-29 21:51:41 +0000";
layers = (
{
anchors = (
{
name = bottom;
position = "{293, 0}";
},
{
name = ogonek;
position = "{380, 0}";
},
{
name = top;
position = "{293, 718}";
},
{
name = topright;
position = "{565, 718}";
}
);
layerId = "4068F5EB-61ED-493D-A7D9-97E487B445BB";
paths = (
{
closed = 1;
nodes = (
"51 718 LINE",
"51 0 LINE",
"534 0 LINE",
"534 718 LINE",
"431 718 LINE",
"431 127 LINE SMOOTH",
"431 107 OFFCURVE",
"419 95 OFFCURVE",
"399 95 CURVE SMOOTH",
"186 95 LINE SMOOTH",
"166 95 OFFCURVE",
"154 107 OFFCURVE",
"154 127 CURVE SMOOTH",
"154 718 LINE"
);
}
);
width = 585;
}
);
leftKerningGroup = U.ss01;
leftMetricsKey = E;
rightKerningGroup = U.ss01;
rightMetricsKey = E;
},
{
color = 6;
glyphname = Udblgrave.ss01;
lastChange = "2018-03-29 21:51:41 +0000";
layers = (
{
anchors = (
{
name = bottom;
position = "{293, 0}";
},
{
name = ogonek;
position = "{526, 10}";
},
{
name = top;
position = "{293, 718}";
},
{
name = topright;
position = "{565, 718}";
}
);
layerId = "4068F5EB-61ED-493D-A7D9-97E487B445BB";
paths = (
{
closed = 1;
nodes = (
"186 791 OFFCURVE",
"213 759 OFFCURVE",
"258 759 CURVE SMOOTH",
"284 759 LINE",
"264 923 LINE",
"169 923 LINE",
"180 836 LINE SMOOTH"
);
},
{
closed = 1;
nodes = (
"316 791 OFFCURVE",
"343 759 OFFCURVE",
"388 759 CURVE SMOOTH",
"414 759 LINE",
"394 923 LINE",
"299 923 LINE",
"310 836 LINE SMOOTH"
);
},
{
closed = 1;
nodes = (
"51 718 LINE",
"51 0 LINE",
"534 0 LINE",
"534 718 LINE",
"431 718 LINE",
"431 127 LINE SMOOTH",
"431 107 OFFCURVE",
"419 95 OFFCURVE",
"399 95 CURVE SMOOTH",
"186 95 LINE SMOOTH",
"166 95 OFFCURVE",
"154 107 OFFCURVE",
"154 127 CURVE SMOOTH",
"154 718 LINE"
);
}
);
width = 585;
}
);
leftKerningGroup = Udblgrave.ss01;
rightKerningGroup = Udblgrave.ss01;
},
{
color = 6;
glyphname = Ugrave.ss01;
lastChange = "2018-03-29 21:51:41 +0000";
layers = (
{
anchors = (
{
name = bottom;
position = "{293, 0}";
},
{
name = ogonek;
position = "{526, 10}";
},
{
name = top;
position = "{293, 718}";
},
{
name = topright;
position = "{565, 718}";
}
);
layerId = "4068F5EB-61ED-493D-A7D9-97E487B445BB";
paths = (
{
closed = 1;
nodes = (
"248 798 OFFCURVE",
"281 766 OFFCURVE",
"326 766 CURVE SMOOTH",
"338 766 LINE",
"338 923 LINE",
"248 923 LINE",
"248 843 LINE SMOOTH"
);
},
{
closed = 1;
nodes = (
"51 718 LINE",
"51 0 LINE",
"534 0 LINE",
"534 718 LINE",
"431 718 LINE",
"431 127 LINE SMOOTH",
"431 107 OFFCURVE",
"419 95 OFFCURVE",
"399 95 CURVE SMOOTH",
"186 95 LINE SMOOTH",
"166 95 OFFCURVE",
"154 107 OFFCURVE",
"154 127 CURVE SMOOTH",
"154 718 LINE"
);
}
);
width = 585;
}
);
leftKerningGroup = Ugrave.ss01;
rightKerningGroup = Ugrave.ss01;
},
{
color = 6;
glyphname = V.ss01;
lastChange = "2018-03-29 21:51:41 +0000";
layers = (
{
anchors = (
{
name = bottom;
position = "{292, 0}";
},
{
name = top;
position = "{292, 718}";
}
);
layerId = "4068F5EB-61ED-493D-A7D9-97E487B445BB";
paths = (
{
closed = 1;
nodes = (
"384 0 LINE",
"533 240 LINE",
"533 718 LINE",
"430 718 LINE",
"430 264 LINE",
"326 96 LINE",
"258 96 LINE",
"154 264 LINE",
"154 718 LINE",
"51 718 LINE",
"51 240 LINE",
"200 0 LINE"
);
}
);
width = 584;
}
);
leftKerningGroup = V.ss01;
leftMetricsKey = E;
rightKerningGroup = V.ss01;
rightMetricsKey = E;
},
{
color = 6;
glyphname = W.ss01;
lastChange = "2018-03-29 21:51:41 +0000";
layers = (
{
anchors = (
{
name = bottom;
position = "{376, 0}";
},
{
name = top;
position = "{376, 718}";
}
);
layerId = "4068F5EB-61ED-493D-A7D9-97E487B445BB";
paths = (
{
closed = 1;
nodes = (
"550 718 LINE",
"550 623 LINE",
"563 623 LINE SMOOTH",
"583 623 OFFCURVE",
"595 611 OFFCURVE",
"595 591 CURVE SMOOTH",
"595 113 LINE",
"516 113 LINE",
"430 224 LINE",
"425 230 OFFCURVE",
"423 237 OFFCURVE",
"423 245 CURVE SMOOTH",
"423 718 LINE",
"328 718 LINE",
"328 245 LINE SMOOTH",
"328 237 OFFCURVE",
"326 230 OFFCURVE",
"321 224 CURVE",
"235 113 LINE",
"156 113 LINE",
"156 591 LINE SMOOTH",
"156 611 OFFCURVE",
"168 623 OFFCURVE",
"188 623 CURVE SMOOTH",
"201 623 LINE",
"201 718 LINE",
"51 718 LINE",
"51 0 LINE",
"273 0 LINE",
"376 132 LINE",
"478 0 LINE",
"700 0 LINE",
"700 718 LINE"
);
}
);
width = 751;
}
);
leftKerningGroup = W.ss01;
leftMetricsKey = E;
rightKerningGroup = W.ss01;
rightMetricsKey = E;
},
{
color = 6;
glyphname = Wgrave.ss01;
lastChange = "2018-03-29 21:51:41 +0000";
layers = (
{
anchors = (
{
name = bottom;
position = "{316, 0}";
},
{
name = top;
position = "{316, 718}";
}
);
layerId = "4068F5EB-61ED-493D-A7D9-97E487B445BB";
paths = (
{
closed = 1;
nodes = (
"271 798 OFFCURVE",
"304 766 OFFCURVE",
"349 766 CURVE SMOOTH",
"361 766 LINE",
"361 923 LINE",
"271 923 LINE",
"271 843 LINE SMOOTH"
);
},
{
closed = 1;
nodes = (
"430 718 LINE",
"430 623 LINE",
"443 623 LINE SMOOTH",
"463 623 OFFCURVE",
"475 611 OFFCURVE",
"475 591 CURVE SMOOTH",
"475 113 LINE",
"456 113 LINE",
"370 224 LINE",
"365 230 OFFCURVE",
"363 237 OFFCURVE",
"363 245 CURVE SMOOTH",
"363 623 LINE",
"268 623 LINE",
"268 245 LINE SMOOTH",
"268 237 OFFCURVE",
"266 230 OFFCURVE",
"261 224 CURVE",
"175 113 LINE",
"156 113 LINE",
"156 591 LINE SMOOTH",
"156 611 OFFCURVE",
"168 623 OFFCURVE",
"188 623 CURVE SMOOTH",
"201 623 LINE",
"201 718 LINE",
"51 718 LINE",
"51 0 LINE",
"213 0 LINE",
"316 132 LINE",
"418 0 LINE",
"580 0 LINE",
"580 718 LINE"
);
}
);
width = 631;
}
);
leftKerningGroup = Wgrave.ss01;
leftMetricsKey = H;
rightKerningGroup = Wgrave.ss01;
rightMetricsKey = H;
},
{
color = 6;
glyphname = X.ss01;
lastChange = "2018-03-29 21:51:41 +0000";
layers = (
{
anchors = (
{
name = bottom;
position = "{282, 0}";
},
{
name = top;
position = "{282, 718}";
}
);
layerId = "4068F5EB-61ED-493D-A7D9-97E487B445BB";
paths = (
{
closed = 1;
nodes = (
"410 718 LINE",
"410 594 LINE",
"282 404 LINE",
"154 594 LINE",
"154 718 LINE",
"51 718 LINE",
"51 570 LINE",
"194 360 LINE",
"51 149 LINE",
"51 0 LINE",
"154 0 LINE",
"154 125 LINE",
"282 315 LINE",
"410 125 LINE",
"410 0 LINE",
"513 0 LINE",
"513 149 LINE",
"370 360 LINE",
"513 570 LINE",
"513 718 LINE"
);
}
);
width = 564;
},
{
associatedMasterId = "4068F5EB-61ED-493D-A7D9-97E487B445BB";
layerId = "1E7C235B-BD96-4FFF-ABC3-BB459E26E285";
name = "Apr 19 17, 00:18";
paths = (
{
closed = 1;
nodes = (
"275 359 LINE",
"407 460 LINE",
"407 718 LINE",
"304 718 LINE",
"304 503 LINE",
"233 440 LINE",
"162 503 LINE",
"162 718 LINE",
"59 718 LINE",
"59 460 LINE",
"190 360 LINE",
"51 273 LINE",
"51 0 LINE",
"154 0 LINE",
"154 225 LINE",
"233 274 LINE",
"312 225 LINE",
"312 0 LINE",
"415 0 LINE",
"415 273 LINE"
);
}
);
width = 466;
},
{
associatedMasterId = "4068F5EB-61ED-493D-A7D9-97E487B445BB";
layerId = "FE8D391E-3C8C-49A2-B52B-264966A692A4";
name = "Apr 19 17, 00:18";
paths = (
{
closed = 1;
nodes = (
"275 359 LINE",
"407 460 LINE",
"407 718 LINE",
"304 718 LINE",
"304 503 LINE",
"233 440 LINE",
"162 503 LINE",
"162 718 LINE",
"59 718 LINE",
"59 460 LINE",
"190 360 LINE",
"51 273 LINE",
"51 0 LINE",
"154 0 LINE",
"154 225 LINE",
"233 274 LINE",
"312 225 LINE",
"312 0 LINE",
"415 0 LINE",
"415 273 LINE"
);
}
);
width = 466;
}
);
leftKerningGroup = X.ss01;
leftMetricsKey = E;
rightKerningGroup = X.ss01;
rightMetricsKey = E;
},
{
color = 6;
glyphname = Y.ss01;
lastChange = "2018-03-29 21:51:41 +0000";
layers = (
{
anchors = (
{
name = bottom;
position = "{305, 0}";
},
{
name = top;
position = "{305, 718}";
},
{
name = topleft;
position = "{30, 718}";
}
);
layerId = "4068F5EB-61ED-493D-A7D9-97E487B445BB";
paths = (
{
closed = 1;
nodes = (
"559 718 LINE",
"456 718 LINE",
"456 393 LINE",
"306 307 LINE",
"154 393 LINE",
"154 718 LINE",
"51 718 LINE",
"51 337 LINE",
"254 221 LINE",
"254 127 LINE SMOOTH",
"254 107 OFFCURVE",
"242 95 OFFCURVE",
"222 95 CURVE SMOOTH",
"159 95 LINE",
"159 0 LINE",
"452 0 LINE",
"452 95 LINE",
"389 95 LINE SMOOTH",
"369 95 OFFCURVE",
"357 107 OFFCURVE",
"357 127 CURVE SMOOTH",
"357 221 LINE",
"559 337 LINE"
);
}
);
width = 610;
}
);
leftKerningGroup = Y.ss01;
leftMetricsKey = E;
rightKerningGroup = Y.ss01;
rightMetricsKey = E;
},
{
color = 6;
glyphname = Ygrave.ss01;
lastChange = "2018-03-29 21:51:41 +0000";
layers = (
{
anchors = (
{
name = bottom;
position = "{305, 0}";
},
{
name = top;
position = "{305, 718}";
},
{
name = topleft;
position = "{30, 718}";
}
);
layerId = "4068F5EB-61ED-493D-A7D9-97E487B445BB";
paths = (
{
closed = 1;
nodes = (
"260 798 OFFCURVE",
"293 766 OFFCURVE",
"338 766 CURVE SMOOTH",
"350 766 LINE",
"350 923 LINE",
"260 923 LINE",
"260 843 LINE SMOOTH"
);
},
{
closed = 1;
nodes = (
"559 718 LINE",
"456 718 LINE",
"456 393 LINE",
"306 307 LINE",
"154 393 LINE",
"154 718 LINE",
"51 718 LINE",
"51 337 LINE",
"254 221 LINE",
"254 127 LINE SMOOTH",
"254 107 OFFCURVE",
"242 95 OFFCURVE",
"222 95 CURVE SMOOTH",
"159 95 LINE",
"159 0 LINE",
"452 0 LINE",
"452 95 LINE",
"389 95 LINE SMOOTH",
"369 95 OFFCURVE",
"357 107 OFFCURVE",
"357 127 CURVE SMOOTH",
"357 221 LINE",
"559 337 LINE"
);
}
);
width = 610;
}
);
leftKerningGroup = Ygrave.ss01;
rightKerningGroup = Ygrave.ss01;
},
{
color = 6;
glyphname = Z.ss01;
lastChange = "2018-03-29 21:51:41 +0000";
layers = (
{
anchors = (
{
name = bottom;
position = "{293, 0}";
},
{
name = top;
position = "{293, 718}";
}
);
layerId = "4068F5EB-61ED-493D-A7D9-97E487B445BB";
paths = (
{
closed = 1;
nodes = (
"431 127 LINE SMOOTH",
"431 107 OFFCURVE",
"419 95 OFFCURVE",
"399 95 CURVE SMOOTH",
"186 95 LINE SMOOTH",
"166 95 OFFCURVE",
"154 107 OFFCURVE",
"154 127 CURVE SMOOTH",
"154 242 LINE SMOOTH",
"154 284 OFFCURVE",
"177 308 OFFCURVE",
"220 308 CURVE SMOOTH",
"530 308 LINE",
"530 718 LINE",
"51 718 LINE",
"51 513 LINE",
"154 513 LINE",
"154 591 LINE SMOOTH",
"154 611 OFFCURVE",
"166 623 OFFCURVE",
"186 623 CURVE SMOOTH",
"395 623 LINE SMOOTH",
"415 623 OFFCURVE",
"427 611 OFFCURVE",
"427 591 CURVE SMOOTH",
"427 469 LINE SMOOTH",
"427 426 OFFCURVE",
"404 403 OFFCURVE",
"361 403 CURVE SMOOTH",
"51 403 LINE",
"51 0 LINE",
"534 0 LINE",
"534 188 LINE",
"431 188 LINE"
);
}
);
width = 585;
}
);
leftKerningGroup = Z.ss01;
leftMetricsKey = E;
rightKerningGroup = Z.ss01;
rightMetricsKey = E;
},
{
color = 4;
glyphname = A.ss02;
lastChange = "2018-03-29 21:51:48 +0000";
layers = (
{
anchors = (
{
name = bottom;
position = "{222, 0}";
},
{
name = ogonek;
position = "{394, 0}";
},
{
name = top;
position = "{222, 718}";
}
);
layerId = "4068F5EB-61ED-493D-A7D9-97E487B445BB";
paths = (
{
closed = 1;
nodes = (
"51 718 LINE",
"51 0 LINE",
"154 0 LINE",
"154 184 LINE SMOOTH",
"154 214 OFFCURVE",
"161 231 OFFCURVE",
"191 231 CURVE SMOOTH",
"253 231 LINE SMOOTH",
"283 231 OFFCURVE",
"290 214 OFFCURVE",
"290 184 CURVE SMOOTH",
"290 0 LINE",
"393 0 LINE",
"393 718 LINE"
);
},
{
closed = 1;
nodes = (
"290 343 OFFCURVE",
"283 326 OFFCURVE",
"253 326 CURVE SMOOTH",
"191 326 LINE SMOOTH",
"161 326 OFFCURVE",
"154 343 OFFCURVE",
"154 373 CURVE SMOOTH",
"154 568 LINE SMOOTH",
"154 605 OFFCURVE",
"174 625 OFFCURVE",
"211 625 CURVE SMOOTH",
"233 625 LINE SMOOTH",
"270 625 OFFCURVE",
"290 605 OFFCURVE",
"290 568 CURVE SMOOTH",
"290 373 LINE SMOOTH"
);
}
);
width = 444;
},
{
associatedMasterId = "4068F5EB-61ED-493D-A7D9-97E487B445BB";
layerId = "D8D5D010-A444-48C8-9FF4-65618D12DFC6";
name = "Apr 2 17, 16:50";
paths = (
{
closed = 1;
nodes = (
"404 718 LINE",
"141 718 LINE",
"51 1 LINE",
"154 0 LINE",
"224 591 LINE SMOOTH",
"226 611 OFFCURVE",
"236 623 OFFCURVE",
"256 623 CURVE SMOOTH",
"289 623 LINE SMOOTH",
"309 623 OFFCURVE",
"319 611 OFFCURVE",
"321 591 CURVE SMOOTH",
"391 0 LINE",
"494 0 LINE"
);
},
{
closed = 1;
nodes = (
"88 139 LINE",
"454 139 LINE",
"434 246 LINE",
"108 246 LINE"
);
}
);
width = 545;
},
{
associatedMasterId = "4068F5EB-61ED-493D-A7D9-97E487B445BB";
layerId = "FEF42308-E98A-4954-BF2E-4923C74EF026";
name = "Apr 19 17, 00:40";
paths = (
{
closed = 1;
nodes = (
"160 513 LINE",
"160 591 LINE SMOOTH",
"160 611 OFFCURVE",
"172 623 OFFCURVE",
"192 623 CURVE SMOOTH",
"319 623 LINE SMOOTH",
"339 623 OFFCURVE",
"351 611 OFFCURVE",
"351 591 CURVE SMOOTH",
"351 442 LINE SMOOTH",
"351 419 OFFCURVE",
"338 406 OFFCURVE",
"315 406 CURVE SMOOTH",
"79 406 LINE",
"79 311 LINE",
"315 311 LINE SMOOTH",
"338 311 OFFCURVE",
"351 298 OFFCURVE",
"351 275 CURVE SMOOTH",
"351 127 LINE SMOOTH",
"351 107 OFFCURVE",
"339 95 OFFCURVE",
"319 95 CURVE SMOOTH",
"186 95 LINE SMOOTH",
"166 95 OFFCURVE",
"154 107 OFFCURVE",
"154 127 CURVE SMOOTH",
"154 406 LINE",
"51 406 LINE",
"51 0 LINE",
"454 0 LINE",
"454 718 LINE",
"57 718 LINE",
"57 513 LINE"
);
}
);
width = 505;
},
{
associatedMasterId = "4068F5EB-61ED-493D-A7D9-97E487B445BB";
layerId = "7269D9B6-1A9B-4F58-BB3A-274F6AF12EC1";
name = "Apr 2 17, 16:50";
paths = (
{
closed = 1;
nodes = (
"404 718 LINE",
"141 718 LINE",
"51 1 LINE",
"154 0 LINE",
"224 591 LINE SMOOTH",
"226 611 OFFCURVE",
"236 623 OFFCURVE",
"256 623 CURVE SMOOTH",
"289 623 LINE SMOOTH",
"309 623 OFFCURVE",
"319 611 OFFCURVE",
"321 591 CURVE SMOOTH",
"391 0 LINE",
"494 0 LINE"
);
},
{
closed = 1;
nodes = (
"88 139 LINE",
"454 139 LINE",
"434 246 LINE",
"108 246 LINE"
);
}
);
width = 545;
},
{
associatedMasterId = "4068F5EB-61ED-493D-A7D9-97E487B445BB";
layerId = "9D493E9D-0076-40FE-A907-4671783F09D8";
name = "Apr 19 17, 00:40";
paths = (
{
closed = 1;
nodes = (
"160 513 LINE",
"160 591 LINE SMOOTH",
"160 611 OFFCURVE",
"172 623 OFFCURVE",
"192 623 CURVE SMOOTH",
"319 623 LINE SMOOTH",
"339 623 OFFCURVE",
"351 611 OFFCURVE",
"351 591 CURVE SMOOTH",
"351 442 LINE SMOOTH",
"351 419 OFFCURVE",
"338 406 OFFCURVE",
"315 406 CURVE SMOOTH",
"79 406 LINE",
"79 311 LINE",
"315 311 LINE SMOOTH",
"338 311 OFFCURVE",
"351 298 OFFCURVE",
"351 275 CURVE SMOOTH",
"351 127 LINE SMOOTH",
"351 107 OFFCURVE",
"339 95 OFFCURVE",
"319 95 CURVE SMOOTH",
"186 95 LINE SMOOTH",
"166 95 OFFCURVE",
"154 107 OFFCURVE",
"154 127 CURVE SMOOTH",
"154 406 LINE",
"51 406 LINE",
"51 0 LINE",
"454 0 LINE",
"454 718 LINE",
"57 718 LINE",
"57 513 LINE"
);
}
);
width = 505;
}
);
leftKerningGroup = A.ss02;
leftMetricsKey = E;
rightKerningGroup = A.ss02;
rightMetricsKey = E;
},
{
color = 4;
glyphname = Adblgrave.ss02;
lastChange = "2018-03-29 21:51:48 +0000";
layers = (
{
anchors = (
{
name = bottom;
position = "{222, 0}";
},
{
name = ogonek;
position = "{393, 10}";
},
{
name = top;
position = "{222, 718}";
}
);
layerId = "4068F5EB-61ED-493D-A7D9-97E487B445BB";
paths = (
{
closed = 1;
nodes = (
"115 791 OFFCURVE",
"142 759 OFFCURVE",
"187 759 CURVE SMOOTH",
"213 759 LINE",
"193 923 LINE",
"98 923 LINE",
"109 836 LINE SMOOTH"
);
},
{
closed = 1;
nodes = (
"245 791 OFFCURVE",
"272 759 OFFCURVE",
"317 759 CURVE SMOOTH",
"343 759 LINE",
"323 923 LINE",
"228 923 LINE",
"239 836 LINE SMOOTH"
);
},
{
closed = 1;
nodes = (
"51 718 LINE",
"51 0 LINE",
"154 0 LINE",
"154 184 LINE SMOOTH",
"154 214 OFFCURVE",
"161 231 OFFCURVE",
"191 231 CURVE SMOOTH",
"253 231 LINE SMOOTH",
"283 231 OFFCURVE",
"290 214 OFFCURVE",
"290 184 CURVE SMOOTH",
"290 0 LINE",
"393 0 LINE",
"393 718 LINE"
);
},
{
closed = 1;
nodes = (
"290 343 OFFCURVE",
"283 326 OFFCURVE",
"253 326 CURVE SMOOTH",
"191 326 LINE SMOOTH",
"161 326 OFFCURVE",
"154 343 OFFCURVE",
"154 373 CURVE SMOOTH",
"154 568 LINE SMOOTH",
"154 605 OFFCURVE",
"174 625 OFFCURVE",
"211 625 CURVE SMOOTH",
"233 625 LINE SMOOTH",
"270 625 OFFCURVE",
"290 605 OFFCURVE",
"290 568 CURVE SMOOTH",
"290 373 LINE SMOOTH"
);
}
);
width = 444;
}
);
leftKerningGroup = Adblgrave.ss02;
rightKerningGroup = Adblgrave.ss02;
},
{
color = 4;
glyphname = Agrave.ss02;
lastChange = "2018-03-29 21:51:48 +0000";
layers = (
{
anchors = (
{
name = bottom;
position = "{222, 0}";
},
{
name = ogonek;
position = "{393, 10}";
},
{
name = top;
position = "{222, 718}";
}
);
layerId = "4068F5EB-61ED-493D-A7D9-97E487B445BB";
paths = (
{
closed = 1;
nodes = (
"177 798 OFFCURVE",
"210 766 OFFCURVE",
"255 766 CURVE SMOOTH",
"267 766 LINE",
"267 923 LINE",
"177 923 LINE",
"177 843 LINE SMOOTH"
);
},
{
closed = 1;
nodes = (
"51 718 LINE",
"51 0 LINE",
"154 0 LINE",
"154 184 LINE SMOOTH",
"154 214 OFFCURVE",
"161 231 OFFCURVE",
"191 231 CURVE SMOOTH",
"253 231 LINE SMOOTH",
"283 231 OFFCURVE",
"290 214 OFFCURVE",
"290 184 CURVE SMOOTH",
"290 0 LINE",
"393 0 LINE",
"393 718 LINE"
);
},
{
closed = 1;
nodes = (
"290 343 OFFCURVE",
"283 326 OFFCURVE",
"253 326 CURVE SMOOTH",
"191 326 LINE SMOOTH",
"161 326 OFFCURVE",
"154 343 OFFCURVE",
"154 373 CURVE SMOOTH",
"154 568 LINE SMOOTH",
"154 605 OFFCURVE",
"174 625 OFFCURVE",
"211 625 CURVE SMOOTH",
"233 625 LINE SMOOTH",
"270 625 OFFCURVE",
"290 605 OFFCURVE",
"290 568 CURVE SMOOTH",
"290 373 LINE SMOOTH"
);
}
);
width = 444;
}
);
leftKerningGroup = Agrave.ss02;
rightKerningGroup = Agrave.ss02;
},
{
color = 4;
glyphname = AE.ss02;
lastChange = "2018-03-29 21:51:48 +0000";
layers = (
{
anchors = (
{
name = top;
position = "{322, 718}";
}
);
layerId = "4068F5EB-61ED-493D-A7D9-97E487B445BB";
paths = (
{
closed = 1;
nodes = (
"584 718 LINE",
"51 718 LINE",
"51 0 LINE",
"154 0 LINE",
"154 184 LINE SMOOTH",
"154 214 OFFCURVE",
"161 231 OFFCURVE",
"191 231 CURVE SMOOTH",
"233 231 LINE SMOOTH",
"263 231 OFFCURVE",
"270 214 OFFCURVE",
"270 184 CURVE SMOOTH",
"270 0 LINE",
"584 0 LINE",
"584 205 LINE",
"481 205 LINE",
"481 127 LINE SMOOTH",
"481 107 OFFCURVE",
"469 95 OFFCURVE",
"449 95 CURVE SMOOTH",
"406 95 LINE SMOOTH",
"386 95 OFFCURVE",
"374 107 OFFCURVE",
"374 127 CURVE SMOOTH",
"374 275 LINE SMOOTH",
"374 298 OFFCURVE",
"387 311 OFFCURVE",
"410 311 CURVE SMOOTH",
"536 311 LINE",
"536 406 LINE",
"410 406 LINE SMOOTH",
"387 406 OFFCURVE",
"374 419 OFFCURVE",
"374 442 CURVE SMOOTH",
"374 591 LINE SMOOTH",
"374 611 OFFCURVE",
"386 623 OFFCURVE",
"406 623 CURVE SMOOTH",
"449 623 LINE SMOOTH",
"469 623 OFFCURVE",
"481 615 OFFCURVE",
"481 591 CURVE SMOOTH",
"481 513 LINE",
"584 513 LINE"
);
},
{
closed = 1;
nodes = (
"270 343 OFFCURVE",
"263 326 OFFCURVE",
"233 326 CURVE SMOOTH",
"191 326 LINE SMOOTH",
"161 326 OFFCURVE",
"154 343 OFFCURVE",
"154 373 CURVE SMOOTH",
"154 568 LINE SMOOTH",
"154 605 OFFCURVE",
"174 625 OFFCURVE",
"211 625 CURVE SMOOTH",
"213 625 LINE SMOOTH",
"250 625 OFFCURVE",
"270 605 OFFCURVE",
"270 568 CURVE SMOOTH",
"270 373 LINE SMOOTH"
);
}
);
width = 635;
}
);
leftKerningGroup = AE.ss02;
rightKerningGroup = AE.ss02;
},
{
color = 4;
glyphname = B.ss02;
lastChange = "2018-03-29 21:51:48 +0000";
layers = (
{
anchors = (
{
name = bottom;
position = "{238, 0}";
},
{
name = top;
position = "{238, 718}";
}
);
layerId = "4068F5EB-61ED-493D-A7D9-97E487B445BB";
paths = (
{
closed = 1;
nodes = (
"393 452 LINE",
"393 718 LINE",
"51 718 LINE",
"51 0 LINE",
"394 0 LINE",
"394 282 LINE",
"270 362 LINE"
);
},
{
closed = 1;
nodes = (
"154 605 OFFCURVE",
"174 625 OFFCURVE",
"211 625 CURVE SMOOTH",
"290 625 LINE",
"290 496 LINE",
"170 408 LINE",
"154 408 LINE",
"154 568 LINE SMOOTH"
);
},
{
closed = 1;
nodes = (
"174 93 OFFCURVE",
"154 113 OFFCURVE",
"154 150 CURVE SMOOTH",
"154 313 LINE",
"167 313 LINE",
"291 233 LINE",
"291 93 LINE",
"211 93 LINE SMOOTH"
);
}
);
width = 445;
}
);
leftKerningGroup = B.ss02;
leftMetricsKey = E;
rightKerningGroup = B.ss02;
rightMetricsKey = E;
},
{
color = 4;
glyphname = C.ss02;
lastChange = "2018-03-29 21:51:48 +0000";
layers = (
{
anchors = (
{
name = bottom;
position = "{208, 0}";
},
{
name = top;
position = "{208, 718}";
}
);
layerId = "4068F5EB-61ED-493D-A7D9-97E487B445BB";
paths = (
{
closed = 1;
nodes = (
"51 0 LINE",
"364 0 LINE",
"364 255 LINE",
"261 255 LINE",
"261 127 LINE SMOOTH",
"261 107 OFFCURVE",
"249 95 OFFCURVE",
"229 95 CURVE SMOOTH",
"186 95 LINE SMOOTH",
"166 95 OFFCURVE",
"154 107 OFFCURVE",
"154 127 CURVE SMOOTH",
"154 591 LINE SMOOTH",
"154 611 OFFCURVE",
"166 623 OFFCURVE",
"186 623 CURVE SMOOTH",
"229 623 LINE SMOOTH",
"249 623 OFFCURVE",
"261 611 OFFCURVE",
"261 591 CURVE SMOOTH",
"261 463 LINE",
"364 463 LINE",
"364 718 LINE",
"51 718 LINE"
);
}
);
width = 415;
}
);
leftKerningGroup = C.ss02;
leftMetricsKey = E;
rightKerningGroup = C.ss02;
rightMetricsKey = E;
},
{
color = 4;
glyphname = D.ss02;
lastChange = "2018-03-29 21:51:48 +0000";
layers = (
{
anchors = (
{
name = bottom;
position = "{223, 0}";
},
{
name = center;
position = "{223, 359}";
},
{
name = top;
position = "{223, 718}";
}
);
layerId = "4068F5EB-61ED-493D-A7D9-97E487B445BB";
paths = (
{
closed = 1;
nodes = (
"51 718 LINE",
"51 0 LINE",
"273 0 LINE",
"394 116 LINE",
"394 602 LINE",
"273 718 LINE"
);
},
{
closed = 1;
nodes = (
"291 152 LINE",
"232 95 LINE",
"191 95 LINE SMOOTH",
"161 95 OFFCURVE",
"154 112 OFFCURVE",
"154 142 CURVE SMOOTH",
"154 576 LINE SMOOTH",
"154 606 OFFCURVE",
"161 623 OFFCURVE",
"191 623 CURVE SMOOTH",
"232 623 LINE",
"291 566 LINE"
);
}
);
width = 445;
}
);
leftKerningGroup = D.ss02;
leftMetricsKey = E;
rightKerningGroup = D.ss02;
rightMetricsKey = E;
},
{
color = 4;
glyphname = Eth.ss02;
lastChange = "2018-03-29 21:51:48 +0000";
layers = (
{
anchors = (
{
name = bottom;
position = "{223, 0}";
},
{
name = center;
position = "{223, 359}";
},
{
name = top;
position = "{223, 718}";
}
);
layerId = "4068F5EB-61ED-493D-A7D9-97E487B445BB";
paths = (
{
closed = 1;
nodes = (
"51 718 LINE",
"51 406 LINE",
"20 406 LINE",
"20 311 LINE",
"51 311 LINE",
"51 0 LINE",
"273 0 LINE",
"394 116 LINE",
"394 602 LINE",
"273 718 LINE"
);
},
{
closed = 1;
nodes = (
"232 95 LINE",
"191 95 LINE SMOOTH",
"161 95 OFFCURVE",
"154 112 OFFCURVE",
"154 142 CURVE SMOOTH",
"154 311 LINE",
"229 311 LINE",
"229 406 LINE",
"154 406 LINE",
"154 576 LINE SMOOTH",
"154 606 OFFCURVE",
"161 623 OFFCURVE",
"191 623 CURVE SMOOTH",
"232 623 LINE",
"291 566 LINE",
"291 152 LINE"
);
}
);
width = 445;
}
);
leftKerningGroup = Eth.ss02;
rightKerningGroup = Eth.ss02;
},
{
color = 4;
glyphname = E.ss02;
lastChange = "2018-03-29 21:51:48 +0000";
layers = (
{
anchors = (
{
name = bottom;
position = "{203, 0}";
},
{
name = ogonek;
position = "{354, 0}";
},
{
name = top;
position = "{203, 718}";
},
{
name = topleft;
position = "{20, 718}";
}
);
layerId = "4068F5EB-61ED-493D-A7D9-97E487B445BB";
paths = (
{
closed = 1;
nodes = (
"354 718 LINE",
"51 718 LINE",
"51 0 LINE",
"354 0 LINE",
"354 225 LINE",
"251 225 LINE",
"251 127 LINE SMOOTH",
"251 107 OFFCURVE",
"239 95 OFFCURVE",
"219 95 CURVE SMOOTH",
"186 95 LINE SMOOTH",
"166 95 OFFCURVE",
"154 107 OFFCURVE",
"154 127 CURVE SMOOTH",
"154 275 LINE SMOOTH",
"154 298 OFFCURVE",
"167 311 OFFCURVE",
"190 311 CURVE SMOOTH",
"352 311 LINE",
"352 406 LINE",
"190 406 LINE SMOOTH",
"167 406 OFFCURVE",
"154 419 OFFCURVE",
"154 442 CURVE SMOOTH",
"154 591 LINE SMOOTH",
"154 611 OFFCURVE",
"166 623 OFFCURVE",
"186 623 CURVE SMOOTH",
"219 623 LINE SMOOTH",
"239 623 OFFCURVE",
"251 615 OFFCURVE",
"251 591 CURVE SMOOTH",
"251 493 LINE",
"354 493 LINE"
);
}
);
width = 405;
}
);
leftKerningGroup = E.ss02;
leftMetricsKey = E;
rightKerningGroup = E.ss02;
rightMetricsKey = E;
},
{
color = 4;
glyphname = Edblgrave.ss02;
lastChange = "2018-03-29 21:51:48 +0000";
layers = (
{
anchors = (
{
name = bottom;
position = "{203, 0}";
},
{
name = ogonek;
position = "{364, 10}";
},
{
name = top;
position = "{203, 718}";
},
{
name = topleft;
position = "{20, 718}";
}
);
layerId = "4068F5EB-61ED-493D-A7D9-97E487B445BB";
paths = (
{
closed = 1;
nodes = (
"96 791 OFFCURVE",
"123 759 OFFCURVE",
"168 759 CURVE SMOOTH",
"194 759 LINE",
"174 923 LINE",
"79 923 LINE",
"90 836 LINE SMOOTH"
);
},
{
closed = 1;
nodes = (
"226 791 OFFCURVE",
"253 759 OFFCURVE",
"298 759 CURVE SMOOTH",
"324 759 LINE",
"304 923 LINE",
"209 923 LINE",
"220 836 LINE SMOOTH"
);
},
{
closed = 1;
nodes = (
"354 718 LINE",
"51 718 LINE",
"51 0 LINE",
"354 0 LINE",
"354 225 LINE",
"251 225 LINE",
"251 127 LINE SMOOTH",
"251 107 OFFCURVE",
"239 95 OFFCURVE",
"219 95 CURVE SMOOTH",
"186 95 LINE SMOOTH",
"166 95 OFFCURVE",
"154 107 OFFCURVE",
"154 127 CURVE SMOOTH",
"154 275 LINE SMOOTH",
"154 298 OFFCURVE",
"167 311 OFFCURVE",
"190 311 CURVE SMOOTH",
"352 311 LINE",
"352 406 LINE",
"190 406 LINE SMOOTH",
"167 406 OFFCURVE",
"154 419 OFFCURVE",
"154 442 CURVE SMOOTH",
"154 591 LINE SMOOTH",
"154 611 OFFCURVE",
"166 623 OFFCURVE",
"186 623 CURVE SMOOTH",
"219 623 LINE SMOOTH",
"239 623 OFFCURVE",
"251 615 OFFCURVE",
"251 591 CURVE SMOOTH",
"251 493 LINE",
"354 493 LINE"
);
}
);
width = 405;
}
);
leftKerningGroup = Edblgrave.ss02;
rightKerningGroup = Edblgrave.ss02;
},
{
color = 4;
glyphname = Egrave.ss02;
lastChange = "2018-03-29 21:51:48 +0000";
layers = (
{
anchors = (
{
name = bottom;
position = "{203, 0}";
},
{
name = ogonek;
position = "{364, 10}";
},
{
name = top;
position = "{203, 718}";
},
{
name = topleft;
position = "{20, 718}";
}
);
layerId = "4068F5EB-61ED-493D-A7D9-97E487B445BB";
paths = (
{
closed = 1;
nodes = (
"158 798 OFFCURVE",
"191 766 OFFCURVE",
"236 766 CURVE SMOOTH",
"248 766 LINE",
"248 923 LINE",
"158 923 LINE",
"158 843 LINE SMOOTH"
);
},
{
closed = 1;
nodes = (
"354 718 LINE",
"51 718 LINE",
"51 0 LINE",
"354 0 LINE",
"354 225 LINE",
"251 225 LINE",
"251 127 LINE SMOOTH",
"251 107 OFFCURVE",
"239 95 OFFCURVE",
"219 95 CURVE SMOOTH",
"186 95 LINE SMOOTH",
"166 95 OFFCURVE",
"154 107 OFFCURVE",
"154 127 CURVE SMOOTH",
"154 275 LINE SMOOTH",
"154 298 OFFCURVE",
"167 311 OFFCURVE",
"190 311 CURVE SMOOTH",
"352 311 LINE",
"352 406 LINE",
"190 406 LINE SMOOTH",
"167 406 OFFCURVE",
"154 419 OFFCURVE",
"154 442 CURVE SMOOTH",
"154 591 LINE SMOOTH",
"154 611 OFFCURVE",
"166 623 OFFCURVE",
"186 623 CURVE SMOOTH",
"219 623 LINE SMOOTH",
"239 623 OFFCURVE",
"251 615 OFFCURVE",
"251 591 CURVE SMOOTH",
"251 493 LINE",
"354 493 LINE"
);
}
);
width = 405;
}
);
leftKerningGroup = Egrave.ss02;
rightKerningGroup = Egrave.ss02;
},
{
color = 4;
glyphname = F.ss02;
lastChange = "2018-03-29 21:51:48 +0000";
layers = (
{
anchors = (
{
name = bottom;
position = "{198, 0}";
},
{
name = top;
position = "{198, 718}";
}
);
layerId = "4068F5EB-61ED-493D-A7D9-97E487B445BB";
paths = (
{
closed = 1;
nodes = (
"154 255 LINE SMOOTH",
"154 278 OFFCURVE",
"167 291 OFFCURVE",
"190 291 CURVE SMOOTH",
"344 291 LINE",
"344 386 LINE",
"190 386 LINE SMOOTH",
"167 386 OFFCURVE",
"154 399 OFFCURVE",
"154 422 CURVE SMOOTH",
"154 591 LINE SMOOTH",
"154 611 OFFCURVE",
"166 623 OFFCURVE",
"186 623 CURVE SMOOTH",
"209 623 LINE SMOOTH",
"229 623 OFFCURVE",
"241 615 OFFCURVE",
"241 591 CURVE SMOOTH",
"241 483 LINE",
"344 483 LINE",
"344 718 LINE",
"51 718 LINE",
"51 0 LINE",
"154 0 LINE"
);
}
);
width = 395;
}
);
leftKerningGroup = F.ss02;
leftMetricsKey = E;
rightKerningGroup = F.ss02;
rightMetricsKey = E;
},
{
color = 4;
glyphname = G.ss02;
lastChange = "2018-03-29 21:51:48 +0000";
layers = (
{
anchors = (
{
name = bottom;
position = "{218, 0}";
},
{
name = top;
position = "{218, 718}";
}
);
layerId = "4068F5EB-61ED-493D-A7D9-97E487B445BB";
paths = (
{
closed = 1;
nodes = (
"384 718 LINE",
"51 718 LINE",
"51 0 LINE",
"384 0 LINE",
"384 396 LINE",
"213 396 LINE",
"213 301 LINE",
"281 301 LINE",
"281 127 LINE SMOOTH",
"281 107 OFFCURVE",
"269 95 OFFCURVE",
"249 95 CURVE SMOOTH",
"186 95 LINE SMOOTH",
"166 95 OFFCURVE",
"154 107 OFFCURVE",
"154 127 CURVE SMOOTH",
"154 591 LINE SMOOTH",
"154 611 OFFCURVE",
"166 623 OFFCURVE",
"186 623 CURVE SMOOTH",
"249 623 LINE SMOOTH",
"269 623 OFFCURVE",
"281 611 OFFCURVE",
"281 591 CURVE SMOOTH",
"281 513 LINE",
"384 513 LINE"
);
}
);
width = 435;
}
);
leftKerningGroup = G.ss02;
leftMetricsKey = E;
rightKerningGroup = G.ss02;
rightMetricsKey = E;
},
{
color = 4;
glyphname = H.ss02;
lastChange = "2018-03-29 21:51:48 +0000";
layers = (
{
anchors = (
{
name = bottom;
position = "{233, 0}";
},
{
name = center;
position = "{233, 359}";
},
{
name = top;
position = "{233, 718}";
},
{
name = topleft;
position = "{20, 718}";
}
);
layerId = "4068F5EB-61ED-493D-A7D9-97E487B445BB";
paths = (
{
closed = 1;
nodes = (
"312 455 LINE SMOOTH",
"312 425 OFFCURVE",
"305 408 OFFCURVE",
"275 408 CURVE SMOOTH",
"192 408 LINE SMOOTH",
"162 408 OFFCURVE",
"155 425 OFFCURVE",
"155 455 CURVE SMOOTH",
"155 582 LINE",
"159 610 OFFCURVE",
"179 625 OFFCURVE",
"211 625 CURVE SMOOTH",
"237 625 LINE",
"237 718 LINE",
"51 718 LINE",
"52 717 LINE",
"52 0 LINE",
"155 0 LINE",
"155 266 LINE SMOOTH",
"155 296 OFFCURVE",
"162 313 OFFCURVE",
"192 313 CURVE SMOOTH",
"275 313 LINE SMOOTH",
"305 313 OFFCURVE",
"312 296 OFFCURVE",
"312 266 CURVE SMOOTH",
"312 150 LINE SMOOTH",
"312 113 OFFCURVE",
"292 93 OFFCURVE",
"255 93 CURVE SMOOTH",
"229 93 LINE",
"229 0 LINE",
"415 0 LINE",
"415 718 LINE",
"312 718 LINE"
);
}
);
width = 466;
}
);
leftKerningGroup = H.ss02;
leftMetricsKey = E;
rightKerningGroup = H.ss02;
rightMetricsKey = E;
},
{
color = 4;
glyphname = Hbar.ss02;
lastChange = "2018-03-29 21:51:48 +0000";
layers = (
{
anchors = (
{
name = bottom;
position = "{228, 0}";
},
{
name = center;
position = "{228, 359}";
},
{
name = top;
position = "{228, 718}";
},
{
name = topleft;
position = "{15, 718}";
}
);
layerId = "4068F5EB-61ED-493D-A7D9-97E487B445BB";
paths = (
{
closed = 1;
nodes = (
"410 566 LINE",
"410 718 LINE",
"307 718 LINE",
"307 566 LINE",
"150 566 LINE",
"150 582 LINE",
"154 610 OFFCURVE",
"174 625 OFFCURVE",
"206 625 CURVE SMOOTH",
"232 625 LINE",
"232 718 LINE",
"46 718 LINE",
"47 717 LINE",
"47 566 LINE",
"25 566 LINE",
"25 471 LINE",
"47 471 LINE",
"47 0 LINE",
"150 0 LINE",
"150 266 LINE SMOOTH",
"150 296 OFFCURVE",
"157 313 OFFCURVE",
"187 313 CURVE SMOOTH",
"270 313 LINE SMOOTH",
"300 313 OFFCURVE",
"307 296 OFFCURVE",
"307 266 CURVE SMOOTH",
"307 150 LINE SMOOTH",
"307 113 OFFCURVE",
"287 93 OFFCURVE",
"250 93 CURVE SMOOTH",
"224 93 LINE",
"224 0 LINE",
"410 0 LINE",
"410 471 LINE",
"430 471 LINE",
"430 566 LINE"
);
},
{
closed = 1;
nodes = (
"307 425 OFFCURVE",
"300 408 OFFCURVE",
"270 408 CURVE SMOOTH",
"187 408 LINE SMOOTH",
"157 408 OFFCURVE",
"150 425 OFFCURVE",
"150 455 CURVE SMOOTH",
"150 471 LINE",
"307 471 LINE",
"307 455 LINE SMOOTH"
);
}
);
width = 455;
}
);
leftKerningGroup = Hbar.ss02;
rightKerningGroup = Hbar.ss02;
},
{
color = 4;
glyphname = I.ss02;
lastChange = "2018-03-29 21:51:48 +0000";
layers = (
{
anchors = (
{
name = bottom;
position = "{148, 0}";
},
{
name = ogonek;
position = "{239, 0}";
},
{
name = top;
position = "{148, 718}";
},
{
name = topleft;
position = "{-40, 718}";
}
);
layerId = "4068F5EB-61ED-493D-A7D9-97E487B445BB";
paths = (
{
closed = 1;
nodes = (
"199 611 OFFCURVE",
"211 623 OFFCURVE",
"231 623 CURVE SMOOTH",
"244 623 LINE",
"244 718 LINE",
"51 718 LINE",
"51 623 LINE",
"64 623 LINE SMOOTH",
"84 623 OFFCURVE",
"96 611 OFFCURVE",
"96 591 CURVE SMOOTH",
"96 127 LINE SMOOTH",
"96 107 OFFCURVE",
"84 95 OFFCURVE",
"64 95 CURVE SMOOTH",
"51 95 LINE",
"51 0 LINE",
"244 0 LINE",
"244 95 LINE",
"231 95 LINE SMOOTH",
"211 95 OFFCURVE",
"199 107 OFFCURVE",
"199 127 CURVE SMOOTH",
"199 591 LINE SMOOTH"
);
}
);
width = 295;
}
);
leftKerningGroup = I.ss02;
leftMetricsKey = E;
rightKerningGroup = I.ss02;
rightMetricsKey = E;
},
{
color = 4;
glyphname = Idblgrave.ss02;
lastChange = "2018-03-29 21:51:48 +0000";
layers = (
{
anchors = (
{
name = bottom;
position = "{208, 0}";
},
{
name = ogonek;
position = "{373, 10}";
},
{
name = top;
position = "{208, 718}";
},
{
name = topleft;
position = "{20, 718}";
}
);
layerId = "4068F5EB-61ED-493D-A7D9-97E487B445BB";
paths = (
{
closed = 1;
nodes = (
"101 791 OFFCURVE",
"128 759 OFFCURVE",
"173 759 CURVE SMOOTH",
"199 759 LINE",
"179 923 LINE",
"84 923 LINE",
"95 836 LINE SMOOTH"
);
},
{
closed = 1;
nodes = (
"231 791 OFFCURVE",
"258 759 OFFCURVE",
"303 759 CURVE SMOOTH",
"329 759 LINE",
"309 923 LINE",
"214 923 LINE",
"225 836 LINE SMOOTH"
);
},
{
closed = 1;
nodes = (
"259 611 OFFCURVE",
"271 623 OFFCURVE",
"291 623 CURVE SMOOTH",
"364 623 LINE",
"364 718 LINE",
"51 718 LINE",
"51 623 LINE",
"124 623 LINE SMOOTH",
"144 623 OFFCURVE",
"156 611 OFFCURVE",
"156 591 CURVE SMOOTH",
"156 127 LINE SMOOTH",
"156 107 OFFCURVE",
"144 95 OFFCURVE",
"124 95 CURVE SMOOTH",
"51 95 LINE",
"51 0 LINE",
"364 0 LINE",
"364 95 LINE",
"291 95 LINE SMOOTH",
"271 95 OFFCURVE",
"259 107 OFFCURVE",
"259 127 CURVE SMOOTH",
"259 591 LINE SMOOTH"
);
}
);
width = 415;
}
);
leftKerningGroup = Idblgrave.ss02;
rightKerningGroup = Idblgrave.ss02;
},
{
color = 4;
glyphname = Igrave.ss02;
lastChange = "2018-03-29 21:51:48 +0000";
layers = (
{
anchors = (
{
name = bottom;
position = "{208, 0}";
},
{
name = ogonek;
position = "{373, 10}";
},
{
name = top;
position = "{208, 718}";
},
{
name = topleft;
position = "{20, 718}";
}
);
layerId = "4068F5EB-61ED-493D-A7D9-97E487B445BB";
paths = (
{
closed = 1;
nodes = (
"163 798 OFFCURVE",
"196 766 OFFCURVE",
"241 766 CURVE SMOOTH",
"253 766 LINE",
"253 923 LINE",
"163 923 LINE",
"163 843 LINE SMOOTH"
);
},
{
closed = 1;
nodes = (
"259 611 OFFCURVE",
"271 623 OFFCURVE",
"291 623 CURVE SMOOTH",
"364 623 LINE",
"364 718 LINE",
"51 718 LINE",
"51 623 LINE",
"124 623 LINE SMOOTH",
"144 623 OFFCURVE",
"156 611 OFFCURVE",
"156 591 CURVE SMOOTH",
"156 127 LINE SMOOTH",
"156 107 OFFCURVE",
"144 95 OFFCURVE",
"124 95 CURVE SMOOTH",
"51 95 LINE",
"51 0 LINE",
"364 0 LINE",
"364 95 LINE",
"291 95 LINE SMOOTH",
"271 95 OFFCURVE",
"259 107 OFFCURVE",
"259 127 CURVE SMOOTH",
"259 591 LINE SMOOTH"
);
}
);
width = 415;
}
);
leftKerningGroup = Igrave.ss02;
rightKerningGroup = Igrave.ss02;
},
{
color = 4;
glyphname = J.ss02;
lastChange = "2018-03-29 21:51:48 +0000";
layers = (
{
anchors = (
{
name = bottom;
position = "{203, 0}";
},
{
name = top;
position = "{203, 718}";
}
);
layerId = "4068F5EB-61ED-493D-A7D9-97E487B445BB";
paths = (
{
closed = 1;
nodes = (
"66 718 LINE",
"66 623 LINE",
"219 623 LINE SMOOTH",
"239 623 OFFCURVE",
"251 611 OFFCURVE",
"251 591 CURVE SMOOTH",
"251 127 LINE SMOOTH",
"251 107 OFFCURVE",
"239 95 OFFCURVE",
"219 95 CURVE SMOOTH",
"186 95 LINE SMOOTH",
"166 95 OFFCURVE",
"154 107 OFFCURVE",
"154 127 CURVE SMOOTH",
"154 325 LINE",
"51 325 LINE",
"51 0 LINE",
"354 0 LINE",
"354 718 LINE"
);
}
);
width = 405;
}
);
leftKerningGroup = J.ss02;
leftMetricsKey = E;
rightKerningGroup = J.ss02;
rightMetricsKey = E;
},
{
color = 4;
glyphname = K.ss02;
lastChange = "2018-03-29 21:51:48 +0000";
layers = (
{
associatedMasterId = "4068F5EB-61ED-493D-A7D9-97E487B445BB";
layerId = "0BD49C9D-5E91-4F5B-B984-2F6687374BBD";
name = "Apr 2 17, 16:40";
paths = (
{
closed = 1;
nodes = (
"454 718 LINE",
"338 718 LINE",
"248 416 LINE",
"144 416 LINE",
"144 718 LINE",
"41 718 LINE",
"41 0 LINE",
"144 0 LINE",
"144 301 LINE",
"238 301 LINE",
"342 0 LINE",
"470 0 LINE",
"343 358 LINE"
);
},
{
closed = 1;
nodes = (
"522 622 LINE",
"522 717 LINE",
"366 717 LINE",
"366 622 LINE"
);
},
{
closed = 1;
nodes = (
"520 -1 LINE",
"520 94 LINE",
"386 94 LINE",
"385 -1 LINE"
);
}
);
width = 600;
},
{
associatedMasterId = "4068F5EB-61ED-493D-A7D9-97E487B445BB";
layerId = "7C3AFD03-EE0C-4281-B6C6-1A26A928A3E4";
name = "Apr 2 17, 16:49";
paths = (
{
closed = 1;
nodes = (
"616 647 LINE",
"511 718 LINE",
"369 416 LINE",
"315 416 LINE",
"315 718 LINE",
"212 718 LINE",
"212 0 LINE",
"315 0 LINE",
"315 301 LINE",
"359 301 LINE",
"451 95 LINE",
"559 127 LINE",
"432 358 LINE"
);
},
{
closed = 1;
nodes = (
"252 95 LINE",
"176 95 LINE SMOOTH",
"156 95 OFFCURVE",
"144 107 OFFCURVE",
"144 127 CURVE SMOOTH",
"144 205 LINE",
"41 205 LINE",
"41 0 LINE",
"252 0 LINE"
);
},
{
closed = 1;
nodes = (
"252 718 LINE",
"41 718 LINE",
"41 513 LINE",
"144 513 LINE",
"144 591 LINE SMOOTH",
"144 611 OFFCURVE",
"156 623 OFFCURVE",
"176 623 CURVE SMOOTH",
"252 623 LINE"
);
},
{
closed = 1;
nodes = (
"662 0 LINE",
"662 205 LINE",
"559 205 LINE",
"559 127 LINE",
"451 95 LINE",
"492 0 LINE"
);
},
{
closed = 1;
nodes = (
"527 623 LINE SMOOTH",
"547 623 OFFCURVE",
"559 611 OFFCURVE",
"559 591 CURVE SMOOTH",
"559 513 LINE",
"662 513 LINE",
"662 718 LINE",
"511 718 LINE",
"451 623 LINE"
);
}
);
width = 731;
},
{
anchors = (
{
name = bottom;
position = "{243, 0}";
},
{
name = top;
position = "{243, 718}";
}
);
layerId = "4068F5EB-61ED-493D-A7D9-97E487B445BB";
paths = (
{
closed = 1;
nodes = (
"433 457 LINE",
"433 718 LINE",
"320 718 LINE",
"320 498 LINE",
"197 408 LINE",
"191 408 LINE SMOOTH",
"161 408 OFFCURVE",
"154 425 OFFCURVE",
"154 455 CURVE SMOOTH",
"154 568 LINE SMOOTH",
"154 605 OFFCURVE",
"174 625 OFFCURVE",
"211 625 CURVE SMOOTH",
"257 625 LINE",
"257 718 LINE",
"51 718 LINE",
"51 0 LINE",
"154 0 LINE",
"154 266 LINE SMOOTH",
"154 296 OFFCURVE",
"161 313 OFFCURVE",
"191 313 CURVE SMOOTH",
"194 313 LINE",
"321 231 LINE",
"321 150 LINE SMOOTH",
"321 113 OFFCURVE",
"301 93 OFFCURVE",
"264 93 CURVE SMOOTH",
"228 93 LINE",
"228 0 LINE",
"434 0 LINE",
"434 277 LINE",
"300 362 LINE"
);
}
);
width = 485;
},
{
associatedMasterId = "4068F5EB-61ED-493D-A7D9-97E487B445BB";
layerId = "BD84CD63-02F2-450E-8DF2-F4F900C3CF88";
name = "Apr 2 17, 16:40";
paths = (
{
closed = 1;
nodes = (
"454 718 LINE",
"338 718 LINE",
"248 416 LINE",
"144 416 LINE",
"144 718 LINE",
"41 718 LINE",
"41 0 LINE",
"144 0 LINE",
"144 301 LINE",
"238 301 LINE",
"342 0 LINE",
"470 0 LINE",
"343 358 LINE"
);
},
{
closed = 1;
nodes = (
"522 622 LINE",
"522 717 LINE",
"366 717 LINE",
"366 622 LINE"
);
},
{
closed = 1;
nodes = (
"520 -1 LINE",
"520 94 LINE",
"386 94 LINE",
"385 -1 LINE"
);
}
);
width = 600;
},
{
associatedMasterId = "4068F5EB-61ED-493D-A7D9-97E487B445BB";
layerId = "C6B82D1D-54B6-401A-8C0D-C48F4C91DEE7";
name = "Apr 2 17, 16:49";
paths = (
{
closed = 1;
nodes = (
"616 647 LINE",
"511 718 LINE",
"369 416 LINE",
"315 416 LINE",
"315 718 LINE",
"212 718 LINE",
"212 0 LINE",
"315 0 LINE",
"315 301 LINE",
"359 301 LINE",
"451 95 LINE",
"559 127 LINE",
"432 358 LINE"
);
},
{
closed = 1;
nodes = (
"252 95 LINE",
"176 95 LINE SMOOTH",
"156 95 OFFCURVE",
"144 107 OFFCURVE",
"144 127 CURVE SMOOTH",
"144 205 LINE",
"41 205 LINE",
"41 0 LINE",
"252 0 LINE"
);
},
{
closed = 1;
nodes = (
"252 718 LINE",
"41 718 LINE",
"41 513 LINE",
"144 513 LINE",
"144 591 LINE SMOOTH",
"144 611 OFFCURVE",
"156 623 OFFCURVE",
"176 623 CURVE SMOOTH",
"252 623 LINE"
);
},
{
closed = 1;
nodes = (
"662 0 LINE",
"662 205 LINE",
"559 205 LINE",
"559 127 LINE",
"451 95 LINE",
"492 0 LINE"
);
},
{
closed = 1;
nodes = (
"527 623 LINE SMOOTH",
"547 623 OFFCURVE",
"559 611 OFFCURVE",
"559 591 CURVE SMOOTH",
"559 513 LINE",
"662 513 LINE",
"662 718 LINE",
"511 718 LINE",
"451 623 LINE"
);
}
);
width = 731;
}
);
leftKerningGroup = K.ss02;
leftMetricsKey = E;
rightKerningGroup = K.ss02;
rightMetricsKey = E;
},
{
color = 4;
glyphname = L.ss02;
lastChange = "2018-03-29 21:51:48 +0000";
layers = (
{
anchors = (
{
name = bottom;
position = "{218, 0}";
},
{
name = center;
position = "{218, 359}";
},
{
name = top;
position = "{218, 718}";
},
{
name = topright;
position = "{415, 718}";
}
);
layerId = "4068F5EB-61ED-493D-A7D9-97E487B445BB";
paths = (
{
closed = 1;
nodes = (
"281 127 LINE SMOOTH",
"281 107 OFFCURVE",
"269 95 OFFCURVE",
"249 95 CURVE SMOOTH",
"186 95 LINE SMOOTH",
"166 95 OFFCURVE",
"154 107 OFFCURVE",
"154 127 CURVE SMOOTH",
"154 591 LINE SMOOTH",
"154 611 OFFCURVE",
"166 623 OFFCURVE",
"186 623 CURVE SMOOTH",
"249 623 LINE",
"249 718 LINE",
"51 718 LINE",
"51 0 LINE",
"384 0 LINE",
"384 455 LINE",
"281 455 LINE"
);
}
);
width = 435;
}
);
leftKerningGroup = L.ss02;
leftMetricsKey = E;
rightKerningGroup = L.ss02;
rightMetricsKey = E;
},
{
color = 4;
glyphname = Lslash.ss02;
lastChange = "2018-03-29 21:51:48 +0000";
layers = (
{
anchors = (
{
name = bottom;
position = "{218, 0}";
},
{
name = center;
position = "{218, 359}";
},
{
name = top;
position = "{218, 718}";
},
{
name = topright;
position = "{415, 718}";
}
);
layerId = "4068F5EB-61ED-493D-A7D9-97E487B445BB";
paths = (
{
closed = 1;
nodes = (
"281 107 OFFCURVE",
"269 95 OFFCURVE",
"249 95 CURVE SMOOTH",
"186 95 LINE SMOOTH",
"166 95 OFFCURVE",
"154 107 OFFCURVE",
"154 127 CURVE SMOOTH",
"154 259 LINE",
"386 438 LINE",
"330 519 LINE",
"154 383 LINE",
"154 591 LINE SMOOTH",
"154 611 OFFCURVE",
"166 623 OFFCURVE",
"186 623 CURVE SMOOTH",
"249 623 LINE",
"249 718 LINE",
"51 718 LINE",
"51 0 LINE",
"384 0 LINE",
"384 205 LINE",
"281 205 LINE",
"281 127 LINE SMOOTH"
);
}
);
width = 437;
}
);
leftKerningGroup = Lslash.ss02;
leftMetricsKey = E;
rightKerningGroup = Lslash.ss02;
rightMetricsKey = E;
},
{
color = 4;
glyphname = M.ss02;
lastChange = "2018-03-29 21:51:48 +0000";
layers = (
{
anchors = (
{
name = bottom;
position = "{316, 0}";
},
{
name = top;
position = "{316, 718}";
}
);
layerId = "4068F5EB-61ED-493D-A7D9-97E487B445BB";
paths = (
{
closed = 1;
nodes = (
"316 586 LINE",
"213 718 LINE",
"51 718 LINE",
"51 0 LINE",
"201 0 LINE",
"201 95 LINE",
"188 95 LINE SMOOTH",
"168 95 OFFCURVE",
"156 107 OFFCURVE",
"156 127 CURVE SMOOTH",
"156 605 LINE",
"175 605 LINE",
"261 494 LINE",
"266 488 OFFCURVE",
"268 481 OFFCURVE",
"268 473 CURVE SMOOTH",
"268 95 LINE",
"363 95 LINE",
"363 473 LINE SMOOTH",
"363 481 OFFCURVE",
"365 488 OFFCURVE",
"370 494 CURVE",
"456 605 LINE",
"475 605 LINE",
"475 127 LINE SMOOTH",
"475 107 OFFCURVE",
"463 95 OFFCURVE",
"443 95 CURVE SMOOTH",
"430 95 LINE",
"430 0 LINE",
"580 0 LINE",
"580 718 LINE",
"418 718 LINE"
);
}
);
width = 631;
}
);
leftKerningGroup = M.ss02;
leftMetricsKey = E;
rightKerningGroup = M.ss02;
rightMetricsKey = E;
},
{
color = 4;
glyphname = N.ss02;
lastChange = "2018-03-29 21:51:48 +0000";
layers = (
{
associatedMasterId = "4068F5EB-61ED-493D-A7D9-97E487B445BB";
layerId = "7953688F-9673-4E2B-A5FB-A06201B13CF1";
name = "Apr 3 17, 18:24";
paths = (
{
closed = 1;
nodes = (
"154 295 OFFCURVE",
"154 424 OFFCURVE",
"154 454 CURVE SMOOTH",
"154 718 LINE",
"51 718 LINE",
"51 0 LINE",
"303 0 LINE",
"303 93 LINE",
"211 93 LINE SMOOTH",
"174 93 OFFCURVE",
"154 113 OFFCURVE",
"154 150 CURVE SMOOTH",
"154 265 LINE SMOOTH"
);
},
{
closed = 1;
nodes = (
"480 424 OFFCURVE",
"480 295 OFFCURVE",
"480 265 CURVE SMOOTH",
"480 0 LINE",
"583 0 LINE",
"583 718 LINE",
"331 718 LINE",
"331 625 LINE",
"423 625 LINE SMOOTH",
"460 625 OFFCURVE",
"480 605 OFFCURVE",
"480 568 CURVE SMOOTH",
"480 454 LINE SMOOTH"
);
},
{
closed = 1;
nodes = (
"477 0 LINE",
"581 40 LINE",
"155 718 LINE",
"57 668 LINE"
);
}
);
width = 634;
},
{
associatedMasterId = "4068F5EB-61ED-493D-A7D9-97E487B445BB";
layerId = "DBC8857C-2657-4844-9CE7-51B7C592B32A";
name = "Apr 18 17, 22:30";
paths = (
{
closed = 1;
nodes = (
"331 625 LINE",
"423 625 LINE SMOOTH",
"460 625 OFFCURVE",
"480 605 OFFCURVE",
"480 568 CURVE SMOOTH",
"480 263 LINE SMOOTH",
"480 237 OFFCURVE",
"461 231 OFFCURVE",
"447 253 CURVE SMOOTH",
"155 718 LINE",
"154 717 LINE",
"154 718 LINE",
"51 718 LINE",
"51 0 LINE",
"303 0 LINE",
"303 93 LINE",
"211 93 LINE SMOOTH",
"174 93 OFFCURVE",
"154 113 OFFCURVE",
"154 150 CURVE SMOOTH",
"154 452 LINE SMOOTH",
"154 478 OFFCURVE",
"173 484 OFFCURVE",
"187 462 CURVE SMOOTH",
"477 0 LINE",
"480 1 LINE",
"480 0 LINE",
"583 0 LINE",
"583 718 LINE",
"331 718 LINE"
);
}
);
width = 634;
},
{
associatedMasterId = "4068F5EB-61ED-493D-A7D9-97E487B445BB";
layerId = "FDFF5C70-39A2-4FAD-BC72-80FF1330B3A8";
name = "Apr 19 17, 12:15";
paths = (
{
closed = 1;
nodes = (
"242 625 LINE",
"294 625 LINE SMOOTH",
"331 625 OFFCURVE",
"351 605 OFFCURVE",
"351 568 CURVE SMOOTH",
"351 0 LINE",
"454 0 LINE",
"454 718 LINE",
"242 718 LINE"
);
},
{
closed = 1;
nodes = (
"263 93 LINE",
"211 93 LINE SMOOTH",
"174 93 OFFCURVE",
"154 113 OFFCURVE",
"154 150 CURVE SMOOTH",
"154 718 LINE",
"51 718 LINE",
"51 0 LINE",
"263 0 LINE"
);
},
{
closed = 1;
nodes = (
"89 609 LINE",
"351 0 LINE",
"411 110 LINE",
"150 718 LINE"
);
}
);
width = 505;
},
{
anchors = (
{
name = bottom;
position = "{252, 0}";
},
{
name = top;
position = "{252, 718}";
}
);
layerId = "4068F5EB-61ED-493D-A7D9-97E487B445BB";
paths = (
{
closed = 1;
nodes = (
"272 625 LINE",
"294 625 LINE SMOOTH",
"331 625 OFFCURVE",
"351 605 OFFCURVE",
"351 568 CURVE SMOOTH",
"351 321 LINE",
"154 579 LINE",
"154 718 LINE",
"51 718 LINE",
"51 0 LINE",
"233 0 LINE",
"233 93 LINE",
"211 93 LINE SMOOTH",
"174 93 OFFCURVE",
"154 113 OFFCURVE",
"154 150 CURVE SMOOTH",
"154 415 LINE",
"351 158 LINE",
"351 0 LINE",
"454 0 LINE",
"454 718 LINE",
"272 718 LINE"
);
}
);
width = 505;
},
{
associatedMasterId = "4068F5EB-61ED-493D-A7D9-97E487B445BB";
layerId = "2429E393-E478-4848-A1CB-563E91A8D95C";
name = "Apr 3 17, 18:24";
paths = (
{
closed = 1;
nodes = (
"154 295 OFFCURVE",
"154 424 OFFCURVE",
"154 454 CURVE SMOOTH",
"154 718 LINE",
"51 718 LINE",
"51 0 LINE",
"303 0 LINE",
"303 93 LINE",
"211 93 LINE SMOOTH",
"174 93 OFFCURVE",
"154 113 OFFCURVE",
"154 150 CURVE SMOOTH",
"154 265 LINE SMOOTH"
);
},
{
closed = 1;
nodes = (
"480 424 OFFCURVE",
"480 295 OFFCURVE",
"480 265 CURVE SMOOTH",
"480 0 LINE",
"583 0 LINE",
"583 718 LINE",
"331 718 LINE",
"331 625 LINE",
"423 625 LINE SMOOTH",
"460 625 OFFCURVE",
"480 605 OFFCURVE",
"480 568 CURVE SMOOTH",
"480 454 LINE SMOOTH"
);
},
{
closed = 1;
nodes = (
"477 0 LINE",
"581 40 LINE",
"155 718 LINE",
"57 668 LINE"
);
}
);
width = 634;
},
{
associatedMasterId = "4068F5EB-61ED-493D-A7D9-97E487B445BB";
layerId = "FAA134F0-BC36-4EA0-9821-63F8632BD25F";
name = "Apr 18 17, 22:30";
paths = (
{
closed = 1;
nodes = (
"331 625 LINE",
"423 625 LINE SMOOTH",
"460 625 OFFCURVE",
"480 605 OFFCURVE",
"480 568 CURVE SMOOTH",
"480 263 LINE SMOOTH",
"480 237 OFFCURVE",
"461 231 OFFCURVE",
"447 253 CURVE SMOOTH",
"155 718 LINE",
"154 717 LINE",
"154 718 LINE",
"51 718 LINE",
"51 0 LINE",
"303 0 LINE",
"303 93 LINE",
"211 93 LINE SMOOTH",
"174 93 OFFCURVE",
"154 113 OFFCURVE",
"154 150 CURVE SMOOTH",
"154 452 LINE SMOOTH",
"154 478 OFFCURVE",
"173 484 OFFCURVE",
"187 462 CURVE SMOOTH",
"477 0 LINE",
"480 1 LINE",
"480 0 LINE",
"583 0 LINE",
"583 718 LINE",
"331 718 LINE"
);
}
);
width = 634;
},
{
associatedMasterId = "4068F5EB-61ED-493D-A7D9-97E487B445BB";
layerId = "F7D699F7-FF97-4B6D-BEF9-01C695D0306B";
name = "Apr 19 17, 12:15";
paths = (
{
closed = 1;
nodes = (
"242 625 LINE",
"294 625 LINE SMOOTH",
"331 625 OFFCURVE",
"351 605 OFFCURVE",
"351 568 CURVE SMOOTH",
"351 0 LINE",
"454 0 LINE",
"454 718 LINE",
"242 718 LINE"
);
},
{
closed = 1;
nodes = (
"263 93 LINE",
"211 93 LINE SMOOTH",
"174 93 OFFCURVE",
"154 113 OFFCURVE",
"154 150 CURVE SMOOTH",
"154 718 LINE",
"51 718 LINE",
"51 0 LINE",
"263 0 LINE"
);
},
{
closed = 1;
nodes = (
"89 609 LINE",
"351 0 LINE",
"411 110 LINE",
"150 718 LINE"
);
}
);
width = 505;
}
);
leftKerningGroup = N.ss02;
leftMetricsKey = E;
rightKerningGroup = N.ss02;
rightMetricsKey = E;
},
{
color = 4;
glyphname = Eng.ss02;
lastChange = "2018-03-29 21:51:48 +0000";
layers = (
{
anchors = (
{
name = bottom;
position = "{252, 0}";
},
{
name = top;
position = "{252, 718}";
}
);
layerId = "4068F5EB-61ED-493D-A7D9-97E487B445BB";
paths = (
{
closed = 1;
nodes = (
"272 625 LINE",
"294 625 LINE SMOOTH",
"331 625 OFFCURVE",
"351 605 OFFCURVE",
"351 568 CURVE SMOOTH",
"351 321 LINE",
"154 579 LINE",
"154 718 LINE",
"51 718 LINE",
"51 0 LINE",
"233 0 LINE",
"233 93 LINE",
"211 93 LINE SMOOTH",
"174 93 OFFCURVE",
"154 113 OFFCURVE",
"154 150 CURVE SMOOTH",
"154 415 LINE",
"351 158 LINE",
"351 20 LINE SMOOTH",
"351 -17 OFFCURVE",
"331 -37 OFFCURVE",
"294 -37 CURVE SMOOTH",
"272 -37 LINE",
"272 -130 LINE",
"454 -130 LINE",
"454 718 LINE",
"272 718 LINE"
);
}
);
width = 505;
}
);
leftKerningGroup = Eng.ss02;
rightKerningGroup = Eng.ss02;
},
{
color = 4;
glyphname = O.ss02;
lastChange = "2018-03-29 21:51:48 +0000";
layers = (
{
anchors = (
{
name = bottom;
position = "{213, 0}";
},
{
name = center;
position = "{213, 359}";
},
{
name = ogonek;
position = "{301, 0}";
},
{
name = top;
position = "{213, 718}";
},
{
name = topleft;
position = "{20, 718}";
},
{
name = topright;
position = "{405, 718}";
}
);
layerId = "4068F5EB-61ED-493D-A7D9-97E487B445BB";
paths = (
{
closed = 1;
nodes = (
"51 718 LINE",
"51 0 LINE",
"374 0 LINE",
"374 718 LINE"
);
},
{
closed = 1;
nodes = (
"271 107 OFFCURVE",
"259 95 OFFCURVE",
"239 95 CURVE SMOOTH",
"186 95 LINE SMOOTH",
"166 95 OFFCURVE",
"154 107 OFFCURVE",
"154 127 CURVE SMOOTH",
"154 591 LINE SMOOTH",
"154 611 OFFCURVE",
"166 623 OFFCURVE",
"186 623 CURVE SMOOTH",
"239 623 LINE SMOOTH",
"259 623 OFFCURVE",
"271 611 OFFCURVE",
"271 591 CURVE SMOOTH",
"271 127 LINE SMOOTH"
);
}
);
width = 425;
}
);
leftKerningGroup = O.ss02;
leftMetricsKey = E;
rightKerningGroup = O.ss02;
rightMetricsKey = E;
},
{
color = 4;
glyphname = Odblgrave.ss02;
lastChange = "2018-03-29 21:51:48 +0000";
layers = (
{
anchors = (
{
name = bottom;
position = "{213, 0}";
},
{
name = center;
position = "{213, 359}";
},
{
name = ogonek;
position = "{382, 10}";
},
{
name = top;
position = "{213, 718}";
},
{
name = topleft;
position = "{20, 718}";
},
{
name = topright;
position = "{405, 718}";
}
);
layerId = "4068F5EB-61ED-493D-A7D9-97E487B445BB";
paths = (
{
closed = 1;
nodes = (
"106 791 OFFCURVE",
"133 759 OFFCURVE",
"178 759 CURVE SMOOTH",
"204 759 LINE",
"184 923 LINE",
"89 923 LINE",
"100 836 LINE SMOOTH"
);
},
{
closed = 1;
nodes = (
"236 791 OFFCURVE",
"263 759 OFFCURVE",
"308 759 CURVE SMOOTH",
"334 759 LINE",
"314 923 LINE",
"219 923 LINE",
"230 836 LINE SMOOTH"
);
},
{
closed = 1;
nodes = (
"51 718 LINE",
"51 0 LINE",
"374 0 LINE",
"374 718 LINE"
);
},
{
closed = 1;
nodes = (
"271 107 OFFCURVE",
"259 95 OFFCURVE",
"239 95 CURVE SMOOTH",
"186 95 LINE SMOOTH",
"166 95 OFFCURVE",
"154 107 OFFCURVE",
"154 127 CURVE SMOOTH",
"154 591 LINE SMOOTH",
"154 611 OFFCURVE",
"166 623 OFFCURVE",
"186 623 CURVE SMOOTH",
"239 623 LINE SMOOTH",
"259 623 OFFCURVE",
"271 611 OFFCURVE",
"271 591 CURVE SMOOTH",
"271 127 LINE SMOOTH"
);
}
);
width = 425;
}
);
leftKerningGroup = Odblgrave.ss02;
rightKerningGroup = Odblgrave.ss02;
},
{
color = 4;
glyphname = Ograve.ss02;
lastChange = "2018-03-29 21:51:48 +0000";
layers = (
{
anchors = (
{
name = bottom;
position = "{213, 0}";
},
{
name = center;
position = "{213, 359}";
},
{
name = ogonek;
position = "{382, 10}";
},
{
name = top;
position = "{213, 718}";
},
{
name = topleft;
position = "{20, 718}";
},
{
name = topright;
position = "{405, 718}";
}
);
layerId = "4068F5EB-61ED-493D-A7D9-97E487B445BB";
paths = (
{
closed = 1;
nodes = (
"168 798 OFFCURVE",
"201 766 OFFCURVE",
"246 766 CURVE SMOOTH",
"258 766 LINE",
"258 923 LINE",
"168 923 LINE",
"168 843 LINE SMOOTH"
);
},
{
closed = 1;
nodes = (
"51 718 LINE",
"51 0 LINE",
"374 0 LINE",
"374 718 LINE"
);
},
{
closed = 1;
nodes = (
"271 107 OFFCURVE",
"259 95 OFFCURVE",
"239 95 CURVE SMOOTH",
"186 95 LINE SMOOTH",
"166 95 OFFCURVE",
"154 107 OFFCURVE",
"154 127 CURVE SMOOTH",
"154 591 LINE SMOOTH",
"154 611 OFFCURVE",
"166 623 OFFCURVE",
"186 623 CURVE SMOOTH",
"239 623 LINE SMOOTH",
"259 623 OFFCURVE",
"271 611 OFFCURVE",
"271 591 CURVE SMOOTH",
"271 127 LINE SMOOTH"
);
}
);
width = 425;
}
);
leftKerningGroup = Ograve.ss02;
rightKerningGroup = Ograve.ss02;
},
{
color = 4;
glyphname = Oslash.ss02;
lastChange = "2018-03-29 21:51:48 +0000";
layers = (
{
anchors = (
{
name = bottom;
position = "{213, 0}";
},
{
name = center;
position = "{213, 359}";
},
{
name = ogonek;
position = "{382, 10}";
},
{
name = top;
position = "{213, 718}";
},
{
name = topleft;
position = "{20, 718}";
},
{
name = topright;
position = "{405, 718}";
}
);
layerId = "4068F5EB-61ED-493D-A7D9-97E487B445BB";
paths = (
{
closed = 1;
nodes = (
"51 718 LINE",
"51 152 LINE",
"-29 0 LINE",
"374 0 LINE",
"374 566 LINE",
"454 718 LINE"
);
},
{
closed = 1;
nodes = (
"154 611 OFFCURVE",
"166 623 OFFCURVE",
"186 623 CURVE SMOOTH",
"239 623 LINE SMOOTH",
"259 623 OFFCURVE",
"271 611 OFFCURVE",
"271 591 CURVE SMOOTH",
"271 571 LINE",
"154 349 LINE",
"154 591 LINE SMOOTH"
);
},
{
closed = 1;
nodes = (
"271 107 OFFCURVE",
"259 95 OFFCURVE",
"239 95 CURVE SMOOTH",
"186 95 LINE SMOOTH",
"166 95 OFFCURVE",
"154 107 OFFCURVE",
"154 127 CURVE SMOOTH",
"154 150 LINE",
"271 371 LINE",
"271 127 LINE SMOOTH"
);
}
);
width = 425;
}
);
leftKerningGroup = Oslash.ss02;
rightKerningGroup = Oslash.ss02;
},
{
color = 4;
glyphname = P.ss02;
lastChange = "2018-03-29 21:51:48 +0000";
layers = (
{
anchors = (
{
name = bottom;
position = "{228, 0}";
},
{
name = top;
position = "{228, 718}";
}
);
layerId = "4068F5EB-61ED-493D-A7D9-97E487B445BB";
paths = (
{
closed = 1;
nodes = (
"51 718 LINE",
"51 0 LINE",
"154 0 LINE",
"154 174 LINE SMOOTH",
"154 204 OFFCURVE",
"161 221 OFFCURVE",
"191 221 CURVE SMOOTH",
"404 221 LINE",
"404 718 LINE"
);
},
{
closed = 1;
nodes = (
"161 316 OFFCURVE",
"154 333 OFFCURVE",
"154 363 CURVE SMOOTH",
"154 568 LINE SMOOTH",
"154 605 OFFCURVE",
"174 625 OFFCURVE",
"211 625 CURVE SMOOTH",
"301 625 LINE",
"301 316 LINE",
"191 316 LINE SMOOTH"
);
}
);
width = 455;
},
{
associatedMasterId = "4068F5EB-61ED-493D-A7D9-97E487B445BB";
layerId = "332391EF-ECB0-4D3D-BB2B-71CF9401941B";
name = "Apr 3 17, 12:57";
paths = (
{
closed = 1;
nodes = (
"485 390 LINE",
"485 718 LINE",
"372 718 LINE",
"372 433 LINE",
"252 316 LINE",
"191 316 LINE SMOOTH",
"161 316 OFFCURVE",
"154 333 OFFCURVE",
"154 363 CURVE SMOOTH",
"154 568 LINE SMOOTH",
"154 605 OFFCURVE",
"174 625 OFFCURVE",
"211 625 CURVE SMOOTH",
"413 625 LINE",
"413 718 LINE",
"51 718 LINE",
"51 0 LINE",
"154 0 LINE",
"154 174 LINE SMOOTH",
"154 204 OFFCURVE",
"161 221 OFFCURVE",
"191 221 CURVE SMOOTH",
"301 221 LINE"
);
}
);
width = 536;
},
{
associatedMasterId = "4068F5EB-61ED-493D-A7D9-97E487B445BB";
layerId = "1B9A3477-E67E-4528-AC3A-559732BF8742";
name = "Apr 3 17, 12:57";
paths = (
{
closed = 1;
nodes = (
"485 390 LINE",
"485 718 LINE",
"372 718 LINE",
"372 433 LINE",
"252 316 LINE",
"191 316 LINE SMOOTH",
"161 316 OFFCURVE",
"154 333 OFFCURVE",
"154 363 CURVE SMOOTH",
"154 568 LINE SMOOTH",
"154 605 OFFCURVE",
"174 625 OFFCURVE",
"211 625 CURVE SMOOTH",
"413 625 LINE",
"413 718 LINE",
"51 718 LINE",
"51 0 LINE",
"154 0 LINE",
"154 174 LINE SMOOTH",
"154 204 OFFCURVE",
"161 221 OFFCURVE",
"191 221 CURVE SMOOTH",
"301 221 LINE"
);
}
);
width = 536;
}
);
leftKerningGroup = P.ss02;
leftMetricsKey = E;
rightKerningGroup = P.ss02;
rightMetricsKey = E;
},
{
color = 4;
glyphname = Thorn.ss02;
lastChange = "2018-03-29 21:51:48 +0000";
layers = (
{
anchors = (
{
name = bottom;
position = "{208, 0}";
},
{
name = ogonek;
position = "{373, 10}";
},
{
name = top;
position = "{208, 718}";
},
{
name = topleft;
position = "{20, 718}";
}
);
layerId = "4068F5EB-61ED-493D-A7D9-97E487B445BB";
paths = (
{
closed = 1;
nodes = (
"489 189 LINE",
"489 556 LINE",
"259 556 LINE",
"259 591 LINE SMOOTH",
"259 611 OFFCURVE",
"271 623 OFFCURVE",
"291 623 CURVE SMOOTH",
"364 623 LINE",
"364 718 LINE",
"51 718 LINE",
"51 623 LINE",
"124 623 LINE SMOOTH",
"144 623 OFFCURVE",
"156 611 OFFCURVE",
"156 591 CURVE SMOOTH",
"156 127 LINE SMOOTH",
"156 107 OFFCURVE",
"144 95 OFFCURVE",
"124 95 CURVE SMOOTH",
"51 95 LINE",
"51 0 LINE",
"364 0 LINE",
"364 95 LINE",
"291 95 LINE SMOOTH",
"271 95 OFFCURVE",
"259 107 OFFCURVE",
"259 127 CURVE SMOOTH",
"259 142 LINE SMOOTH",
"259 172 OFFCURVE",
"266 189 OFFCURVE",
"296 189 CURVE SMOOTH"
);
},
{
closed = 1;
nodes = (
"386 463 LINE",
"386 284 LINE",
"296 284 LINE SMOOTH",
"266 284 OFFCURVE",
"259 301 OFFCURVE",
"259 331 CURVE SMOOTH",
"259 406 LINE SMOOTH",
"259 443 OFFCURVE",
"279 463 OFFCURVE",
"316 463 CURVE SMOOTH"
);
}
);
width = 540;
}
);
leftKerningGroup = Thorn.ss02;
rightKerningGroup = Thorn.ss02;
},
{
color = 4;
glyphname = Q.ss02;
lastChange = "2018-03-29 21:51:48 +0000";
layers = (
{
anchors = (
{
name = bottom;
position = "{233, 0}";
},
{
name = center;
position = "{213, 359}";
},
{
name = ogonek;
position = "{382, 10}";
},
{
name = top;
position = "{233, 718}";
},
{
name = topleft;
position = "{20, 718}";
},
{
name = topright;
position = "{405, 718}";
}
);
layerId = "4068F5EB-61ED-493D-A7D9-97E487B445BB";
paths = (
{
closed = 1;
nodes = (
"51 718 LINE",
"51 0 LINE",
"181 0 LINE",
"181 -110 LINE",
"284 -110 LINE",
"284 0 LINE",
"374 0 LINE",
"374 718 LINE"
);
},
{
closed = 1;
nodes = (
"154 591 LINE SMOOTH",
"154 611 OFFCURVE",
"166 623 OFFCURVE",
"186 623 CURVE SMOOTH",
"239 623 LINE SMOOTH",
"259 623 OFFCURVE",
"271 611 OFFCURVE",
"271 591 CURVE SMOOTH",
"271 127 LINE SMOOTH",
"271 107 OFFCURVE",
"259 95 OFFCURVE",
"239 95 CURVE SMOOTH",
"186 95 LINE SMOOTH",
"166 95 OFFCURVE",
"154 107 OFFCURVE",
"154 127 CURVE SMOOTH"
);
}
);
width = 425;
}
);
leftKerningGroup = Q.ss02;
leftMetricsKey = E;
rightKerningGroup = Q.ss02;
rightMetricsKey = E;
},
{
color = 4;
glyphname = R.ss02;
lastChange = "2018-03-29 21:51:48 +0000";
layers = (
{
anchors = (
{
name = bottom;
position = "{243, 0}";
},
{
name = top;
position = "{243, 718}";
}
);
layerId = "4068F5EB-61ED-493D-A7D9-97E487B445BB";
paths = (
{
closed = 1;
nodes = (
"51 718 LINE",
"51 0 LINE",
"154 0 LINE",
"154 256 LINE SMOOTH",
"154 286 OFFCURVE",
"161 303 OFFCURVE",
"191 303 CURVE SMOOTH",
"191 303 LINE",
"318 221 LINE",
"318 150 LINE SMOOTH",
"318 113 OFFCURVE",
"298 93 OFFCURVE",
"261 93 CURVE SMOOTH",
"245 93 LINE",
"245 0 LINE",
"431 0 LINE",
"431 267 LINE",
"297 352 LINE",
"431 447 LINE",
"431 718 LINE"
);
},
{
closed = 1;
nodes = (
"191 398 LINE SMOOTH",
"161 398 OFFCURVE",
"154 415 OFFCURVE",
"154 445 CURVE SMOOTH",
"154 568 LINE SMOOTH",
"154 605 OFFCURVE",
"174 625 OFFCURVE",
"211 625 CURVE SMOOTH",
"318 625 LINE",
"318 488 LINE",
"194 398 LINE"
);
}
);
width = 482;
}
);
leftKerningGroup = R.ss02;
leftMetricsKey = E;
rightKerningGroup = R.ss02;
rightMetricsKey = E;
},
{
color = 4;
glyphname = Rdblgrave.ss02;
lastChange = "2018-03-29 21:51:48 +0000";
layers = (
{
anchors = (
{
name = bottom;
position = "{243, 0}";
},
{
name = top;
position = "{243, 718}";
}
);
layerId = "4068F5EB-61ED-493D-A7D9-97E487B445BB";
paths = (
{
closed = 1;
nodes = (
"136 791 OFFCURVE",
"163 759 OFFCURVE",
"208 759 CURVE SMOOTH",
"234 759 LINE",
"214 923 LINE",
"119 923 LINE",
"130 836 LINE SMOOTH"
);
},
{
closed = 1;
nodes = (
"266 791 OFFCURVE",
"293 759 OFFCURVE",
"338 759 CURVE SMOOTH",
"364 759 LINE",
"344 923 LINE",
"249 923 LINE",
"260 836 LINE SMOOTH"
);
},
{
closed = 1;
nodes = (
"51 718 LINE",
"51 0 LINE",
"154 0 LINE",
"154 256 LINE SMOOTH",
"154 286 OFFCURVE",
"161 303 OFFCURVE",
"191 303 CURVE SMOOTH",
"194 303 LINE",
"321 221 LINE",
"321 150 LINE SMOOTH",
"321 113 OFFCURVE",
"301 93 OFFCURVE",
"264 93 CURVE SMOOTH",
"248 93 LINE",
"248 0 LINE",
"434 0 LINE",
"434 267 LINE",
"300 352 LINE",
"434 447 LINE",
"434 718 LINE"
);
},
{
closed = 1;
nodes = (
"191 398 LINE SMOOTH",
"161 398 OFFCURVE",
"154 415 OFFCURVE",
"154 445 CURVE SMOOTH",
"154 568 LINE SMOOTH",
"154 605 OFFCURVE",
"174 625 OFFCURVE",
"211 625 CURVE SMOOTH",
"321 625 LINE",
"321 488 LINE",
"197 398 LINE"
);
}
);
width = 485;
}
);
leftKerningGroup = Rdblgrave.ss02;
rightKerningGroup = Rdblgrave.ss02;
},
{
color = 4;
glyphname = S.ss02;
lastChange = "2018-03-29 21:51:48 +0000";
layers = (
{
anchors = (
{
name = bottom;
position = "{198, 0}";
},
{
name = top;
position = "{198, 718}";
}
);
layerId = "4068F5EB-61ED-493D-A7D9-97E487B445BB";
paths = (
{
closed = 1;
nodes = (
"344 718 LINE",
"55 718 LINE",
"55 308 LINE",
"175 308 LINE SMOOTH",
"218 308 OFFCURVE",
"241 284 OFFCURVE",
"241 242 CURVE SMOOTH",
"241 127 LINE SMOOTH",
"241 107 OFFCURVE",
"229 95 OFFCURVE",
"209 95 CURVE SMOOTH",
"186 95 LINE SMOOTH",
"166 95 OFFCURVE",
"154 107 OFFCURVE",
"154 127 CURVE SMOOTH",
"154 188 LINE",
"51 188 LINE",
"51 0 LINE",
"344 0 LINE",
"344 403 LINE",
"224 403 LINE SMOOTH",
"181 403 OFFCURVE",
"158 426 OFFCURVE",
"158 469 CURVE SMOOTH",
"158 591 LINE SMOOTH",
"158 611 OFFCURVE",
"170 623 OFFCURVE",
"190 623 CURVE SMOOTH",
"209 623 LINE SMOOTH",
"229 623 OFFCURVE",
"241 611 OFFCURVE",
"241 591 CURVE SMOOTH",
"241 513 LINE",
"344 513 LINE"
);
}
);
width = 395;
}
);
leftKerningGroup = S.ss02;
leftMetricsKey = E;
rightKerningGroup = S.ss02;
rightMetricsKey = E;
},
{
color = 4;
glyphname = Germandbls.ss02;
lastChange = "2018-03-29 21:56:06 +0000";
layers = (
{
layerId = "4068F5EB-61ED-493D-A7D9-97E487B445BB";
paths = (
{
closed = 1;
nodes = (
"444 506 LINE",
"444 718 LINE",
"51 718 LINE",
"51 0 LINE",
"154 0 LINE",
"154 568 LINE SMOOTH",
"154 605 OFFCURVE",
"174 625 OFFCURVE",
"211 625 CURVE SMOOTH",
"331 625 LINE",
"331 531 LINE",
"237 441 LINE",
"237 358 LINE",
"295 358 LINE SMOOTH",
"338 358 OFFCURVE",
"361 334 OFFCURVE",
"361 292 CURVE SMOOTH",
"361 127 LINE SMOOTH",
"361 107 OFFCURVE",
"349 95 OFFCURVE",
"329 95 CURVE SMOOTH",
"328 95 LINE SMOOTH",
"308 95 OFFCURVE",
"296 107 OFFCURVE",
"296 127 CURVE SMOOTH",
"296 178 LINE",
"193 178 LINE",
"193 0 LINE",
"464 0 LINE",
"464 453 LINE",
"382 453 LINE"
);
}
);
width = 515;
}
);
rightMetricsKey = h;
},
{
color = 4;
glyphname = Schwa.ss02;
lastChange = "2018-03-29 21:51:48 +0000";
layers = (
{
background = {
components = (
{
name = O.ss02;
}
);
};
layerId = "4068F5EB-61ED-493D-A7D9-97E487B445BB";
paths = (
{
closed = 1;
nodes = (
"51 718 LINE",
"51 543 LINE",
"154 543 LINE",
"154 591 LINE SMOOTH",
"154 611 OFFCURVE",
"166 623 OFFCURVE",
"186 623 CURVE SMOOTH",
"271 623 LINE",
"271 463 LINE SMOOTH",
"271 440 OFFCURVE",
"258 427 OFFCURVE",
"235 427 CURVE SMOOTH",
"51 427 LINE",
"51 0 LINE",
"374 0 LINE",
"374 718 LINE"
);
},
{
closed = 1;
nodes = (
"271 107 OFFCURVE",
"259 95 OFFCURVE",
"239 95 CURVE SMOOTH",
"186 95 LINE SMOOTH",
"166 95 OFFCURVE",
"154 103 OFFCURVE",
"154 127 CURVE SMOOTH",
"154 332 LINE",
"235 332 LINE SMOOTH",
"258 332 OFFCURVE",
"271 319 OFFCURVE",
"271 296 CURVE SMOOTH",
"271 127 LINE SMOOTH"
);
}
);
width = 425;
}
);
leftKerningGroup = Schwa.ss02;
rightKerningGroup = Schwa.ss02;
},
{
color = 4;
glyphname = T.ss02;
lastChange = "2018-03-29 21:51:48 +0000";
layers = (
{
anchors = (
{
name = bottom;
position = "{283, 0}";
},
{
name = center;
position = "{283, 359}";
},
{
name = top;
position = "{283, 718}";
}
);
layerId = "4068F5EB-61ED-493D-A7D9-97E487B445BB";
paths = (
{
closed = 1;
nodes = (
"514 718 LINE",
"51 718 LINE",
"51 482 LINE",
"153 482 LINE",
"153 591 LINE SMOOTH",
"153 611 OFFCURVE",
"165 623 OFFCURVE",
"185 623 CURVE SMOOTH",
"199 623 LINE SMOOTH",
"219 623 OFFCURVE",
"231 611 OFFCURVE",
"231 591 CURVE SMOOTH",
"231 95 LINE",
"111 95 LINE",
"111 0 LINE",
"463 0 LINE",
"463 95 LINE",
"334 95 LINE",
"334 591 LINE SMOOTH",
"334 611 OFFCURVE",
"346 623 OFFCURVE",
"366 623 CURVE SMOOTH",
"380 623 LINE SMOOTH",
"400 623 OFFCURVE",
"412 611 OFFCURVE",
"412 591 CURVE SMOOTH",
"412 482 LINE",
"514 482 LINE"
);
}
);
width = 565;
}
);
leftKerningGroup = T.ss02;
leftMetricsKey = E;
rightKerningGroup = T.ss02;
rightMetricsKey = E;
},
{
color = 4;
glyphname = Tbar.ss02;
lastChange = "2018-03-29 21:51:48 +0000";
layers = (
{
anchors = (
{
name = bottom;
position = "{283, 0}";
},
{
name = center;
position = "{283, 359}";
},
{
name = top;
position = "{283, 718}";
}
);
layerId = "4068F5EB-61ED-493D-A7D9-97E487B445BB";
paths = (
{
closed = 1;
nodes = (
"514 718 LINE",
"51 718 LINE",
"51 482 LINE",
"153 482 LINE",
"153 591 LINE SMOOTH",
"153 611 OFFCURVE",
"165 623 OFFCURVE",
"185 623 CURVE SMOOTH",
"199 623 LINE SMOOTH",
"219 623 OFFCURVE",
"231 611 OFFCURVE",
"231 591 CURVE SMOOTH",
"231 346 LINE",
"80 346 LINE",
"80 251 LINE",
"231 251 LINE",
"231 95 LINE",
"111 95 LINE",
"111 0 LINE",
"463 0 LINE",
"463 95 LINE",
"334 95 LINE",
"334 251 LINE",
"485 251 LINE",
"485 346 LINE",
"334 346 LINE",
"334 591 LINE SMOOTH",
"334 611 OFFCURVE",
"346 623 OFFCURVE",
"366 623 CURVE SMOOTH",
"380 623 LINE SMOOTH",
"400 623 OFFCURVE",
"412 611 OFFCURVE",
"412 591 CURVE SMOOTH",
"412 482 LINE",
"514 482 LINE"
);
}
);
width = 565;
}
);
leftKerningGroup = Tbar.ss02;
rightKerningGroup = Tbar.ss02;
},
{
color = 4;
glyphname = U.ss02;
lastChange = "2018-03-29 21:51:48 +0000";
layers = (
{
anchors = (
{
name = bottom;
position = "{198, 0}";
},
{
name = ogonek;
position = "{285, 0}";
},
{
name = top;
position = "{198, 718}";
},
{
name = topright;
position = "{375, 718}";
}
);
layerId = "4068F5EB-61ED-493D-A7D9-97E487B445BB";
paths = (
{
closed = 1;
nodes = (
"51 718 LINE",
"51 0 LINE",
"344 0 LINE",
"344 718 LINE",
"241 718 LINE",
"241 127 LINE SMOOTH",
"241 107 OFFCURVE",
"229 95 OFFCURVE",
"209 95 CURVE SMOOTH",
"186 95 LINE SMOOTH",
"166 95 OFFCURVE",
"154 107 OFFCURVE",
"154 127 CURVE SMOOTH",
"154 718 LINE"
);
}
);
width = 395;
}
);
leftKerningGroup = U.ss02;
leftMetricsKey = E;
rightKerningGroup = U.ss02;
rightMetricsKey = E;
},
{
color = 4;
glyphname = Udblgrave.ss02;
lastChange = "2018-03-29 21:51:48 +0000";
layers = (
{
anchors = (
{
name = bottom;
position = "{198, 0}";
},
{
name = ogonek;
position = "{355, 10}";
},
{
name = top;
position = "{198, 718}";
},
{
name = topright;
position = "{375, 718}";
}
);
layerId = "4068F5EB-61ED-493D-A7D9-97E487B445BB";
paths = (
{
closed = 1;
nodes = (
"91 791 OFFCURVE",
"118 759 OFFCURVE",
"163 759 CURVE SMOOTH",
"189 759 LINE",
"169 923 LINE",
"74 923 LINE",
"85 836 LINE SMOOTH"
);
},
{
closed = 1;
nodes = (
"221 791 OFFCURVE",
"248 759 OFFCURVE",
"293 759 CURVE SMOOTH",
"319 759 LINE",
"299 923 LINE",
"204 923 LINE",
"215 836 LINE SMOOTH"
);
},
{
closed = 1;
nodes = (
"51 718 LINE",
"51 0 LINE",
"344 0 LINE",
"344 718 LINE",
"241 718 LINE",
"241 127 LINE SMOOTH",
"241 107 OFFCURVE",
"229 95 OFFCURVE",
"209 95 CURVE SMOOTH",
"186 95 LINE SMOOTH",
"166 95 OFFCURVE",
"154 107 OFFCURVE",
"154 127 CURVE SMOOTH",
"154 718 LINE"
);
}
);
width = 395;
}
);
leftKerningGroup = Udblgrave.ss02;
rightKerningGroup = Udblgrave.ss02;
},
{
color = 4;
glyphname = Ugrave.ss02;
lastChange = "2018-03-29 21:51:48 +0000";
layers = (
{
anchors = (
{
name = bottom;
position = "{198, 0}";
},
{
name = ogonek;
position = "{355, 10}";
},
{
name = top;
position = "{198, 718}";
},
{
name = topright;
position = "{375, 718}";
}
);
layerId = "4068F5EB-61ED-493D-A7D9-97E487B445BB";
paths = (
{
closed = 1;
nodes = (
"153 798 OFFCURVE",
"186 766 OFFCURVE",
"231 766 CURVE SMOOTH",
"243 766 LINE",
"243 923 LINE",
"153 923 LINE",
"153 843 LINE SMOOTH"
);
},
{
closed = 1;
nodes = (
"51 718 LINE",
"51 0 LINE",
"344 0 LINE",
"344 718 LINE",
"241 718 LINE",
"241 127 LINE SMOOTH",
"241 107 OFFCURVE",
"229 95 OFFCURVE",
"209 95 CURVE SMOOTH",
"186 95 LINE SMOOTH",
"166 95 OFFCURVE",
"154 107 OFFCURVE",
"154 127 CURVE SMOOTH",
"154 718 LINE"
);
}
);
width = 395;
}
);
leftKerningGroup = Ugrave.ss02;
rightKerningGroup = Ugrave.ss02;
},
{
color = 4;
glyphname = V.ss02;
lastChange = "2018-03-29 21:51:48 +0000";
layers = (
{
anchors = (
{
name = bottom;
position = "{232, 0}";
},
{
name = top;
position = "{232, 718}";
}
);
layerId = "4068F5EB-61ED-493D-A7D9-97E487B445BB";
paths = (
{
closed = 1;
nodes = (
"310 264 LINE",
"232 138 LINE",
"154 264 LINE",
"154 718 LINE",
"51 718 LINE",
"51 240 LINE",
"200 0 LINE",
"264 0 LINE",
"413 240 LINE",
"413 718 LINE",
"310 718 LINE"
);
}
);
width = 464;
}
);
leftKerningGroup = V.ss02;
leftMetricsKey = E;
rightKerningGroup = V.ss02;
rightMetricsKey = E;
},
{
color = 4;
glyphname = W.ss02;
lastChange = "2018-03-29 21:51:48 +0000";
layers = (
{
anchors = (
{
name = bottom;
position = "{316, 0}";
},
{
name = top;
position = "{316, 718}";
}
);
layerId = "4068F5EB-61ED-493D-A7D9-97E487B445BB";
paths = (
{
closed = 1;
nodes = (
"315 132 LINE",
"418 0 LINE",
"580 0 LINE",
"580 718 LINE",
"430 718 LINE",
"430 623 LINE",
"443 623 LINE SMOOTH",
"463 623 OFFCURVE",
"475 611 OFFCURVE",
"475 591 CURVE SMOOTH",
"475 113 LINE",
"456 113 LINE",
"370 224 LINE",
"365 230 OFFCURVE",
"363 237 OFFCURVE",
"363 245 CURVE SMOOTH",
"363 623 LINE",
"268 623 LINE",
"268 245 LINE SMOOTH",
"268 237 OFFCURVE",
"266 230 OFFCURVE",
"261 224 CURVE",
"175 113 LINE",
"156 113 LINE",
"156 591 LINE SMOOTH",
"156 611 OFFCURVE",
"168 623 OFFCURVE",
"188 623 CURVE SMOOTH",
"201 623 LINE",
"201 718 LINE",
"51 718 LINE",
"51 0 LINE",
"213 0 LINE"
);
}
);
width = 631;
}
);
leftKerningGroup = W.ss02;
leftMetricsKey = E;
rightKerningGroup = W.ss02;
rightMetricsKey = E;
},
{
color = 4;
glyphname = Wgrave.ss02;
lastChange = "2018-03-29 21:51:48 +0000";
layers = (
{
anchors = (
{
name = bottom;
position = "{316, 0}";
},
{
name = top;
position = "{316, 718}";
}
);
layerId = "4068F5EB-61ED-493D-A7D9-97E487B445BB";
paths = (
{
closed = 1;
nodes = (
"271 798 OFFCURVE",
"304 766 OFFCURVE",
"349 766 CURVE SMOOTH",
"361 766 LINE",
"361 923 LINE",
"271 923 LINE",
"271 843 LINE SMOOTH"
);
},
{
closed = 1;
nodes = (
"315 132 LINE",
"418 0 LINE",
"580 0 LINE",
"580 718 LINE",
"430 718 LINE",
"430 623 LINE",
"443 623 LINE SMOOTH",
"463 623 OFFCURVE",
"475 611 OFFCURVE",
"475 591 CURVE SMOOTH",
"475 113 LINE",
"456 113 LINE",
"370 224 LINE",
"365 230 OFFCURVE",
"363 237 OFFCURVE",
"363 245 CURVE SMOOTH",
"363 623 LINE",
"268 623 LINE",
"268 245 LINE SMOOTH",
"268 237 OFFCURVE",
"266 230 OFFCURVE",
"261 224 CURVE",
"175 113 LINE",
"156 113 LINE",
"156 591 LINE SMOOTH",
"156 611 OFFCURVE",
"168 623 OFFCURVE",
"188 623 CURVE SMOOTH",
"201 623 LINE",
"201 718 LINE",
"51 718 LINE",
"51 0 LINE",
"213 0 LINE"
);
}
);
width = 631;
}
);
leftKerningGroup = Wgrave.ss02;
rightKerningGroup = Wgrave.ss02;
},
{
color = 4;
glyphname = X.ss02;
lastChange = "2018-03-29 21:51:48 +0000";
layers = (
{
anchors = (
{
name = bottom;
position = "{232, 0}";
},
{
name = top;
position = "{232, 718}";
}
);
layerId = "4068F5EB-61ED-493D-A7D9-97E487B445BB";
paths = (
{
closed = 1;
nodes = (
"310 718 LINE",
"310 544 LINE",
"232 427 LINE",
"154 544 LINE",
"154 718 LINE",
"51 718 LINE",
"51 520 LINE",
"160 360 LINE",
"51 199 LINE",
"51 0 LINE",
"154 0 LINE",
"154 175 LINE",
"232 292 LINE",
"310 175 LINE",
"310 0 LINE",
"413 0 LINE",
"413 199 LINE",
"304 360 LINE",
"413 520 LINE",
"413 718 LINE"
);
}
);
width = 464;
},
{
associatedMasterId = "4068F5EB-61ED-493D-A7D9-97E487B445BB";
layerId = "1E7C235B-BD96-4FFF-ABC3-BB459E26E285";
name = "Apr 19 17, 00:18";
paths = (
{
closed = 1;
nodes = (
"275 359 LINE",
"407 460 LINE",
"407 718 LINE",
"304 718 LINE",
"304 503 LINE",
"233 440 LINE",
"162 503 LINE",
"162 718 LINE",
"59 718 LINE",
"59 460 LINE",
"190 360 LINE",
"51 273 LINE",
"51 0 LINE",
"154 0 LINE",
"154 225 LINE",
"233 274 LINE",
"312 225 LINE",
"312 0 LINE",
"415 0 LINE",
"415 273 LINE"
);
}
);
width = 466;
},
{
associatedMasterId = "4068F5EB-61ED-493D-A7D9-97E487B445BB";
layerId = "AEE0CDBA-FD60-4284-AE40-A7A3C340C9D2";
name = "Apr 19 17, 00:18";
paths = (
{
closed = 1;
nodes = (
"275 359 LINE",
"407 460 LINE",
"407 718 LINE",
"304 718 LINE",
"304 503 LINE",
"233 440 LINE",
"162 503 LINE",
"162 718 LINE",
"59 718 LINE",
"59 460 LINE",
"190 360 LINE",
"51 273 LINE",
"51 0 LINE",
"154 0 LINE",
"154 225 LINE",
"233 274 LINE",
"312 225 LINE",
"312 0 LINE",
"415 0 LINE",
"415 273 LINE"
);
}
);
width = 466;
}
);
leftKerningGroup = X.ss02;
leftMetricsKey = E;
rightKerningGroup = X.ss02;
rightMetricsKey = E;
},
{
color = 4;
glyphname = Y.ss02;
lastChange = "2018-03-29 21:51:48 +0000";
layers = (
{
anchors = (
{
name = bottom;
position = "{255, 0}";
},
{
name = top;
position = "{255, 718}";
},
{
name = topleft;
position = "{30, 718}";
}
);
layerId = "4068F5EB-61ED-493D-A7D9-97E487B445BB";
paths = (
{
closed = 1;
nodes = (
"459 718 LINE",
"356 718 LINE",
"356 534 LINE",
"256 457 LINE",
"154 534 LINE",
"154 718 LINE",
"51 718 LINE",
"51 487 LINE",
"204 371 LINE",
"204 127 LINE SMOOTH",
"204 107 OFFCURVE",
"192 95 OFFCURVE",
"172 95 CURVE SMOOTH",
"89 95 LINE",
"89 0 LINE",
"422 0 LINE",
"422 95 LINE",
"339 95 LINE SMOOTH",
"319 95 OFFCURVE",
"307 107 OFFCURVE",
"307 127 CURVE SMOOTH",
"307 371 LINE",
"459 487 LINE"
);
}
);
width = 510;
}
);
leftKerningGroup = Y.ss02;
leftMetricsKey = E;
rightKerningGroup = Y.ss02;
rightMetricsKey = E;
},
{
color = 4;
glyphname = Ygrave.ss02;
lastChange = "2018-03-29 21:51:48 +0000";
layers = (
{
anchors = (
{
name = bottom;
position = "{255, 0}";
},
{
name = top;
position = "{255, 718}";
},
{
name = topleft;
position = "{30, 718}";
}
);
layerId = "4068F5EB-61ED-493D-A7D9-97E487B445BB";
paths = (
{
closed = 1;
nodes = (
"210 798 OFFCURVE",
"243 766 OFFCURVE",
"288 766 CURVE SMOOTH",
"300 766 LINE",
"300 923 LINE",
"210 923 LINE",
"210 843 LINE SMOOTH"
);
},
{
closed = 1;
nodes = (
"459 718 LINE",
"356 718 LINE",
"356 534 LINE",
"256 457 LINE",
"154 534 LINE",
"154 718 LINE",
"51 718 LINE",
"51 487 LINE",
"204 371 LINE",
"204 127 LINE SMOOTH",
"204 107 OFFCURVE",
"192 95 OFFCURVE",
"172 95 CURVE SMOOTH",
"89 95 LINE",
"89 0 LINE",
"422 0 LINE",
"422 95 LINE",
"339 95 LINE SMOOTH",
"319 95 OFFCURVE",
"307 107 OFFCURVE",
"307 127 CURVE SMOOTH",
"307 371 LINE",
"459 487 LINE"
);
}
);
width = 510;
}
);
leftKerningGroup = Ygrave.ss02;
rightKerningGroup = Ygrave.ss02;
},
{
color = 4;
glyphname = Z.ss02;
lastChange = "2018-03-29 21:51:48 +0000";
layers = (
{
anchors = (
{
name = bottom;
position = "{223, 0}";
},
{
name = top;
position = "{223, 718}";
}
);
layerId = "4068F5EB-61ED-493D-A7D9-97E487B445BB";
paths = (
{
closed = 1;
nodes = (
"291 127 LINE SMOOTH",
"291 107 OFFCURVE",
"279 95 OFFCURVE",
"259 95 CURVE SMOOTH",
"186 95 LINE SMOOTH",
"166 95 OFFCURVE",
"154 107 OFFCURVE",
"154 127 CURVE SMOOTH",
"154 242 LINE SMOOTH",
"154 284 OFFCURVE",
"177 308 OFFCURVE",
"220 308 CURVE SMOOTH",
"390 308 LINE",
"390 718 LINE",
"51 718 LINE",
"51 513 LINE",
"154 513 LINE",
"154 591 LINE SMOOTH",
"154 611 OFFCURVE",
"166 623 OFFCURVE",
"186 623 CURVE SMOOTH",
"255 623 LINE SMOOTH",
"275 623 OFFCURVE",
"287 611 OFFCURVE",
"287 591 CURVE SMOOTH",
"287 469 LINE SMOOTH",
"287 426 OFFCURVE",
"264 403 OFFCURVE",
"221 403 CURVE SMOOTH",
"51 403 LINE",
"51 0 LINE",
"394 0 LINE",
"394 188 LINE",
"291 188 LINE"
);
}
);
width = 445;
}
);
leftKerningGroup = Z.ss02;
leftMetricsKey = E;
rightKerningGroup = Z.ss02;
rightMetricsKey = E;
},
{
color = 1;
glyphname = a;
lastChange = "2018-03-29 21:51:59 +0000";
layers = (
{
anchors = (
{
name = bottom;
position = "{192, 0}";
},
{
name = ogonek;
position = "{462, 0}";
},
{
name = top;
position = "{264, 487}";
}
);
background = {
components = (
{
name = o;
}
);
};
layerId = "4068F5EB-61ED-493D-A7D9-97E487B445BB";
paths = (
{
closed = 1;
nodes = (
"51 347 LINE",
"151 347 LINE",
"151 365 LINE SMOOTH",
"151 385 OFFCURVE",
"163 397 OFFCURVE",
"183 397 CURVE SMOOTH",
"326 397 LINE SMOOTH",
"346 397 OFFCURVE",
"358 385 OFFCURVE",
"358 365 CURVE SMOOTH",
"358 287 LINE",
"51 287 LINE",
"51 0 LINE",
"264 0 LINE",
"358 59 LINE",
"358 0 LINE",
"458 0 LINE",
"458 487 LINE",
"51 487 LINE"
);
},
{
closed = 1;
nodes = (
"188 92 LINE SMOOTH",
"158 92 OFFCURVE",
"151 109 OFFCURVE",
"151 139 CURVE SMOOTH",
"151 148 LINE SMOOTH",
"151 178 OFFCURVE",
"158 197 OFFCURVE",
"188 197 CURVE SMOOTH",
"358 197 LINE",
"358 174 LINE",
"231 92 LINE"
);
}
);
width = 509;
},
{
associatedMasterId = "4068F5EB-61ED-493D-A7D9-97E487B445BB";
layerId = "D8D5D010-A444-48C8-9FF4-65618D12DFC6";
name = "Apr 2 17, 16:50";
paths = (
{
closed = 1;
nodes = (
"404 718 LINE",
"141 718 LINE",
"51 1 LINE",
"154 0 LINE",
"224 591 LINE SMOOTH",
"226 611 OFFCURVE",
"236 623 OFFCURVE",
"256 623 CURVE SMOOTH",
"289 623 LINE SMOOTH",
"309 623 OFFCURVE",
"319 611 OFFCURVE",
"321 591 CURVE SMOOTH",
"391 0 LINE",
"494 0 LINE"
);
},
{
closed = 1;
nodes = (
"88 139 LINE",
"454 139 LINE",
"434 246 LINE",
"108 246 LINE"
);
}
);
width = 545;
},
{
associatedMasterId = "4068F5EB-61ED-493D-A7D9-97E487B445BB";
layerId = "FEF42308-E98A-4954-BF2E-4923C74EF026";
name = "Apr 19 17, 00:40";
paths = (
{
closed = 1;
nodes = (
"160 513 LINE",
"160 591 LINE SMOOTH",
"160 611 OFFCURVE",
"172 623 OFFCURVE",
"192 623 CURVE SMOOTH",
"319 623 LINE SMOOTH",
"339 623 OFFCURVE",
"351 611 OFFCURVE",
"351 591 CURVE SMOOTH",
"351 442 LINE SMOOTH",
"351 419 OFFCURVE",
"338 406 OFFCURVE",
"315 406 CURVE SMOOTH",
"79 406 LINE",
"79 311 LINE",
"315 311 LINE SMOOTH",
"338 311 OFFCURVE",
"351 298 OFFCURVE",
"351 275 CURVE SMOOTH",
"351 127 LINE SMOOTH",
"351 107 OFFCURVE",
"339 95 OFFCURVE",
"319 95 CURVE SMOOTH",
"186 95 LINE SMOOTH",
"166 95 OFFCURVE",
"154 107 OFFCURVE",
"154 127 CURVE SMOOTH",
"154 406 LINE",
"51 406 LINE",
"51 0 LINE",
"454 0 LINE",
"454 718 LINE",
"57 718 LINE",
"57 513 LINE"
);
}
);
width = 505;
},
{
anchors = (
{
name = bottom;
position = "{252, 0}";
},
{
name = ogonek;
position = "{454, 10}";
},
{
name = top;
position = "{252, 718}";
}
);
associatedMasterId = "4068F5EB-61ED-493D-A7D9-97E487B445BB";
layerId = "0EEFB6A5-FC5E-4129-859E-46F382F83AA0";
name = "Nov 12 17, 11:45";
paths = (
{
closed = 1;
nodes = (
"51 718 LINE",
"51 231 LINE",
"453 231 LINE",
"453 718 LINE"
);
},
{
closed = 1;
nodes = (
"353 338 OFFCURVE",
"346 321 OFFCURVE",
"316 321 CURVE SMOOTH",
"188 321 LINE SMOOTH",
"158 321 OFFCURVE",
"151 338 OFFCURVE",
"151 368 CURVE SMOOTH",
"151 571 LINE SMOOTH",
"151 608 OFFCURVE",
"171 628 OFFCURVE",
"208 628 CURVE SMOOTH",
"296 628 LINE SMOOTH",
"333 628 OFFCURVE",
"353 608 OFFCURVE",
"353 571 CURVE SMOOTH",
"353 368 LINE SMOOTH"
);
}
);
width = 504;
},
{
anchors = (
{
name = bottom;
position = "{192, 0}";
},
{
name = ogonek;
position = "{462, 0}";
},
{
name = top;
position = "{264, 487}";
}
);
associatedMasterId = "4068F5EB-61ED-493D-A7D9-97E487B445BB";
background = {
components = (
{
name = o;
}
);
};
layerId = "5171D310-8554-466D-9AF5-03DCC5118B83";
name = "Nov 12 17, 22:33";
paths = (
{
closed = 1;
nodes = (
"264 0 LINE",
"358 59 LINE",
"358 0 LINE",
"458 0 LINE",
"458 487 LINE",
"358 487 LINE",
"358 174 LINE",
"231 92 LINE",
"188 92 LINE SMOOTH",
"158 92 OFFCURVE",
"151 109 OFFCURVE",
"151 139 CURVE SMOOTH",
"151 340 LINE SMOOTH",
"151 377 OFFCURVE",
"171 397 OFFCURVE",
"208 397 CURVE SMOOTH",
"404 397 LINE",
"404 487 LINE",
"51 487 LINE",
"51 0 LINE"
);
}
);
width = 509;
},
{
associatedMasterId = "4068F5EB-61ED-493D-A7D9-97E487B445BB";
layerId = "5ED9202F-C2B5-4161-BBAA-766201454BF2";
name = "Apr 2 17, 16:50";
paths = (
{
closed = 1;
nodes = (
"404 718 LINE",
"141 718 LINE",
"51 1 LINE",
"154 0 LINE",
"224 591 LINE SMOOTH",
"226 611 OFFCURVE",
"236 623 OFFCURVE",
"256 623 CURVE SMOOTH",
"289 623 LINE SMOOTH",
"309 623 OFFCURVE",
"319 611 OFFCURVE",
"321 591 CURVE SMOOTH",
"391 0 LINE",
"494 0 LINE"
);
},
{
closed = 1;
nodes = (
"88 139 LINE",
"454 139 LINE",
"434 246 LINE",
"108 246 LINE"
);
}
);
width = 545;
},
{
associatedMasterId = "4068F5EB-61ED-493D-A7D9-97E487B445BB";
layerId = "FC5AC02B-1602-4112-BDDE-786A8287B7EF";
name = "Apr 19 17, 00:40";
paths = (
{
closed = 1;
nodes = (
"160 513 LINE",
"160 591 LINE SMOOTH",
"160 611 OFFCURVE",
"172 623 OFFCURVE",
"192 623 CURVE SMOOTH",
"319 623 LINE SMOOTH",
"339 623 OFFCURVE",
"351 611 OFFCURVE",
"351 591 CURVE SMOOTH",
"351 442 LINE SMOOTH",
"351 419 OFFCURVE",
"338 406 OFFCURVE",
"315 406 CURVE SMOOTH",
"79 406 LINE",
"79 311 LINE",
"315 311 LINE SMOOTH",
"338 311 OFFCURVE",
"351 298 OFFCURVE",
"351 275 CURVE SMOOTH",
"351 127 LINE SMOOTH",
"351 107 OFFCURVE",
"339 95 OFFCURVE",
"319 95 CURVE SMOOTH",
"186 95 LINE SMOOTH",
"166 95 OFFCURVE",
"154 107 OFFCURVE",
"154 127 CURVE SMOOTH",
"154 406 LINE",
"51 406 LINE",
"51 0 LINE",
"454 0 LINE",
"454 718 LINE",
"57 718 LINE",
"57 513 LINE"
);
}
);
width = 505;
},
{
anchors = (
{
name = bottom;
position = "{252, 0}";
},
{
name = ogonek;
position = "{454, 10}";
},
{
name = top;
position = "{252, 718}";
}
);
associatedMasterId = "4068F5EB-61ED-493D-A7D9-97E487B445BB";
layerId = "D642894E-E26A-4E65-BE89-70BED0143247";
name = "Nov 12 17, 11:45";
paths = (
{
closed = 1;
nodes = (
"51 718 LINE",
"51 231 LINE",
"453 231 LINE",
"453 718 LINE"
);
},
{
closed = 1;
nodes = (
"353 338 OFFCURVE",
"346 321 OFFCURVE",
"316 321 CURVE SMOOTH",
"188 321 LINE SMOOTH",
"158 321 OFFCURVE",
"151 338 OFFCURVE",
"151 368 CURVE SMOOTH",
"151 571 LINE SMOOTH",
"151 608 OFFCURVE",
"171 628 OFFCURVE",
"208 628 CURVE SMOOTH",
"296 628 LINE SMOOTH",
"333 628 OFFCURVE",
"353 608 OFFCURVE",
"353 571 CURVE SMOOTH",
"353 368 LINE SMOOTH"
);
}
);
width = 504;
},
{
anchors = (
{
name = bottom;
position = "{192, 0}";
},
{
name = ogonek;
position = "{462, 0}";
},
{
name = top;
position = "{264, 487}";
}
);
associatedMasterId = "4068F5EB-61ED-493D-A7D9-97E487B445BB";
background = {
components = (
{
name = o;
}
);
};
layerId = "E15B816B-26BB-45E5-9EB9-923FB9FE99B4";
name = "Nov 12 17, 22:33";
paths = (
{
closed = 1;
nodes = (
"264 0 LINE",
"358 59 LINE",
"358 0 LINE",
"458 0 LINE",
"458 487 LINE",
"358 487 LINE",
"358 174 LINE",
"231 92 LINE",
"188 92 LINE SMOOTH",
"158 92 OFFCURVE",
"151 109 OFFCURVE",
"151 139 CURVE SMOOTH",
"151 340 LINE SMOOTH",
"151 377 OFFCURVE",
"171 397 OFFCURVE",
"208 397 CURVE SMOOTH",
"404 397 LINE",
"404 487 LINE",
"51 487 LINE",
"51 0 LINE"
);
}
);
width = 509;
}
);
leftKerningGroup = a;
leftMetricsKey = E;
rightKerningGroup = n;
rightMetricsKey = E;
unicode = 0061;
},
